<?xml version="1.0" encoding="UTF-8" standalone="no"?>
<!-- Created with Inkscape (http://www.inkscape.org/) -->
<svg xmlns:svg="http://www.w3.org/2000/svg" xmlns="http://www.w3.org/2000/svg" version="1.0" width="719.58" height="655.81" id="svg2">
  <defs id="defs5"/>
  <rect width="708.66" height="644.89" ry="0.15296" x="5.4602" y="5.4602" style="opacity: 1; fill: rgb(0, 34, 118); fill-opacity: 1; stroke: rgb(255, 255, 255); stroke-width: 10.9205; stroke-linecap: square; stroke-linejoin: miter; stroke-miterlimit: 4; stroke-dasharray: none; stroke-opacity: 1;" id="rect1904"/>
  <path d="M 112.77,194.07 L 112.77,236.49 L 155.19,236.49 L 155.19,471.07 L 210.09,471.07 L 210.09,194.07 L 112.77,194.07 z " style="opacity: 1; fill: rgb(255, 255, 255); fill-opacity: 1; stroke: none; stroke-width: 1; stroke-linecap: square; stroke-linejoin: miter; stroke-miterlimit: 4; stroke-dasharray: none; stroke-opacity: 1;" id="path1879"/>
  <path d="M 467.13,194.07 L 467.13,236.49 L 512.05,236.49 L 512.05,471.07 L 566.95,471.07 L 566.95,194.07 L 467.13,194.07 z " style="opacity: 1; fill: rgb(255, 255, 255); fill-opacity: 1; stroke: none; stroke-width: 1; stroke-linecap: square; stroke-linejoin: miter; stroke-miterlimit: 4; stroke-dasharray: none; stroke-opacity: 1;" id="path1881"/>
  <path d="M 336.59,188.16 C 290.73,189.21 253.59,234.89 282.47,283.91 L 282.5,283.94 L 302.22,310.34 C 268.55,328.91 244.12,352.83 245.69,393.72 C 249.73,454.87 293.79,473.78 342.34,476.06 C 367.5,474.6 392.43,472.65 410.5,455.34 L 422.22,471.06 L 477.13,471.06 C 465.95,456.16 454.45,440.79 442.91,425.34 C 466.01,399.39 465.4,362.85 464.63,328.84 L 419.72,328.84 C 418.91,347.87 421.97,381.99 413.44,385.91 C 397.43,364.48 381.51,343.24 366.16,322.78 C 388.48,305.1 408.12,285.77 407.25,253.97 C 410.37,208.55 383.42,190.88 343.41,188.34 C 341.12,188.17 338.85,188.1 336.59,188.16 z M 342.34,230.25 C 350.29,230.51 364.41,229.5 364.81,251.47 C 363.22,268.42 351.92,277.66 340.38,288.53 C 336.63,283.56 332.85,278.54 329.22,273.75 C 326.21,269.78 322.84,266.05 320.28,262.03 C 319.29,258.09 319.49,254.9 319.44,251 C 319.27,247.03 323.63,232.11 342.34,230.25 z M 329.34,346.69 L 381.84,416.97 C 376.31,426.03 362.39,431.31 342.34,432.25 C 325.12,431.85 297.97,426.64 294.94,396.22 C 294.69,374.88 314.41,356.95 329.34,346.69 z " style="opacity: 1; fill: rgb(255, 255, 255); fill-opacity: 1; stroke: none; stroke-width: 1; stroke-linecap: square; stroke-linejoin: miter; stroke-miterlimit: 4; stroke-dasharray: none; stroke-opacity: 1;" id="path1891"/>
</svg>