<?xml version="1.0" encoding="UTF-8" standalone="no"?>
<svg xmlns="http://www.w3.org/2000/svg" xmlns:xlink="http://www.w3.org/1999/xlink" xmlns:sketch="http://www.bohemiancoding.com/sketch/ns" width="747px" height="144px" viewBox="0 0 747 144" version="1.1" class="svg logo replaced-svg">
  <g id="Page-1" stroke="none" stroke-width="1" fill="none" fill-rule="evenodd" type="MSPage">
    <path d="M231.745,61.933 C231.745,66.862 229.81,71.437 226.642,76.454 L211.066,101.18 L194.347,101.18 L205.698,83.317 C192.41,82.525 183.435,73.637 183.435,62.198 C183.435,49.702 193.29,40.022 207.634,40.022 C222.066,40.022 231.745,49.878 231.745,61.933 L231.745,61.933 Z M215.026,68.71 C217.138,65.717 217.93,63.782 217.93,61.582 C217.93,56.654 213.706,51.902 207.634,51.902 C201.563,51.902 197.426,56.654 197.426,61.67 C197.426,66.685 201.563,71.349 207.634,71.349 C210.274,71.349 212.826,70.645 214.674,69.326 L215.026,68.71 L215.026,68.71 Z M260.961,65.19 L287.448,65.19 L287.448,77.861 L260.961,77.861 L260.961,88.245 L291.321,88.245 L291.321,101.18 L246.09,101.18 L246.09,41.342 L291.321,41.342 L291.321,54.278 L260.961,54.278 L260.961,65.19 L260.961,65.19 Z M350.808,101.18 L306.369,101.18 L306.369,41.342 L321.241,41.342 L321.241,88.069 L350.808,88.069 L350.808,101.18 L350.808,101.18 Z M378.44,65.19 L404.927,65.19 L404.927,77.861 L378.44,77.861 L378.44,88.245 L408.799,88.245 L408.799,101.18 L363.569,101.18 L363.569,41.342 L408.799,41.342 L408.799,54.278 L378.44,54.278 L378.44,65.19 L378.44,65.19 Z M488.437,101.18 L473.565,101.18 L473.565,71.173 L460.278,91.676 L460.278,91.765 L452.006,91.765 L452.006,91.676 L438.63,70.998 L438.718,101.18 L423.847,101.18 L423.847,41.342 L434.846,41.342 L456.142,73.286 L477.349,41.342 L488.437,41.342 L488.437,101.18 L488.437,101.18 Z M520.03,65.19 L546.517,65.19 L546.517,77.861 L520.03,77.861 L520.03,88.245 L550.389,88.245 L550.389,101.18 L505.159,101.18 L505.159,41.342 L550.389,41.342 L550.389,54.278 L520.03,54.278 L520.03,65.19 L520.03,65.19 Z M620.524,101.18 L608.996,101.18 L580.309,68.357 L580.309,101.18 L565.438,101.18 L565.438,41.342 L576.789,41.342 L605.653,75.045 L605.653,41.342 L620.524,41.342 L620.524,101.18 L620.524,101.18 Z M667.428,54.63 L667.428,101.18 L652.556,101.18 L652.556,54.63 L633.461,54.63 L633.461,41.342 L686.435,41.342 L686.435,54.63 L667.428,54.63 L667.428,54.63 Z M746.803,59.91 L731.843,59.91 C731.051,55.422 728.236,52.342 722.163,52.342 C717.06,52.342 713.627,54.454 713.627,58.326 C713.627,61.582 716.003,62.99 720.491,63.958 L728.851,65.893 C739.763,68.269 746.891,72.67 746.891,82.965 C746.891,94.932 737.035,102.413 722.076,102.413 C708.612,102.413 696.468,96.077 695.06,81.294 L709.932,81.294 C710.9,86.573 715.476,89.741 722.516,89.741 C728.059,89.741 730.963,87.717 730.963,84.461 C730.963,82.437 729.731,80.325 724.627,79.357 L714.772,77.157 C702.98,74.605 697.436,69.061 697.436,59.558 C697.436,47.59 707.115,40.022 721.196,40.022 C730.875,40.022 745.307,43.806 746.803,59.91 L746.803,59.91 Z M0,143.219 L143.22,143.219 L143.22,0 L0,0 L0,143.219 Z M106.908,101.209 C106.335,101.428 102.377,101.583 105.178,101.9 C106.937,102.098 104.106,102.239 104.115,102.874 C104.695,102.857 105.571,103.97 105.798,103.936 C105.829,104.103 104.058,104.575 104.434,104.629 C105.939,104.84 103.16,104.942 103.344,105.302 C103.865,106.329 103.088,105.98 104.066,106.451 C104.588,106.703 104.435,107.624 104.091,107.701 C103.643,107.8 103.508,108.042 103.098,108.079 C103.04,108.452 102.702,108.625 102.253,108.689 C101.281,109.05 100.192,109.464 99.141,109.57 C98.462,109.639 98.494,109.704 97.819,109.575 C97.097,109.67 95.995,109.73 95.275,109.66 C94.678,109.805 85.762,110.327 85.017,110.226 C84.423,110.353 80.855,110.476 80.123,110.372 C79.384,110.512 73.195,110.678 72.554,110.604 C71.802,110.735 70.644,110.789 69.888,110.687 C69.137,110.835 67.975,110.862 67.215,110.774 C66.479,110.912 50.121,110.523 49.325,110.4 C48.553,110.495 44.728,110.367 43.968,110.237 C43.332,110.332 42.375,110.266 41.739,110.169 C40.997,110.273 39.843,110.215 39.122,110.014 C38.707,109.899 38.436,109.961 38.258,109.548 C38.112,109.208 38.151,108.999 37.877,108.854 C37.556,108.684 37.536,107.953 37.747,107.679 C37.394,106.928 37.886,105.525 37.603,104.487 C37.434,103.867 37.766,103.901 38.068,103.337 C37.713,103.36 37.637,102.729 37.678,102.611 C37.908,101.956 37.571,101.637 38.061,101.082 C38.356,100.749 38.221,100.476 38.748,100.475 C39.129,100.476 39.589,100.477 39.963,100.538 C40.779,100.474 41.836,100.515 42.645,100.639 C44.299,100.527 51.748,100.798 53.357,101.053 C54.895,100.945 56.735,101.053 58.267,101.238 C59.913,101.155 87.532,100.943 89.031,100.871 C90.677,100.794 92.535,100.544 94.172,100.705 C95.348,100.511 96.86,100.628 98.019,100.853 C99.089,100.815 99.59,100.427 100.637,100.482 C100.703,100.376 102.307,100.728 102.478,100.738 C102.623,100.488 104.059,100.706 104.396,100.726 C104.766,100.751 107.248,101.078 106.908,101.209 L106.908,101.209 Z M107.743,88.865 C107.809,89.086 107.924,89.279 108.092,89.444 C106.349,88.419 104.821,87.117 103.158,85.985 C103.286,86.572 106.833,88.501 106.616,88.9 C106.567,89.005 102.023,85.642 101.957,85.697 C101.674,85.9 102.722,86.978 102.5,86.927 C102.541,86.961 103.352,87.56 103.258,87.658 C103.073,87.725 108.123,91.509 107.68,92.043 C107.499,92.255 106.123,90.998 105.938,90.908 C106.069,91.121 106.222,91.318 106.403,91.496 C105.328,90.857 104.46,89.975 103.444,89.265 C103.578,89.518 103.766,89.731 104.005,89.904 C103.156,89.91 101.358,87.771 100.626,87.34 C100.39,87.212 99.264,86.118 99.097,86.185 C99.079,86.254 99.098,86.313 99.15,86.363 C98.725,86.164 98.356,85.898 98.042,85.566 C98.063,85.746 96.866,84.036 96.388,84.25 C96.68,84.531 96.972,84.818 97.259,85.103 C96.295,85.313 95.52,82.897 94.218,83.443 C94.323,83.398 99.589,88.39 99.731,88.736 C99.714,88.695 99.418,88.63 99.407,88.593 C99.729,89.662 101.213,90.66 101.946,91.438 C100.24,90.261 98.591,88.653 96.902,87.736 C96.239,87.374 96.028,86.682 95.391,87.041 C95.255,87.116 93.824,86.13 93.658,85.964 C93.627,86.226 93.671,86.476 93.787,86.714 C92.451,85.66 91.184,84.105 89.619,83.352 C89.979,83.866 90.322,84.29 90.418,84.511 C90.53,84.761 90.705,84.931 90.76,85.214 C88.509,83.412 86.274,81.55 84.131,79.62 C83.666,79.202 81.289,77.017 80.914,77.684 C80.153,76.992 75.051,72.627 74.002,72.417 C74.848,73.114 75.589,73.912 76.414,74.629 C76.216,74.781 74.05,72.896 73.744,72.639 C73.211,72.197 71.514,70.707 70.756,70.015 C70.143,69.459 69.556,68.906 68.963,68.361 C67.861,69.226 65.995,70.797 65.733,71.007 C65.414,71.267 65.047,71.423 64.732,71.756 C63.885,72.652 62.902,73.429 61.908,74.175 C60.652,75.117 59.535,76.232 58.262,77.197 C58.277,77.029 58.477,76.994 58.387,76.765 C58.056,77.029 57.729,77.267 57.424,77.535 C55.719,79.007 54.014,80.484 52.321,81.966 C51.05,83.082 49.821,84.244 48.523,85.33 C47.097,86.517 45.735,87.776 44.319,88.972 C42.883,90.191 46.317,87.962 44.992,89.303 C44.77,89.525 44.506,89.714 44.233,89.866 C43.889,90.06 43.647,90.357 43.344,90.589 C42.995,90.855 42.578,91.043 42.168,91.281 C42.209,90.819 42.206,90.834 41.75,90.698 C41.395,90.591 41.121,90.302 40.92,90.043 C40.626,89.662 39.804,88.065 39.532,86.9 C39.513,86.822 39.506,86.73 39.526,86.658 C39.75,85.775 39.509,84.937 39.217,84.105 C38.861,83.103 38.9,82.06 38.815,81.031 C38.766,80.392 39.28,79.99 39.665,79.582 C40.471,78.722 41.266,77.827 42.186,77.092 C42.785,76.611 43.361,76.062 44.094,75.726 C44.647,75.476 44.976,74.922 45.405,74.505 C45.906,74.011 46.477,73.582 46.949,73.08 C47.637,72.349 48.666,71.976 49.352,71.239 C49.95,70.593 55.987,65.582 56.813,64.883 C58.182,63.73 59.466,62.582 60.83,61.456 C60.638,61.291 60.447,61.126 60.248,60.955 C58.651,59.572 56.864,57.962 55.2,56.588 C53.553,55.222 51.935,53.747 50.289,52.319 C47.699,50.068 45.23,48.578 42.57,46.38 C41.195,45.244 38.201,43.201 37.897,41.383 C37.686,40.119 39.443,38.824 40.027,37.959 C40.002,37.994 42.66,33.843 43.495,34.185 C43.743,34.289 44.072,33.931 44.663,34.152 C45.636,34.515 46.297,35.373 47.022,36.055 C49.36,38.261 51.803,40.354 54.224,42.455 C59.25,46.818 64.047,50.649 68.951,54.906 C69.239,54.689 69.527,54.474 69.812,54.254 C70.819,53.488 71.877,52.783 72.896,52.024 C74.189,51.075 75.505,50.159 76.821,49.232 C77.444,48.789 78.099,48.381 78.707,47.92 C79.87,47.023 81.103,46.224 82.317,45.404 C83.949,44.304 85.596,43.222 87.244,42.135 C88.203,41.498 89.186,40.876 90.202,40.308 C90.64,40.061 91,39.665 91.508,39.505 C91.713,39.438 91.89,39.308 92.137,39.154 C93.532,38.263 94.961,37.43 96.411,36.629 C98.171,35.65 99.916,34.638 101.733,33.757 C102.214,33.524 102.719,33.167 103.389,33.152 C103.026,33.607 102.588,33.873 102.183,34.23 C102.576,34.432 103.295,33.816 103.374,33.966 C103.486,34.172 103.189,34.53 103.281,34.484 C103.542,34.355 103.776,34.139 104.13,34.115 C103.897,34.505 103.543,34.69 103.235,34.953 C103.712,34.864 104.073,34.45 104.676,34.404 C104.076,34.918 103.419,35.116 102.857,35.478 C102.436,35.757 101.967,35.97 101.517,36.211 C101.5,36.216 101.473,36.22 101.473,36.229 C101.388,36.714 100.898,36.814 100.618,37.137 C101.081,37.117 101.462,36.914 101.832,36.674 C101.981,36.787 101.76,36.865 101.818,37.004 C103.338,36.439 104.613,35.338 106.202,34.894 C105.623,35.265 105.044,35.65 104.458,36.007 C103.997,36.287 103.578,36.63 103.094,36.888 C102.692,37.101 102.246,37.239 101.872,37.514 C101.745,37.611 101.47,37.703 101.592,37.907 C101.723,38.139 101.965,38.08 102.198,37.945 C102.892,37.547 103.594,37.173 104.296,36.797 C104.346,36.771 104.42,36.794 104.485,36.793 C104.294,37.404 103.686,37.621 103.323,38.138 C103.748,38.076 103.995,37.771 104.351,37.662 C104.969,37.484 105.551,37.22 106.232,37.207 C106.676,37.199 107.114,36.886 107.6,36.781 C107.227,37.042 106.839,37.291 106.476,37.573 C106.36,37.664 106.069,37.656 106.189,37.963 C106.325,38.314 106.545,38.114 106.732,38.042 C106.944,37.96 107.152,37.845 107.36,37.744 C107.427,37.71 107.485,37.703 107.516,37.788 C107.54,37.857 107.539,37.923 107.45,37.943 C107.013,38.025 106.691,38.332 106.346,38.58 C106.001,38.83 105.676,39.115 105.338,39.393 C105.4,39.621 105.658,39.2 105.701,39.483 C105.738,39.711 105.508,39.72 105.408,39.766 C103.731,40.509 102.368,41.757 100.84,42.73 C100.186,43.143 98.389,44.234 98.163,44.371 C97.497,44.768 96.843,45.194 96.194,45.623 C96.111,45.675 95.905,45.685 96.018,45.9 C96.119,46.098 96.225,46.031 96.378,45.959 C97.336,45.498 98.281,44.984 99.091,44.301 C99.601,43.874 100.216,43.72 100.742,43.355 C101.396,42.898 103.775,41.423 104.755,40.841 C105.28,40.527 105.257,40.49 105.764,40.701 C105.63,40.908 105.364,40.937 105.212,41.109 C104.734,41.617 104.202,42.058 103.668,42.488 C103.161,42.9 102.627,43.276 102.086,43.637 C101.86,43.787 101.659,43.937 101.533,44.196 C103.19,43.406 104.648,42.252 106.281,41.414 C105.758,41.999 105.026,42.275 104.402,42.714 C103.43,43.405 102.298,43.849 101.444,44.714 C101.225,44.937 100.886,44.869 100.636,45.084 C99.676,45.89 98.48,46.337 97.51,47.119 C97.153,47.412 96.75,47.644 96.408,47.953 C96.271,48.073 96.143,48.207 95.956,48.247 C95.027,48.453 94.503,49.296 93.707,49.715 C93.204,49.984 92.771,50.402 92.269,50.634 C91.668,50.925 91.136,51.322 90.612,51.685 C89.754,52.282 88.936,52.945 88.077,53.55 C87.617,53.871 87.041,54.027 86.687,54.507 L86.691,54.498 C85.972,54.791 85.429,55.351 84.793,55.771 C83.739,56.473 82.722,57.22 81.738,58.019 C81.536,58.187 81.356,58.377 81.148,58.543 L81.164,58.521 C80.464,58.562 80.255,59.267 79.637,59.523 C79.91,59.672 78.903,60.117 78.831,60.166 C78.336,60.509 77.76,60.433 77.366,60.877 C77.195,61.068 76.838,61.278 76.52,61.466 C82.446,66.507 88.438,71.429 94.12,76.579 C97.15,79.322 100.375,81.894 103.608,84.443 C105.573,85.993 110.816,90.873 111.432,91.321 C111.196,91.531 108.141,89.189 107.743,88.865 L107.743,88.865 Z" id="logo_font" fill="#000203" type="MSShapeGroup"></path>
  </g>
</svg>