<svg id="Ebene_1" data-name="Ebene 1" xmlns="http://www.w3.org/2000/svg" viewBox="0 0 1376.44 323.75"><defs><style>.cls-1{fill:#3790a6;}.cls-2{fill:#68aebf;}.cls-3{fill:#00728d;}.cls-4{fill:#96cad6;}</style></defs><path d="M546.12,167.74c0-25.13,17.62-42.21,42.42-42.21,12.73,0,26.13,5.22,34.37,15.27l-12.73,11.06a26.38,26.38,0,0,0-20.64-9.38c-14.61,0-24.33,10.25-24.33,25.13,0,15.08,9.92,25.13,24.33,25.13A28.54,28.54,0,0,0,610.32,184l12.93,11.39c-7,8-19.64,14.41-35.38,14.41C563.74,209.76,546.12,192.67,546.12,167.74Z" transform="translate(-0.65 -1.59)"/><path d="M628.54,167.74c0-24.12,17.09-42.21,42.89-42.21,25.13,0,42.89,17.08,42.89,42.21,0,24.8-17.76,42.09-42.89,42.09C645.63,209.76,628.54,191.67,628.54,167.74Zm66.68,0c0-15.07-10.38-25.33-23.79-25.33-14.27,0-23.79,11.06-23.79,25.33,0,13.94,9.72,25,23.79,25C684.7,192.67,695.22,182.49,695.22,167.74Z" transform="translate(-0.65 -1.59)"/><path d="M806.67,85.12V208.49h-18V197.57h-.34c-6,7.9-14.94,12.26-26.47,12.26-22.65,0-39.74-16.62-39.74-41.88,0-24.67,17.09-42.42,39.54-42.42,10.72,0,19.77,3.88,26,11.05H788V85.12Zm-18,83c0-14.61-9.72-25.67-23.79-25.67-13.07,0-23.66,9.92-23.66,25.67,0,14.41,9.72,24.66,23.46,24.66C778.19,192.67,788.71,182.82,788.71,168.08Z" transform="translate(-0.65 -1.59)"/><path d="M898.68,174H839c2.48,11.6,11.26,18.63,23.32,18.63a25.29,25.29,0,0,0,20.44-9.58l13.07,11.26c-6.91,8.91-18.43,15.41-34.52,15.41-23.79,0-41.75-16.75-41.75-42.22,0-25.13,17.09-42.08,39.88-42.08,24.12,0,39.74,17.29,39.74,41.08C899.15,169.55,898.81,172.57,898.68,174ZM839.3,159h40.88c-2.34-9.86-9-16.56-19.77-16.56C850,142.41,842,148.24,839.3,159Z" transform="translate(-0.65 -1.59)"/><path d="M907,167.74c0-25.13,17.62-42.21,42.42-42.21,12.73,0,26.14,5.22,34.38,15.27l-12.73,11.06a26.4,26.4,0,0,0-20.64-9.38c-14.61,0-24.33,10.25-24.33,25.13,0,15.08,9.92,25.13,24.33,25.13A28.54,28.54,0,0,0,971.19,184l12.93,11.39c-7,8-19.63,14.41-35.38,14.41C924.61,209.76,907,192.67,907,167.74Z" transform="translate(-0.65 -1.59)"/><path d="M1073.05,126.66v81.76h-18V197.5h-.33c-5.83,7.91-14.75,12.26-26,12.26-22.66,0-39.54-16.62-39.54-41.88,0-24.66,16.95-42.42,39.4-42.42,10.39,0,19.3,3.89,25.33,11.06h.34V126.6l18.76.06Zm-17.89,41.42c0-14.61-9.92-25.67-23.32-25.67-13.07,0-23.46,9.92-23.46,25.67,0,14.41,9.59,24.66,23.46,24.66C1044.57,192.67,1055.16,182.82,1055.16,168.08Z" transform="translate(-0.65 -1.59)"/><path d="M1217.2,161.18v47.24h-18.76V165.87c0-14.74-4.89-23.46-16-23.46-10.59,0-19.1,9.25-19.1,25.33v40.75h-18.77V165.87c0-14.74-5.22-23.46-16.28-23.46-11.26,0-19.64,9.25-19.64,25.33v40.75h-18.76V126.73h18.76v11.39h.21c6.7-8.17,16.08-12.59,25.46-12.59,11.06,0,19.64,4.35,24.46,13.6h.34c6.9-8.91,17.29-13.6,29.35-13.6C1206.41,125.46,1217.2,136.72,1217.2,161.18Z" transform="translate(-0.65 -1.59)"/><path d="M1318,167.88c0,25.33-17,41.88-39.74,41.88-11.06,0-19.77-4-25.8-11.39h-.2V241.6h-18.76V126.66h18.76v10.06c6.23-7.37,15.28-11.26,26.14-11.26C1301.1,125.46,1318,143.22,1318,167.88Zm-19.1.2c0-15.75-10.59-25.67-23.65-25.67-14.08,0-23.79,11.06-23.79,25.67s10.58,24.66,24,24.66C1289.18,192.67,1298.89,182.49,1298.89,168.08Z" transform="translate(-0.65 -1.59)"/><path d="M1377.1,85.32v51.13h-12.4l-19.43-30.69h-.07v30.69h-12V85.32h12L1365,116.81V85.32Z" transform="translate(-0.65 -1.59)"/><polygon class="cls-1" points="280.99 168.27 191.26 168.27 146.36 246.01 191.26 323.75 280.99 323.75 325.89 246.01 280.99 168.27"/><polygon class="cls-2" points="280.99 0 191.26 0 146.36 77.74 191.26 155.47 280.99 155.47 325.89 77.74 280.99 0"/><polygon class="cls-3" points="134.63 84.1 44.9 84.1 0 161.84 44.9 239.65 134.63 239.65 179.53 161.84 134.63 84.1"/><polygon class="cls-4" points="427.29 84.1 337.49 84.1 292.59 161.84 337.49 239.65 427.29 239.65 472.19 161.84 427.29 84.1"/></svg>