<?xml version="1.0" encoding="utf-8"?>
<!-- Generator: Adobe Illustrator 19.1.0, SVG Export Plug-In . SVG Version: 6.00 Build 0)  -->
<!DOCTYPE svg PUBLIC "-//W3C//DTD SVG 1.0//EN" "http://www.w3.org/TR/2001/REC-SVG-20010904/DTD/svg10.dtd">
<svg version="1.0" id="Ebene_1" xmlns="http://www.w3.org/2000/svg" xmlns:xlink="http://www.w3.org/1999/xlink" x="0px" y="0px"
	 viewBox="0 0 187.3 77.8" style="enable-background:new 0 0 187.3 77.8;" xml:space="preserve">
<style type="text/css">
	.st0{fill:#1D1D1B;}
</style>
<path class="st0" d="M109.6,48.9l-1.9-2.1c2-1.1,3-3,3-5.1c0-4.2-3-6.1-7.3-6.1h-7.3v18.8h4.5v-6.5h1.4c0.3,0,0.7,0,1,0l2.1,2.5
	c2,2.3,4,4.2,7.6,4.4l1-3.5C111.8,50.8,110.7,50,109.6,48.9z M102.1,44.6h-1.5v-5.5h2.1c2.4,0,3.1,0.8,3.1,2.6
	C105.9,43.5,104.8,44.6,102.1,44.6z"/>
<path class="st0" d="M30.9,35.1c-5.6,0-9.3,3.7-9.3,10c0,1.7,0.3,3.2,0.8,4.5c-2.2,0.9-3.7,1.4-7.7,1.4c-4.8,0-6.4-2-6.4-6.1
	c0-4.3,2.3-6,5.2-6c2,0,3,0.3,4.3,0.8l1.2-3.4c-1.3-0.7-3-1.2-5.7-1.2c-6,0-9.7,3.8-9.7,9.8c0,6.9,4,9.9,11.4,9.9
	c4.6,0,7.5-0.5,10.2-1.4c1.4,0.9,3.2,1.4,5.4,1.4c5.4,0,9.4-3.3,9.4-9.8C40.1,38.8,37.2,35.1,30.9,35.1z M30.9,51.1
	c-3.6,0-4.7-2.6-4.7-6.1c0-3.2,1-6.3,4.6-6.3c3.7,0,4.6,3,4.6,6.2C35.4,48.4,34.5,51.1,30.9,51.1z"/>
<polygon class="st0" points="64.4,50.7 60.9,35.6 55.4,35.6 51.3,50.7 48,35.6 43.2,35.6 48.4,54.4 54.2,54.4 57.3,42.8 58,39.9 
	58.6,42.8 61.4,54.4 67.2,54.4 73.1,35.6 68.4,35.6 "/>
<path class="st0" d="M83.7,35.1c-5.6,0-9.3,3.7-9.3,10c0,6,3.3,9.6,9.1,9.6c5.4,0,9.4-3.3,9.4-9.8C92.8,38.8,89.9,35.1,83.7,35.1z
	 M83.6,51.1c-3.6,0-4.7-2.6-4.7-6.1c0-3.2,1-6.3,4.6-6.3c3.7,0,4.6,3,4.6,6.2C88.2,48.4,87.3,51.1,83.6,51.1z"/>
<path class="st0" d="M128.8,48l-3.1-3.7l6.4-7.7l-3.6-1.8l-7.1,9v-8.1h-4.6v18.7h4.6v-8.9l4.4,5.7c2.4,3.1,4.7,3.5,7.1,3.6l0.6-3.5
	C131.6,50.8,130.3,49.7,128.8,48z"/>
<rect x="137" y="35.6" class="st0" width="4.6" height="18.8"/>
<path class="st0" d="M157.6,35.1c-2.6,0-4.9,1.5-6.3,2.5v-2h-4.6v18.8h4.6V40.6c1.1-0.6,2.9-1.5,4.8-1.5c2.5,0,3.1,1,3.1,3.9v11.4
	h4.5V42.5C163.7,38.6,163.3,35.1,157.6,35.1z"/>
<path class="st0" d="M175.6,51.1c-3.5,0-3.9-0.3-3.9-1.4c0-0.5,0.4-1.7,0.4-1.7c0.4,0.1,1.3,0.1,1.6,0.1c5,0,7.7-1.4,7.7-6.5
	c0-1.4-0.4-2.1-0.8-2.7h2.7v-3.5l-5.7,0.1c0,0-2.1-0.5-3.8-0.5c-4.3,0-7.6,1.8-7.6,6.5c0,3.3,1.3,4.7,2.7,5.6c0,0-1.4,2.1-1.4,3
	c0,1.2,0.5,2.2,1.2,2.7c-1.9,1.5-2.8,2.7-2.8,4.6c0,4.5,3.1,5.6,8.7,5.6c5,0,8.7-1.8,8.7-6.5C183.5,52.4,181.7,51.1,175.6,51.1z
	 M173.8,38.8c2.4,0,3.4,0.7,3.4,2.9c0,2.2-1,2.9-3.4,2.9c-2.4,0-3.2-0.9-3.2-2.9C170.6,39.6,171.6,38.8,173.8,38.8z M174.8,59.3
	c-3.3,0-4.5-0.6-4.5-2.2c0-1.1,0.4-1.7,1.4-2.5c0,0,2.5,0.2,3.6,0.2c2.9,0,3.8,0.2,3.8,2.1C179.2,58.6,177.7,59.3,174.8,59.3z"/>
<path class="st0" d="M147.1,22.9l-0.9-2.4c-1.2,0.4-2.1,0.7-2.6,0.8c-0.8-0.6-1.7-0.9-2.8-1.1c0.1-0.5,0.2-1.3,0.4-2.2l-2.5-0.6
	c-0.3,1.2-0.5,2.2-0.5,2.8c-3.8,0.4-5.8,2.7-5.8,6.8c0,4.5,2.3,6.8,6.8,6.8c4.4,0,6.8-2.4,6.8-6.8c0-1.3-0.2-2.4-0.7-3.4
	C145.9,23.4,146.4,23.2,147.1,22.9z M141.8,30.6c0.1-0.3,0.1-0.5,0.1-0.9c0-1.7-0.8-2.6-2.6-2.6c-1.7,0-2.6,0.9-2.6,2.6
	c0,0.4,0,0.7,0.1,1c-1.3-0.6-1.9-1.8-1.9-3.8c0-3,1.3-4.2,4.2-4.2c3,0,4.2,1.3,4.2,4.2C143.4,28.8,142.9,30,141.8,30.6z"/>
<path class="st0" d="M150.6,21.6c1.1-0.5,2.2-1,3.4-1.6l-1.1-2.3c-1.2,0.6-2.3,1.1-3.3,1.5L150.6,21.6z"/>
<path class="st0" d="M157.4,18.2c0.6-0.4,1.2-0.7,1.8-1.1c0.7,0.6,1.6,0.6,2.7-0.1c1.5-0.9,1.8-2,0.9-3.5c-0.8-1.5-2-1.8-3.5-0.9
	c-1,0.6-1.5,1.4-1.4,2.2c-0.6,0.4-1.2,0.8-1.8,1.1L157.4,18.2z"/>
<path class="st0" d="M143.5,12.2l-2.3-1.2c-0.5,1-1,2.1-1.4,3.1l2.4,0.9C142.6,14.1,143,13.1,143.5,12.2z"/>
<path class="st0" d="M145.1,9.5c0.5-0.7,1-1.4,1.5-2.1c0.7,0.1,1.4-0.1,2.2-0.9c1.2-1.2,1.2-2.4,0-3.6c-1.2-1.2-2.4-1.2-3.6,0
	c-1,1-1.1,1.9-0.6,2.9c-0.6,0.7-1.1,1.5-1.6,2.3L145.1,9.5z"/>
<path class="st0" d="M12.6,72.7v-8.9h-1.5l0,4.1c0,0.7,0,1.2,0,1.7c0,0.5,0,0.9,0,1.2h0c-0.3-0.6-0.7-1.2-1-1.8l-3.3-5.1H4.8v8.9
	h1.5v-4.8c0-0.5,0-0.9,0-1.2c0-0.3,0-0.6-0.1-0.9h0c0.1,0.3,0.3,0.6,0.4,0.9c0.2,0.3,0.3,0.6,0.5,0.9l3.4,5.2H12.6z"/>
<path class="st0" d="M23.2,69.3v-5.5h-1.6v5.4c0,0.7-0.2,1.3-0.5,1.7c-0.3,0.4-0.9,0.6-1.8,0.6c-0.7,0-1.3-0.2-1.7-0.5
	c-0.4-0.4-0.6-0.9-0.6-1.7v-5.6h-1.6v5.8c0,1,0.3,1.8,0.9,2.4c0.6,0.6,1.6,0.8,2.8,0.8c0.7,0,1.3-0.1,1.8-0.3
	c0.5-0.2,0.9-0.5,1.2-0.8c0.3-0.3,0.6-0.7,0.7-1.1C23.1,70.2,23.2,69.7,23.2,69.3"/>
<path class="st0" d="M21.6,60.8c-0.2-0.2-0.4-0.3-0.7-0.3c-0.3,0-0.5,0.1-0.7,0.3C20.1,61,20,61.2,20,61.5c0,0.3,0.1,0.5,0.3,0.7
	c0.2,0.2,0.4,0.3,0.7,0.3c0.3,0,0.5-0.1,0.7-0.3c0.2-0.2,0.3-0.4,0.3-0.7C21.8,61.2,21.7,61,21.6,60.8"/>
<path class="st0" d="M18.3,60.8c-0.2-0.2-0.4-0.3-0.7-0.3c-0.3,0-0.5,0.1-0.7,0.3c-0.2,0.2-0.3,0.4-0.3,0.7c0,0.3,0.1,0.5,0.3,0.7
	c0.2,0.2,0.4,0.3,0.7,0.3c0.3,0,0.5-0.1,0.7-0.3c0.2-0.2,0.3-0.4,0.3-0.7C18.5,61.2,18.5,61,18.3,60.8"/>
<path class="st0" d="M30.1,69.6c-0.1-0.2-0.3-0.4-0.4-0.5c-0.1-0.2-0.2-0.3-0.4-0.4c0.4,0,0.7-0.1,1.1-0.2c0.3-0.1,0.6-0.3,0.9-0.5
	c0.2-0.2,0.4-0.5,0.6-0.8c0.1-0.3,0.2-0.6,0.2-1c0-0.8-0.3-1.4-0.9-1.8c-0.6-0.4-1.4-0.6-2.4-0.6c-0.5,0-1,0-1.5,0
	c-0.5,0-0.9,0-1.2,0v8.9h1.6v-3.8h0.1l2.9,3.8h2L30.1,69.6z M28.1,67.8c-0.2,0-0.3,0-0.5,0V65c0.1,0,0.3,0,0.4,0c0.1,0,0.3,0,0.5,0
	c0.6,0,1,0.1,1.3,0.3c0.3,0.2,0.5,0.6,0.5,1c0,0.5-0.2,0.8-0.5,1.1c-0.3,0.3-0.8,0.4-1.3,0.4C28.4,67.8,28.3,67.8,28.1,67.8z"/>
<path class="st0" d="M42.4,72.7v-8.9h-1.5l0,4.1c0,0.7,0,1.2,0,1.7c0,0.5,0,0.9,0,1.2h0c-0.3-0.6-0.7-1.2-1-1.8l-3.3-5.1h-2.1v8.9
	H36v-4.8c0-0.5,0-0.9,0-1.2c0-0.3,0-0.6,0-0.9h0c0.1,0.3,0.3,0.6,0.4,0.9c0.2,0.3,0.4,0.6,0.5,0.9l3.4,5.2H42.4z"/>
<path class="st0" d="M51.2,68.7c-0.3-0.4-0.7-0.6-1.3-0.7v0c0.5-0.2,0.9-0.5,1.1-0.8c0.3-0.4,0.4-0.8,0.4-1.2c0-0.6-0.2-1.2-0.7-1.6
	c-0.5-0.4-1.3-0.6-2.4-0.6c-0.6,0-1.2,0-1.7,0c-0.5,0-1,0-1.4,0v8.9c0.5,0,1,0,1.5,0c0.5,0,0.8,0,1.1,0c0.7,0,1.4-0.1,1.8-0.3
	c0.5-0.2,0.8-0.4,1.1-0.7c0.3-0.3,0.5-0.6,0.6-0.9c0.1-0.3,0.2-0.6,0.2-0.9C51.6,69.5,51.5,69.1,51.2,68.7z M46.9,64.9
	c0.2,0,0.4,0,0.6,0h0.6c0.7,0,1.2,0.1,1.4,0.4c0.2,0.2,0.4,0.5,0.4,0.9c0,0.5-0.2,0.9-0.6,1.1c-0.4,0.2-0.9,0.4-1.6,0.4h-0.3
	c-0.1,0-0.3,0-0.5,0V64.9z M49.5,71.1c-0.3,0.3-0.8,0.4-1.5,0.4c-0.2,0-0.5,0-0.6,0c-0.2,0-0.3,0-0.5-0.1v-2.9c0.1,0,0.3,0,0.4,0
	h0.4c0.3,0,0.6,0,0.9,0.1c0.3,0,0.5,0.1,0.7,0.2c0.2,0.1,0.4,0.3,0.5,0.4C50,69.5,50,69.7,50,70C50,70.5,49.9,70.8,49.5,71.1z"/>
<polygon class="st0" points="59.1,72.7 59.1,71.4 55.7,71.4 55.7,68.7 59,68.7 59,67.5 55.7,67.5 55.7,65 59.1,65 59.1,63.8 
	54.1,63.8 54.1,72.7 "/>
<path class="st0" d="M65.6,69.6c-0.1-0.2-0.3-0.4-0.4-0.5c-0.1-0.2-0.2-0.3-0.4-0.4c0.4,0,0.7-0.1,1.1-0.2c0.3-0.1,0.6-0.3,0.8-0.5
	c0.2-0.2,0.4-0.5,0.6-0.8c0.1-0.3,0.2-0.6,0.2-1c0-0.8-0.3-1.4-0.9-1.8c-0.6-0.4-1.4-0.6-2.4-0.6c-0.5,0-1,0-1.5,0
	c-0.5,0-0.9,0-1.1,0v8.9h1.6v-3.8h0.1l2.9,3.8h1.9L65.6,69.6z M63.6,67.8c-0.2,0-0.3,0-0.5,0V65c0.1,0,0.3,0,0.4,0
	c0.1,0,0.3,0,0.5,0c0.6,0,1,0.1,1.3,0.3c0.3,0.2,0.5,0.6,0.5,1c0,0.5-0.2,0.8-0.5,1.1c-0.3,0.3-0.8,0.4-1.3,0.4
	C64,67.8,63.8,67.8,63.6,67.8z"/>
<path class="st0" d="M76.9,72.2v-4.1h-1.6v3.2c-0.2,0.1-0.4,0.1-0.7,0.2c-0.3,0-0.5,0.1-0.8,0.1c-0.9,0-1.7-0.3-2.3-0.8
	c-0.6-0.5-0.9-1.3-0.9-2.4c0-0.5,0.1-1,0.3-1.4c0.2-0.4,0.4-0.8,0.7-1c0.3-0.3,0.6-0.5,1-0.6c0.4-0.1,0.8-0.2,1.3-0.2
	c0.4,0,0.8,0,1.2,0.1c0.4,0.1,0.8,0.2,1.2,0.4l0.3-1.4c-0.5-0.1-0.9-0.2-1.4-0.3c-0.4-0.1-0.9-0.1-1.4-0.1c-0.8,0-1.5,0.1-2.1,0.4
	c-0.6,0.2-1.1,0.6-1.5,1c-0.4,0.4-0.7,0.9-1,1.5c-0.2,0.6-0.3,1.2-0.3,1.9c0,0.7,0.1,1.4,0.3,1.9c0.2,0.5,0.5,1,0.9,1.4
	c0.4,0.4,0.9,0.7,1.4,0.8c0.6,0.2,1.2,0.3,1.8,0.3c0.6,0,1.2-0.1,1.7-0.1C75.8,72.6,76.4,72.4,76.9,72.2"/>
</svg>
