<?xml version="1.0" encoding="UTF-8" standalone="no"?>
<!-- Created with Inkscape (http://www.inkscape.org/) by Marsupilami -->
<svg
   xmlns:svg="http://www.w3.org/2000/svg"
   xmlns="http://www.w3.org/2000/svg"
   version="1.0"
   width="1024"
   height="258"
   viewBox="0 0 162.16624 40.813751"
   id="svg2708">
  <defs
     id="defs2710" />
  <g
     transform="translate(-426.8675,-412.8525)"
     id="layer1">
    <path
       d="M 57.78125,4.40625 L 50.34375,7.5 L 50.3125,11.46875 L 46.34375,11.46875 L 46.34375,16.5 L 50.3125,16.5 L 50.3125,32.09375 C 50.3125,34.89375 50.9,36.997501 52.09375,38.40625 C 53.28875,39.81625 55.068749,40.625001 57.4375,40.625 C 59.305,40.625 60.973752,40.39375 62.4375,40.15625 L 62.4375,35.25 C 61.72125,35.38125 60.946249,35.441249 60.09375,35.46875 C 59.12625,35.46875 58.509999,35.268751 58.21875,34.84375 C 57.92875,34.4175 57.781248,33.5 57.78125,32.125 L 57.78125,16.5 L 62.4375,16.5 L 62.4375,11.46875 L 57.78125,11.46875 L 57.78125,4.40625 z M 7.28125,4.65625 L 0,7.5 L 0,40.625 L 3.5625,40.625 L 7.28125,40.625 L 7.28125,23.1875 C 7.20375,20.90625 7.4124999,19.24125 7.9375,18.1875 C 8.46125,17.13375 9.3262499,16.625 10.53125,16.625 C 11.465,16.625 12.14375,16.88375 12.5625,17.40625 C 12.98,17.9275 13.1875,18.777499 13.1875,19.9375 L 13.1875,40.625 L 20.65625,40.625 L 20.65625,19.125 C 20.65625,16.86625 20.062501,15.04625 18.875,13.65625 C 17.6875,12.26625 16.1175,11.59375 14.1875,11.59375 C 11.23375,11.59375 8.9412498,12.61125 7.28125,14.65625 L 7.28125,4.65625 z M 96.96875,4.78125 L 89.46875,7.6875 L 89.46875,40.8125 L 93.25,40.8125 L 96.96875,40.8125 L 96.96875,4.78125 z M 34.0625,11.625 C 30.37,11.625 27.69625,12.4625 26.0625,14.125 C 24.42875,15.7875 23.625,18.48 23.625,22.21875 L 23.625,30.03125 C 23.625,33.77125 24.42875,36.462502 26.0625,38.125 C 27.69625,39.78625 30.370001,40.625001 34.0625,40.625 C 37.75625,40.625 40.41875,39.786252 42.0625,38.125 C 43.70625,36.4625 44.53125,33.771251 44.53125,30.03125 L 44.53125,22.21875 C 44.53125,18.48 43.70625,15.7875 42.0625,14.125 C 40.41875,12.4625 37.756251,11.625 34.0625,11.625 z M 75.78125,11.625 C 71.91875,11.625 69.207498,12.57125 67.625,14.46875 C 66.04375,16.36625 65.250003,19.62375 65.25,24.25 L 65.25,29.75 C 65.25,33.6025 66.041252,36.362499 67.59375,38.0625 C 69.1475,39.76125 71.662501,40.625001 75.15625,40.625 C 78.94125,40.625 81.761248,39.84875 83.625,38.3125 C 85.4875,36.77625 86.401251,34.47875 86.34375,31.40625 L 86.34375,30.59375 L 78.90625,30.59375 L 78.90625,31.40625 C 78.98375,33.1325 78.783753,34.352502 78.3125,35.09375 C 77.84,35.835 76.980002,36.21875 75.78125,36.21875 C 74.52375,36.21875 73.715001,35.696251 73.3125,34.65625 C 72.90875,33.61625 72.687497,31.482501 72.6875,28.25 L 72.6875,27.40625 L 86.34375,27.40625 L 86.34375,23.34375 C 86.34375,18.8 85.601254,15.7025 84.125,14.0625 C 82.65,12.4225 79.857502,11.625 75.78125,11.625 z M 34.0625,16.03125 C 35.175,16.03125 35.94875,16.443749 36.40625,17.28125 C 36.86625,18.12 37.093749,19.57 37.09375,21.625 L 37.09375,29.4375 C 37.09375,32.19 36.901249,33.98875 36.5,34.875 C 36.10125,35.76125 35.292501,36.21875 34.0625,36.21875 C 32.83375,36.21875 32.015,35.76125 31.625,34.875 C 31.235,33.98875 31.031249,32.190001 31.03125,29.4375 L 31.03125,21.625 C 31.03125,19.57 31.268749,18.119999 31.71875,17.28125 C 32.16625,16.44375 32.951251,16.031249 34.0625,16.03125 z M 75.8125,16.03125 C 77.01125,16.03125 77.817497,16.40625 78.25,17.1875 C 78.68375,17.9675 78.906253,19.4625 78.90625,21.625 L 78.90625,23.15625 L 72.6875,23.15625 L 72.6875,22.78125 C 72.6875,20.1675 72.911246,18.377499 73.34375,17.4375 C 73.77625,16.4975 74.611249,16.031249 75.8125,16.03125 z M 100.75,33.21875 L 100.75,40.625 L 108.1875,40.625 L 108.1875,33.21875 L 100.75,33.21875 z "
       transform="translate(426.8675,412.8525)"
       style="fill:#f67c13;fill-opacity:1;fill-rule:nonzero;stroke:none"
       id="path2852" />
    <path
       d="M 158.4375,0 C 156.3575,0 154.6875,1.67125 154.6875,3.75 C 154.68749,5.8287501 156.3575,7.5 158.4375,7.5 C 160.505,7.5 162.15625,5.82875 162.15625,3.75 C 162.15626,1.6712501 160.505,0 158.4375,0 z M 158.4375,0.6875 C 160.09375,0.68750001 161.46875,2.0725 161.46875,3.75 C 161.46875,5.4262501 160.09375,6.78125 158.4375,6.78125 C 156.75,6.7812498 155.40625,5.42625 155.40625,3.75 C 155.40624,2.0725001 156.75,0.6875 158.4375,0.6875 z M 156.96875,1.53125 L 156.96875,5.90625 L 157.96875,5.90625 L 157.96875,4.09375 L 158.21875,4.09375 C 158.98125,4.0937502 158.90625,4.55 158.90625,5.0625 C 158.90625,5.35375 158.9,5.645 159.03125,5.90625 L 160,5.90625 C 159.90875,5.725 159.875,4.90625 159.875,4.625 C 159.875,3.8412501 159.24125,3.79125 159.03125,3.78125 L 159.03125,3.75 C 159.67375,3.6487501 159.90625,3.24 159.90625,2.6875 C 159.90625,1.9449999 159.48625,1.53125 158.8125,1.53125 L 156.96875,1.53125 z M 157.96875,2.28125 L 158.40625,2.28125 C 158.7175,2.28125 158.9375,2.43125 158.9375,2.84375 C 158.9375,3.12375 158.7975,3.5 158.40625,3.5 L 157.96875,3.5 L 157.96875,2.28125 z M 131.5,4.5625 L 124.125,7.53125 L 124.125,14.09375 C 122.15625,12.29875 120.11375,11.41875 118.03125,11.4375 C 115.64,11.4375 113.85125,12.215 112.65625,13.78125 C 111.46125,15.3475 110.875,17.710001 110.875,20.84375 L 110.875,30.8125 C 110.875,34.3275 111.4125,36.871248 112.53125,38.4375 C 113.64875,40.00375 115.49,40.78125 118.03125,40.78125 C 120.8025,40.78125 122.885,39.715002 124.28125,37.59375 L 124.59375,37.125 L 124.59375,40.1875 L 131.5,40.1875 L 131.5,4.5625 z M 144.09375,11.4375 C 140.2925,11.4375 137.62,12.3925 136.0625,14.3125 C 134.505,16.2325 133.71875,19.538751 133.71875,24.21875 L 133.71875,29.78125 C 133.71875,33.67875 134.50376,36.467501 136.03125,38.1875 C 137.56125,39.90625 140.02874,40.78125 143.46875,40.78125 C 147.19375,40.78125 149.97875,39.991249 151.8125,38.4375 C 153.6475,36.88375 154.52625,34.577501 154.46875,31.46875 L 154.46875,30.625 L 147.15625,30.625 L 147.15625,31.4375 C 147.23125,33.18375 147.025,34.437499 146.5625,35.1875 C 146.0975,35.9375 145.275,36.3125 144.09375,36.3125 C 142.85625,36.3125 142.05375,35.8025 141.65625,34.75 C 141.26,33.69875 141.0625,31.52 141.0625,28.25 L 141.0625,27.40625 L 154.46875,27.40625 L 154.46875,23.3125 C 154.46875,18.715 153.76374,15.5975 152.3125,13.9375 C 150.86,12.27875 148.10625,11.4375 144.09375,11.4375 z M 144.09375,15.90625 C 145.27375,15.90625 146.105,16.30375 146.53125,17.09375 C 146.9575,17.88375 147.15625,19.343751 147.15625,21.53125 L 147.15625,23.125 L 141.0625,23.125 L 141.0625,22.71875 C 141.0625,20.075 141.26126,18.26375 141.6875,17.3125 C 142.11375,16.36125 142.9125,15.90625 144.09375,15.90625 z M 121.21875,16.46875 C 122.40625,16.46875 123.18875,16.9975 123.5625,18 C 123.935,19.00375 124.125,21.055001 124.125,24.1875 L 124.125,28.03125 C 124.125,31.16375 123.91375,33.21625 123.53125,34.21875 C 123.1475,35.22125 122.37375,35.718751 121.1875,35.71875 C 120.1525,35.71875 119.40875,35.308749 118.96875,34.46875 C 118.52875,33.6275 118.3125,32.205001 118.3125,30.21875 L 118.3125,22 C 118.3125,19.86125 118.50375,18.43 118.90625,17.65625 C 119.3075,16.88375 120.08875,16.46875 121.21875,16.46875 z "
       transform="translate(426.8675,412.8525)"
       style="fill:#4191d6;fill-opacity:1;fill-rule:evenodd;stroke:none"
       id="path2864" />
  </g>
</svg>
