<svg id="Layer_1" data-name="Layer 1" xmlns="http://www.w3.org/2000/svg" viewBox="0 0 1800 523.06"><defs><style>.cls-1{fill:#09f;}</style></defs><title>Artboard 1</title><path class="cls-1" d="M136.42,416.86q-17.59,0-30.21-3.76V377a81.82,81.82,0,0,0,21.49,2.86q11.57,0,16.91-6.46t5.34-19.09V201.42h45.84V361.09q0,26.75-15.48,41.26T136.42,416.86Z"/><path class="cls-1" d="M353.44,319.56q0,25.85-18,39.38t-53.74,13.53A168.75,168.75,0,0,1,250.47,370a118.05,118.05,0,0,1-24.2-7.29V324.82a159.65,159.65,0,0,0,28.78,10.07q16,4.06,28.18,4.06,24.95,0,25-14.43a12.05,12.05,0,0,0-3.31-8.79q-3.31-3.38-11.42-7.67t-21.64-10q-19.39-8.12-28.48-15a42.25,42.25,0,0,1-13.23-15.86q-4.14-8.94-4.13-22,0-22.39,17.36-34.65t49.23-12.25a139.78,139.78,0,0,1,59.07,13.23L337.8,244.55q-12.63-5.41-23.6-8.87a74.16,74.16,0,0,0-22.4-3.46q-20.29,0-20.29,11,0,6.17,6.54,10.67t28.63,13.38q19.69,8,28.86,14.88a44.07,44.07,0,0,1,13.53,15.93Q353.43,307.08,353.44,319.56Z"/><path class="cls-1" d="M449.75,372.47q-78.46,0-78.46-86.13,0-42.84,21.34-65.46t61.18-22.62q29.16,0,52.31,11.42l-13.53,35.47q-10.82-4.36-20.14-7.14a65,65,0,0,0-18.64-2.78Q418,235.24,418,286q0,49.3,35.77,49.3a81.54,81.54,0,0,0,24.5-3.53,88.3,88.3,0,0,0,22.55-11V360a73.86,73.86,0,0,1-22.47,9.77Q467,372.47,449.75,372.47Z"/><path class="cls-1" d="M1369.94,369.46H1324.1V138.89h45.84Z"/><path class="cls-1" d="M1486.4,372.47q-40.58,0-63.43-22.4t-22.85-63.43q0-42.23,21.12-65.31t58.39-23.07q35.62,0,55.46,20.29t19.84,56.06v22.25H1446.57q.75,19.54,11.57,30.51t30.36,11a126.05,126.05,0,0,0,28.71-3.16,143.63,143.63,0,0,0,28.26-10.07v35.47a107.67,107.67,0,0,1-25.7,8.94Q1506.09,372.47,1486.4,372.47Zm-6.46-141.59q-14.58,0-22.85,9.24t-9.47,26.23H1512q-.3-17-8.87-26.23T1479.94,230.88Z"/><path class="cls-1" d="M1083,212.91q-14.66-14.65-43.21-14.66c-33.11,0-53.66,24.65-53.66,24.65q-13.38-24.65-51.1-24.65-16.54,0-29.31,6.54a46.58,46.58,0,0,0-19.54,18.11V201.42H842.42v168h45.84V290.4q0-29.61,8-42.54t25.55-12.93q13.08,0,19.16,9.09T947,271.31v98.15h45.84V285.14q0-26.15,8.34-38.18t25.18-12q13.08,0,19.16,9.09t6.09,27.28v98.15h46V259.89Q1097.64,227.57,1083,212.91Z"/><path class="cls-1" d="M1277.08,221.31q-16.84-23.22-46.6-23.22-31.57,0-47.65,25V138.89H1137V369.46h45.84V350.8q16.83,21.5,46.45,21.49,29.91,0,47.27-22.85T1293.91,285Q1293.91,244.53,1277.08,221.31Zm-38.25,101q-8.34,13-22.47,13-17.44,0-25.48-11.72t-8-38.78v-5q.3-24,8.12-34.5t24.8-10.45q14.58,0,23,12.4t8.42,37.2Q1247.17,309.34,1238.83,322.34Z"/><path class="cls-1" d="M1678.31,198.26a52.08,52.08,0,0,0-28.93,8.64,63.19,63.19,0,0,0-21.12,22.77V201.42h-43.74v168h45.84V283.93q0-20.29,12.25-31.56t34.2-11.27a52.63,52.63,0,0,1,13.53,1.5l3.46-43A73.94,73.94,0,0,0,1678.31,198.26Z"/><path class="cls-1" d="M784.88,212.69Q766.84,198,733,198q-35.32,0-64.33,15.18l15.18,31q27.2-12.18,47.35-12.18,26.15,0,26.15,25.55v7.37l-29.16.9q-37.73,1.35-56.44,14.05t-18.71,39.46q0,25.56,13.9,39.38t38.1,13.83q19.69,0,31.94-5.64t23.82-20.22v22.85h42.09v-112Q802.92,227.42,784.88,212.69Zm-27.51,92.74q0,15.18-9.54,24.35t-25.48,9.17q-22.25,0-22.25-19.39,0-13.53,9.77-20.14t29.76-7.21l17.74-.6Z"/><path class="cls-1" d="M625.88,198.26A52.08,52.08,0,0,0,597,206.9a63.19,63.19,0,0,0-21.12,22.77V201.42H532.09v168h45.84V283.93q0-20.29,12.25-31.56t34.19-11.27a52.63,52.63,0,0,1,13.53,1.5l3.46-43A74,74,0,0,0,625.88,198.26Z"/><path class="cls-1" d="M172.87,0a76.44,76.44,0,0,1-63.53,32.68c0,83.49,63.53,115.55,63.53,115.55S236.4,116.18,236.4,32.68A76.45,76.45,0,0,1,172.87,0Z"/><path class="cls-1" d="M273.46,32.68h0a189.85,189.85,0,0,1-5.64,46.69H1753.31v397H46.69v-397H77.92a189.85,189.85,0,0,1-5.64-46.69H0V523.06H1800V32.68Z"/></svg>