<?xml version="1.0" encoding="UTF-8" standalone="no"?>
<!DOCTYPE svg PUBLIC "-//W3C//DTD SVG 1.1//EN"
"http://www.w3.org/Graphics/SVG/1.1/DTD/svg11.dtd">


<!-- Page 1 -->
<svg x="0" y="0" width="952" height="216" viewBox="0 0 952 216" version="1.1" xmlns="http://www.w3.org/2000/svg" xmlns:xlink="http://www.w3.org/1999/xlink"
style="display: block;margin-left: auto;margin-right: auto;">
<defs>

<style type="text/css"><![CDATA[

.g1_1{
fill: #E54C15;
}
.g2_1{
fill: #6B7170;
}


]]></style>

</defs>
<path d="M0,0
L0,216
L952,216
L952,0 Z " 
fill="#FFFFFF" stroke="none" />
<path d="M269.4,43.4c2.7,-2.2,6.5,-0.1,7.9,2.2c1.5,2.3,4,25.3,4.7,30c4,25.7,17.1,42.9,17.1,46.5c0,5.2,-3.8,7.3,-7.6,8.5c0,0,-5.7,1.8,-8.5,0c-4.5,-2.9,-10.1,-15.5,-12.5,-19.4C264.4,101.3,262.1,75.5,257.7,75c-3.6,-0.4,-49.3,65.3,-48.1,69.2c0.8,4,4.9,3.9,6,4.1c12.4,1.6,36.3,-4.1,38.7,-4.7c7.6,-1.6,24.5,0,24.5,0c4.1,0.5,10.8,3.1,10.6,7.9c-0.3,4.4,-7.5,10.1,-10.6,8.5c-4.6,-2.4,-9.1,-0.9,-9.1,-0.9c-2.9,0,-13.1,6.1,-20.9,12.3c-4.2,3.3,-17.9,3.6,-20.9,3.3c-4.8,-0.7,-18.4,-8,-23.7,-11.5c-2.4,-1.5,-17.8,-13.9,-21.1,-19.6c0,0,-5.6,-9.2,-6.6,-12.5c-1,-3.2,0.1,-9.6,1.5,-10.1c36.6,-14.4,89.2,-75.7,91.4,-77.6Z" class="g1_1" />
<path d="M113.2,145.6L138.7,87.7l0.2,0l9.9,56.1l10.9,0L142.4,55.3l-29.2,66.9L84.1,55.3L66.8,143.8l10.9,0L87.6,87.7l0.2,0Z" class="g2_1" />
<path d="M333.8,106.9l0,36.9l10.6,0l0,-36.9l27.7,-48l-12.2,0L339.1,95.2L318.3,58.9l-12.1,0Z" class="g2_1" />
<path d="M436.1,68.6l0,-9.7l-41.1,0l0,84.9l10.6,0l0,-41.7l29.5,0l0,-9.6l-29.5,0l0,-23.9Z" class="g2_1" />
<path d="M472.5,58.9l-10.6,0l0,84.9l36.4,0l0,-9.7l-25.8,0Z" class="g2_1" />
<path fill-rule="evenodd" d="M559.4,135.7c-18.3,0,-33.8,-15,-33.8,-34.4C525.6,82.7,539.5,67,559.4,67c19.9,0,33.9,15.7,33.9,34.3c0,19.4,-15.5,34.4,-33.9,34.4m0,-78.6C535.1,57.1,515,77,515,101.3c0,25.2,19.9,44.3,44.4,44.3c24.6,0,44.5,-19.1,44.5,-44.3C603.9,77,583.7,57.1,559.4,57.1Z" class="g2_1" />
<path d="M627.4,58.9l-11.5,0l35.2,88.2l24,-62.2L699,147.1L734.2,58.9l-11.4,0L699,119.7L675.1,57.1l-24,62.6Z" class="g2_1" />
<path d="M756.6,143.8l45.6,0l0,-9.7l-35,0l0,-32.1l34,0l0,-9.7l-34,0l0,-23.7l35,0l0,-9.7l-45.6,0Z" class="g2_1" />
<path fill-rule="evenodd" d="M843.8,68.4l2.8,0c10.5,0,23.1,1.9,23.1,15.2c0,13.5,-11.7,15.5,-22.5,15.5l-3.4,0Zm15.4,38.5c12.3,-1.5,20.4,-11.6,20.4,-23.8C879.6,75,875.5,67,868.4,62.9c-6.7,-3.9,-14.8,-4,-22.4,-4l-12.8,0l0,84.9l10.6,0l0,-35.9l4.4,0l25,35.9l12.8,0Z" class="g2_1" />

</svg>
