<?xml version="1.0" encoding="utf-8"?>
<!-- Generator: Adobe Illustrator 15.1.0, SVG Export Plug-In . SVG Version: 6.00 Build 0)  -->
<!DOCTYPE svg PUBLIC "-//W3C//DTD SVG 1.1 Basic//EN" "http://www.w3.org/Graphics/SVG/1.1/DTD/svg11-basic.dtd">
<svg version="1.1" baseProfile="basic" id="Ebene_1"
	 xmlns="http://www.w3.org/2000/svg" xmlns:xlink="http://www.w3.org/1999/xlink" x="0px" y="0px" width="118.064px"
	 height="54.94px" viewBox="0 0 118.064 54.94" xml:space="preserve">
<path fill="#757177" d="M1.585,47.583h1.229v0.605H1.585v3.289c0,0.021,0,0.272,0.028,0.43c0.054,0.258,0.189,0.521,0.73,0.521
	c0.22,0,0.399-0.044,0.471-0.052v0.615c-0.176,0.03-0.314,0.071-0.669,0.071c-0.324,0-0.622-0.051-0.895-0.28
	c-0.053-0.044-0.187-0.17-0.271-0.354c-0.06-0.179-0.06-0.408-0.072-0.587v-3.653H0v-0.605h0.907v-1.605h0.678V47.583"/>
<path fill="#757177" d="M4.367,45.634v2.77c0.049-0.079,0.103-0.163,0.26-0.321c0.249-0.261,0.76-0.623,1.676-0.623
	c0.147,0,0.543,0.009,0.939,0.153c0.751,0.281,1.002,0.856,1.094,1.147c0.081,0.238,0.116,0.451,0.124,0.938v3.294H7.773v-3.243
	c-0.011-0.282-0.019-0.538-0.113-0.813c-0.221-0.612-0.814-0.896-1.429-0.896c-0.487,0-0.802,0.147-0.968,0.231
	c-0.931,0.478-0.896,1.455-0.896,1.76v2.96H3.688v-7.358H4.367"/>
<path fill="#757177" d="M14.599,49.856c-0.052-0.347-0.105-0.514-0.166-0.66c-0.186-0.446-0.668-1.155-1.866-1.155
	c-0.143,0-0.459,0.011-0.811,0.126c-0.43,0.145-1.201,0.561-1.389,1.689H14.599 M10.348,50.456c0.007,0.105,0.031,0.45,0.155,0.763
	c0.179,0.468,0.728,1.324,2.045,1.324c0.654,0,1.25-0.221,1.667-0.752c0.206-0.281,0.32-0.582,0.362-0.677l0.686,0.104
	c-0.049,0.136-0.144,0.438-0.352,0.761c-0.739,1.104-1.938,1.166-2.363,1.166c-0.251,0-1.147-0.02-1.859-0.562
	c-0.385-0.292-1.05-1.001-1.05-2.241c0-0.322,0.042-1.322,0.759-2.053c0.344-0.352,1.021-0.846,2.21-0.846
	c0.168,0,0.49,0,0.907,0.127c0.427,0.126,1.335,0.555,1.677,1.721c0.125,0.424,0.135,0.729,0.135,1.164H10.348z"/>
<path fill="#757177" d="M28.447,52.992h-0.679v-3.347c-0.008-0.076,0-0.428-0.079-0.72c-0.243-0.854-1.096-0.905-1.347-0.905
	c-0.541,0.009-1.124,0.229-1.461,0.655c-0.322,0.419-0.322,0.97-0.329,1.459v2.857h-0.679V49.54
	c-0.02-0.468-0.064-0.864-0.436-1.195c-0.274-0.238-0.614-0.336-0.983-0.336c-0.686,0-1.374,0.324-1.645,0.961
	c-0.146,0.322-0.166,0.6-0.166,0.948v3.074h-0.676v-5.409h0.676v0.762c0.029-0.055,0.123-0.169,0.239-0.283
	c0.252-0.25,0.79-0.625,1.697-0.625c0.244,0,1.053,0.022,1.553,0.635c0.135,0.168,0.177,0.262,0.26,0.449
	c0.408-0.762,1.263-1.076,2.098-1.076c1.229,0,1.699,0.711,1.843,1.201c0.103,0.311,0.114,0.623,0.114,0.957V52.992"/>
<path fill="#757177" d="M31.49,48.22c-0.461,0.219-1.2,0.771-1.2,2.072c0,0.218,0.023,0.906,0.44,1.458
	c0.228,0.302,0.739,0.801,1.688,0.801c0.521,0,0.887-0.146,1.062-0.237c0.45-0.23,1.116-0.814,1.106-2.043
	c0-0.271-0.011-0.979-0.532-1.572c-0.22-0.243-0.718-0.678-1.604-0.678C32.293,48.021,31.898,48.041,31.49,48.22 M34.272,47.987
	c0.395,0.316,1.02,1.011,1.02,2.283c0,0.574-0.124,0.971-0.208,1.176c-0.237,0.646-0.955,1.691-2.697,1.691
	c-0.582,0-1.115-0.117-1.604-0.451c-1.105-0.729-1.199-1.987-1.199-2.416c0-0.209,0.022-0.701,0.239-1.221
	c0.251-0.582,0.919-1.583,2.564-1.625C32.679,47.425,33.563,47.435,34.272,47.987z"/>
<path fill="#757177" d="M38.13,48.188c-0.918,0.342-1.305,1.209-1.305,2.111c0,0.451,0.094,0.762,0.157,0.919
	c0.157,0.458,0.636,1.324,1.927,1.324c0.5,0,0.908-0.125,1.291-0.431c0.375-0.288,0.792-0.789,0.792-1.842
	c-0.009-0.834-0.249-1.293-0.49-1.572c-0.227-0.26-0.738-0.689-1.645-0.646C38.744,48.052,38.441,48.071,38.13,48.188
	 M41.671,45.634v7.358h-0.679v-0.909c-0.052,0.063-0.185,0.252-0.362,0.409c-0.282,0.248-0.877,0.646-1.813,0.646
	c-0.302,0-1.104-0.031-1.763-0.606c-0.386-0.332-0.937-1.003-0.937-2.218c0-1.668,1.095-2.869,2.824-2.869
	c0.917,0,1.49,0.377,1.759,0.638c0.116,0.125,0.201,0.242,0.292,0.374v-2.822H41.671z"/>
<path fill="#757177" d="M47.806,49.856c-0.049-0.347-0.102-0.514-0.163-0.66c-0.188-0.446-0.668-1.155-1.867-1.155
	c-0.143,0-0.46,0.011-0.809,0.126c-0.431,0.145-1.201,0.561-1.389,1.689H47.806 M43.557,50.456c0.011,0.105,0.031,0.45,0.155,0.763
	c0.179,0.468,0.732,1.324,2.043,1.324c0.656,0,1.25-0.221,1.671-0.752c0.207-0.281,0.321-0.582,0.362-0.677l0.688,0.104
	c-0.053,0.136-0.146,0.438-0.354,0.761c-0.74,1.104-1.938,1.166-2.366,1.166c-0.249,0-1.144-0.02-1.854-0.562
	c-0.386-0.292-1.053-1.001-1.053-2.241c0-0.322,0.042-1.322,0.763-2.053c0.342-0.352,1.021-0.846,2.206-0.846
	c0.168,0,0.49,0,0.909,0.127c0.427,0.126,1.333,0.555,1.677,1.721c0.125,0.424,0.133,0.729,0.133,1.164H43.557z"/>
<rect x="49.705" y="45.634" fill="#757177" width="0.68" height="7.358"/>
<path fill="#757177" d="M52.551,52.992H51.87v-5.409h0.682V52.992z M51.87,45.634h0.682v0.906H51.87V45.634z"/>
<path fill="#757177" d="M58.138,52.992v-3.054c0-0.574-0.033-1.197-0.544-1.594c-0.179-0.138-0.492-0.304-1.011-0.304
	c-0.543,0-1.125,0.198-1.481,0.623c-0.364,0.44-0.373,0.962-0.381,1.493v2.835h-0.683v-5.409h0.683v0.813
	c0.1-0.146,0.236-0.354,0.57-0.574c0.569-0.377,1.166-0.377,1.407-0.377c0.126,0,0.403,0,0.717,0.096
	c0.292,0.086,1.013,0.366,1.274,1.201c0.111,0.363,0.122,0.695,0.122,1.07v3.181H58.138"/>
<path fill="#757177" d="M61.679,48.343c-0.854,0.541-0.897,1.514-0.897,1.813c0,0.344,0.063,0.666,0.199,0.989
	c0.436,1.043,1.448,1.138,1.813,1.138c0.095,0,0.269,0,0.501-0.052c0.573-0.125,1.563-0.588,1.573-2.086
	c-0.011-0.729-0.262-1.44-0.917-1.834c-0.19-0.104-0.564-0.291-1.116-0.291C62.65,48.021,62.148,48.041,61.679,48.343
	 M64.875,47.583h0.69v4.594c-0.017,0.469-0.041,1.045-0.229,1.48c-0.541,1.283-2.362,1.219-2.552,1.219
	c-1.313,0-1.98-0.428-2.272-0.979c-0.104-0.199-0.157-0.364-0.198-0.782l0.709,0.011c0.019,0.27,0.082,0.469,0.282,0.688
	c0.361,0.396,1.02,0.469,1.52,0.469c0.106,0,1.294,0.043,1.774-0.668c0.26-0.387,0.271-0.875,0.276-1.791
	c-0.132,0.189-0.227,0.342-0.59,0.582c-0.468,0.324-1,0.462-1.574,0.462c-1.576,0-2.636-1.117-2.636-2.699
	c0-0.198,0.007-0.649,0.208-1.136c0.229-0.577,0.883-1.607,2.501-1.607c1.001,0,1.562,0.396,1.843,0.688
	c0.116,0.115,0.168,0.211,0.248,0.343V47.583z"/>
<path fill="#757177" d="M74.964,49.467c-0.063-0.225-0.114-0.374-0.22-0.571c-0.196-0.346-0.656-0.854-1.626-0.854
	c-1.353,0-2.219,0.949-2.219,2.271c0.011,1.304,0.856,2.22,2.18,2.22c0.83,0,1.249-0.341,1.487-0.603
	c0.202-0.229,0.305-0.43,0.346-0.533c0.081-0.164,0.124-0.321,0.146-0.386l0.676,0.104c-0.073,0.229-0.219,0.761-0.676,1.251
	c-0.325,0.342-0.895,0.772-2.013,0.772c-0.208,0-0.813-0.012-1.405-0.294c-1.001-0.479-1.46-1.5-1.46-2.552
	c0-0.532,0.126-0.928,0.197-1.116c0.448-1.188,1.531-1.751,2.74-1.751c1.334,0,1.973,0.721,2.251,1.19
	c0.114,0.186,0.167,0.341,0.292,0.739L74.964,49.467"/>
<path fill="#757177" d="M78.362,48.22c-0.457,0.219-1.196,0.771-1.196,2.072c0,0.218,0.018,0.906,0.437,1.458
	c0.227,0.302,0.739,0.801,1.686,0.801c0.524,0,0.891-0.146,1.063-0.237c0.447-0.23,1.12-0.814,1.105-2.043
	c0-0.271-0.01-0.979-0.529-1.572c-0.22-0.243-0.721-0.678-1.609-0.678C79.164,48.021,78.768,48.041,78.362,48.22 M81.144,47.987
	c0.396,0.316,1.021,1.011,1.021,2.283c0,0.574-0.125,0.971-0.21,1.176c-0.238,0.646-0.956,1.691-2.697,1.691
	c-0.584,0-1.115-0.117-1.604-0.451c-1.106-0.729-1.199-1.987-1.199-2.416c0-0.209,0.02-0.701,0.241-1.221
	c0.249-0.582,0.917-1.583,2.563-1.625C79.548,47.425,80.435,47.435,81.144,47.987z"/>
<path fill="#757177" d="M91.817,52.992h-0.679v-3.347c-0.014-0.076,0-0.428-0.084-0.72c-0.238-0.854-1.096-0.905-1.345-0.905
	c-0.54,0.009-1.126,0.229-1.459,0.655c-0.321,0.419-0.321,0.97-0.333,1.459v2.857h-0.681V49.54
	c-0.019-0.468-0.059-0.864-0.435-1.195c-0.273-0.238-0.615-0.336-0.979-0.336c-0.688,0-1.374,0.324-1.646,0.961
	c-0.146,0.322-0.165,0.6-0.165,0.948v3.074h-0.679v-5.409h0.679v0.762c0.028-0.055,0.12-0.169,0.237-0.283
	c0.251-0.25,0.792-0.625,1.699-0.625c0.238,0,1.05,0.022,1.551,0.635c0.138,0.168,0.179,0.262,0.263,0.449
	c0.405-0.762,1.258-1.076,2.096-1.076c1.229,0,1.697,0.711,1.845,1.201c0.104,0.311,0.114,0.623,0.114,0.957V52.992"/>
<path fill="#757177" d="M95.097,48.272c-0.445,0.216-1.115,0.77-1.115,1.987c0,0.271,0.024,1.378,0.874,1.931
	c0.179,0.123,0.606,0.341,1.201,0.341c0.292-0.009,0.584-0.05,0.853-0.167c0.489-0.207,1.239-0.781,1.239-2.104
	c0-0.134-0.009-0.413-0.101-0.75c-0.272-0.969-1.001-1.489-2.002-1.469C95.889,48.052,95.494,48.071,95.097,48.272 M93.982,54.94
	h-0.679v-7.357h0.679v0.915c0.065-0.094,0.137-0.175,0.2-0.249c0.301-0.322,0.894-0.814,1.989-0.814
	c0.292,0,1.061,0.033,1.729,0.574c0.668,0.553,0.96,1.397,0.96,2.24c0,1.68-1.104,2.877-2.803,2.877
	c-0.926,0-1.491-0.386-1.765-0.645c-0.121-0.117-0.216-0.242-0.311-0.368V54.94z"/>
<path fill="#757177" d="M101.994,50.426c-0.132,0.023-0.26,0.044-0.394,0.064c-0.564,0.104-1.157,0.323-1.157,1.02
	c0,0.306,0.116,0.532,0.343,0.722c0.209,0.153,0.49,0.3,1.034,0.3c0.271-0.009,0.489-0.039,0.573-0.063
	c0.176-0.039,0.95-0.229,1.261-0.873c0.104-0.22,0.154-0.46,0.176-0.947l-0.011-0.564c-0.324,0.116-0.427,0.137-1.011,0.217
	L101.994,50.426 M105.154,52.992h-0.386c-0.201-0.013-0.302-0.034-0.386-0.054c-0.512-0.135-0.5-0.604-0.512-0.748
	c-0.052,0.061-0.144,0.175-0.305,0.311c-0.675,0.583-1.592,0.605-1.839,0.605c-0.575,0-1.306-0.155-1.669-0.639
	c-0.107-0.146-0.305-0.488-0.305-0.998c0-0.345,0.104-1.031,0.969-1.344c0.451-0.178,1.119-0.229,2.18-0.41
	c0.176-0.029,0.346-0.06,0.511-0.09c0.153-0.042,0.388-0.076,0.388-0.47c0-0.062,0-0.386-0.146-0.614
	c-0.354-0.533-1.248-0.513-1.326-0.513c-0.153,0-1.082-0.021-1.501,0.626c-0.125,0.218-0.165,0.439-0.208,0.688l-0.677-0.009
	c0.024-0.123,0.033-0.262,0.063-0.387c0.086-0.373,0.239-0.698,0.523-0.959c0.292-0.261,0.894-0.563,1.842-0.563
	c1.138,0,1.729,0.415,1.962,0.897c0.134,0.292,0.145,0.583,0.152,0.895v2.365c0,0.366,0.013,0.563,0.178,0.677
	c0.127,0.097,0.221,0.105,0.491,0.105V52.992z"/>
<path fill="#757177" d="M110.218,52.992v-3.054c0-0.574-0.032-1.197-0.541-1.594c-0.18-0.138-0.492-0.304-1.013-0.304
	c-0.542,0-1.126,0.198-1.478,0.623c-0.367,0.44-0.378,0.962-0.386,1.493v2.835h-0.68v-5.409h0.68v0.813
	c0.103-0.146,0.239-0.354,0.572-0.574c0.574-0.377,1.164-0.377,1.407-0.377c0.122,0,0.404,0,0.717,0.096
	c0.292,0.086,1.013,0.366,1.271,1.201c0.118,0.363,0.129,0.695,0.129,1.07v3.181H110.218"/>
<path fill="#757177" d="M114.667,52.125l1.916-4.542h0.731l-2.543,6.064c-0.114,0.271-0.181,0.384-0.26,0.511
	c-0.314,0.499-0.75,0.729-1.334,0.729c-0.251,0-0.47-0.043-0.711-0.082v-0.678c0.346,0.071,0.46,0.094,0.658,0.094
	c0.145,0,0.261-0.022,0.396-0.072c0.342-0.147,0.491-0.451,0.628-0.754l0.174-0.444l-2.666-5.368h0.758L114.667,52.125"/>
<path fill="#C32D1A" d="M0.637,1.377C0.637,0.621,1.257,0,2.012,0h9.507c0.76,0,1.633,0.566,1.943,1.257l13.061,28.939
	c0.311,0.693,0.818,0.693,1.132,0L40.606,1.258C40.917,0.566,41.786,0,42.546,0h9.395c0.76,0,1.379,0.621,1.379,1.377v37.782
	c0,0.757-0.619,1.379-1.379,1.379h-5.252c-0.756,0-1.373-0.622-1.359-1.379l0.312-30.74c0.007-0.759-0.013-1.377-0.043-1.377
	c-0.032,0-0.312,0.564-0.621,1.258l-13.86,30.979c-0.311,0.692-1.184,1.259-1.942,1.259h-4.509c-0.758,0-1.632-0.572-1.939-1.264
	L8.974,8.3C8.662,7.606,8.388,7.042,8.355,7.042c-0.03,0-0.051,0.618-0.043,1.377l0.31,30.74c0.013,0.757-0.605,1.379-1.362,1.379
	H2.012c-0.755,0-1.375-0.622-1.375-1.379V1.377"/>
<path fill="#C32D1A" d="M60.636,1.377C60.636,0.621,61.254,0,62.008,0h5.765c0.759,0,1.377,0.621,1.377,1.377v37.782
	c0,0.757-0.618,1.379-1.377,1.379h-5.765c-0.754,0-1.372-0.622-1.372-1.379V1.377"/>
<path fill="#C32D1A" d="M86.29,34.176c-0.76,0-1.377-0.62-1.377-1.379V7.737c0-0.761,0.617-1.378,1.377-1.378h9.433
	c0.762,0.015,1.845,0.107,2.529,0.213c0,0,11.263,1.769,11.297,13.58l0.002,0.114l-0.002,0.117
	c-0.034,11.81-11.297,13.583-11.297,13.583c-0.748,0.116-1.982,0.21-2.74,0.21H86.29 M118.064,19.869
	c0-8.742-3.975-19.868-17.767-19.868H77.772c-0.757,0-1.377,0.62-1.377,1.376V39.16c0,0.757,0.62,1.376,1.377,1.376h22.525
	c13.792,0,17.767-11.131,17.767-19.87c0-0.136-0.006-0.265-0.01-0.397C118.058,20.135,118.064,20.002,118.064,19.869z"/>
</svg>
