<?xml version="1.0" encoding="UTF-8" standalone="no"?>
<svg
   xmlns:dc="http://purl.org/dc/elements/1.1/"
   xmlns:cc="http://creativecommons.org/ns#"
   xmlns:rdf="http://www.w3.org/1999/02/22-rdf-syntax-ns#"
   xmlns:svg="http://www.w3.org/2000/svg"
   xmlns="http://www.w3.org/2000/svg"
   viewBox="0 0 294.48001 370.22668"
   height="370.22668"
   width="294.48001"
   xml:space="preserve"
   id="svg2"
   version="1.1"><metadata
     id="metadata8"><rdf:RDF><cc:Work
         rdf:about=""><dc:format>image/svg+xml</dc:format><dc:type
           rdf:resource="http://purl.org/dc/dcmitype/StillImage" /></cc:Work></rdf:RDF></metadata><defs
     id="defs6" /><g
     transform="matrix(1.3333333,0,0,-1.3333333,0,370.22667)"
     id="g10"><g
       transform="scale(0.1)"
       id="g12"><path
         id="path14"
         style="fill:#8aa824;fill-opacity:1;fill-rule:nonzero;stroke:none"
         d="m 407.859,1772.05 c -123.23,-0.11 -223.738,100.21 -223.847,223.39 -0.114,123.23 100.179,223.73 223.386,223.85 123.223,0.12 223.743,-100.2 223.852,-223.39 0.109,-123.23 -100.199,-223.74 -223.391,-223.85 z M 890.09,2566 c 123.14,-0.73 222.81,-101.79 222.09,-225.15 -0.74,-123.15 -101.8,-222.83 -225.16,-222.09 -123.141,0.73 -222.821,101.79 -222.09,225.15 0.742,123.15 101.781,222.82 225.16,222.09 z M 1922.66,803.352 c -32.76,58.117 6.63,146.187 -89.45,175.546 -78.39,23.962 -132.37,-38.476 -207.22,-39.16 -18.48,39.043 -38.12,80.922 -58.12,122.612 -26.41,55.09 -73.78,74.94 -132.67,55.62 -52.79,-17.32 -105.47,-34.98 -162.01,-53.75 -9.3,40.27 -17.71,76.14 -25.83,112.06 -18.37,81.11 -63.66,105.92 -140.45,76.85 -34.2,-12.95 -68.47,-25.67 -98.33,-36.86 -34.689,43.91 3.17,101.6 -44.139,137.8 -49.429,37.82 -93.222,5.1 -146.269,-15.95 18.918,70.12 -18.551,90.83 -66.492,108.96 -44.93,16.98 -91.442,32.99 -134.149,63.2 43.219,26.67 90.047,29.49 129.457,49.03 45.453,22.55 17.532,90.24 66.524,118.88 49.308,-30.28 86.808,-95.52 166.476,-54.99 65.912,33.54 67.712,108.24 119.062,152.75 28.51,-21.34 58.48,-43.05 87.59,-65.87 13.74,-10.78 25.91,-17.02 45.3,-13.36 108.55,20.45 111.88,23.54 116.91,131.88 0.58,12.2 -4.58,26.33 12.25,39.06 43.16,-20.09 90.38,-37.53 132.82,-62.95 54.84,-32.85 102.35,-3.34 148.35,14.35 37.48,14.4 9.22,56.66 16.91,85.31 3.55,13.17 -7.42,29.14 13.92,46.38 20.73,-23.48 40.41,-48.05 62.45,-70.23 40.62,-40.86 144.05,-13.63 162.14,42.15 14.24,43.94 27.67,88.15 47.9,152.89 39.33,-45.08 67.63,-82.18 100.72,-114.34 47.59,-46.21 85.21,10.15 140.23,6.87 -245.8,277.13 -481.17,542.48 -717.21,808.59 -82.45,-72.86 -159.02,-140.5 -236.17,-208.68 -10.33,8.45 -17.48,14.13 -24.47,20.01 -253.331,213.06 -611.21,107.23 -705.389,-210.86 -11.781,-39.79 -32.492,-35.75 -60.75,-35.91 C 191.441,2339.76 -4.57813,2135.61 6.76953,1886.96 11.8984,1774.44 59.2383,1679.41 138.07,1594.9 91.0781,1552.66 46.1484,1512.29 0,1470.83 437.129,977.789 869.461,490.148 1304.03,0 c 304.45,270.629 605.28,538.07 904.54,804.078 -100.14,94.973 -192.84,16.711 -285.91,-0.726" /><path
         id="path16"
         style="fill:#050707;fill-opacity:1;fill-rule:nonzero;stroke:none"
         d="m 492.488,2029.24 c -45.078,0.49 -82.019,-33.84 -84.707,-78.75 -2.832,-47.28 32.789,-86.89 79.969,-88.93 47.379,-2.06 86.289,34.11 87.602,81.42 1.296,47.34 -35.571,85.72 -82.864,86.26" /><path
         id="path18"
         style="fill:#050707;fill-opacity:1;fill-rule:nonzero;stroke:none"
         d="m 971.969,2196.95 c 47.211,-0.25 84.861,37.62 84.351,84.85 -0.48,45.15 -35.54,81.19 -80.64,82.87 -47.371,1.78 -86.071,-34.63 -87.09,-81.95 -1.039,-47.28 36.14,-85.52 83.379,-85.77" /></g></g></svg>