<?xml version="1.0" encoding="UTF-8" standalone="no"?>
<svg id="synoa_logo" xmlns="http://www.w3.org/2000/svg" viewBox="0 0 169 42.68"><path fill="#1a1a1a" d="M169,11.65a4.65,4.65,0,1,1-4.61-4.51A4.55,4.55,0,0,1,169,11.65Zm-8.14,0a3.52,3.52,0,0,0,3.53,3.61,3.46,3.46,0,0,0,3.45-3.58A3.49,3.49,0,1,0,160.86,11.65ZM163.65,14h-1V9.48a12.5,12.5,0,0,1,1.74-.14,2.42,2.42,0,0,1,1.54.36,1.14,1.14,0,0,1,.47,1,1.17,1.17,0,0,1-.94,1.07v0.06a1.27,1.27,0,0,1,.8,1.1,4,4,0,0,0,.33,1.1h-1.1a3.5,3.5,0,0,1-.36-1.1,0.79,0.79,0,0,0-.94-0.69h-0.5V14Zm0-2.53h0.5c0.58,0,1-.19,1-0.66s-0.3-.69-1-0.69a2.47,2.47,0,0,0-.58.06v1.29Z"></path><path fill="#1a1a1a" d="M46.38,29.82l1.25-3.41a17.21,17.21,0,0,0,3.63,1.24,15.47,15.47,0,0,0,3.21.37,4.14,4.14,0,0,0,2.93-.9,3,3,0,0,0,.95-2.23,2.61,2.61,0,0,0-.83-2,9.16,9.16,0,0,0-2.08-1.43q-1.25-.64-2.68-1.27a15.17,15.17,0,0,1-2.68-1.5A7.87,7.87,0,0,1,48,16.57a5.63,5.63,0,0,1-.83-3.16,5.87,5.87,0,0,1,.46-2.23A6.05,6.05,0,0,1,49,9.13a7.19,7.19,0,0,1,2.4-1.5,9.34,9.34,0,0,1,3.44-.58,19.08,19.08,0,0,1,3,.25,22.37,22.37,0,0,1,3.63.94l-1.2,3.32a18.49,18.49,0,0,0-2.75-.69,14.58,14.58,0,0,0-2.24-.18,4.22,4.22,0,0,0-2.45.67,2.27,2.27,0,0,0-1,2,2.55,2.55,0,0,0,.83,1.94,9.11,9.11,0,0,0,2.08,1.43Q56,17.38,57.47,18a15.47,15.47,0,0,1,2.68,1.54,8.07,8.07,0,0,1,2.08,2.19A5.84,5.84,0,0,1,63.06,25a5.58,5.58,0,0,1-.65,2.65,7.08,7.08,0,0,1-1.76,2.14,8.6,8.6,0,0,1-2.54,1.45,8.47,8.47,0,0,1-3,.53q-0.88,0-1.85,0a14.15,14.15,0,0,1-2-.25,20.21,20.21,0,0,1-2.29-.6A22.22,22.22,0,0,1,46.38,29.82Z"></path><path fill="#1a1a1a" d="M73.23,24A10.89,10.89,0,0,0,73,22.63q-0.93-3.73-2.2-7.56t-2.47-7.6H63.11L71.3,29.7Z"></path><path fill="#1a1a1a" d="M81.54,7.47L74.47,29.59q-0.69,2.07-1.32,3.78a20.74,20.74,0,0,1-1.32,2.95,6.16,6.16,0,0,1-1.59,1.94,3.5,3.5,0,0,1-2.19.69,10.8,10.8,0,0,1-2.82-.41L64,41.9a15.12,15.12,0,0,0,4.07.78,7,7,0,0,0,3.7-.9,8.62,8.62,0,0,0,2.59-2.49,19.07,19.07,0,0,0,2-3.76q0.88-2.17,1.85-4.75L86.62,7.47H81.54Z"></path><path fill="#1a1a1a" d="M104.51,31.17V14.07a4.36,4.36,0,0,0-.67-2.49,2.37,2.37,0,0,0-2.09-1c-0.25,0-3.15.57-5.53,1.05l-1,.21a8.8,8.8,0,0,1-.91.13H94.16s0,0.25,0,.31,0,0.17,0,.26V31.17H89.45V13.28a25.42,25.42,0,0,0-.71-5.68h3.72a7.49,7.49,0,0,1,1,1.39l0.05,0.1,0.1,0A12.77,12.77,0,0,1,95,8.54a77.11,77.11,0,0,1,7.69-1.45,8.13,8.13,0,0,1,2.48.39,5.52,5.52,0,0,1,3.6,3.45,9.64,9.64,0,0,1,.55,3.46V31.17h-4.79Z"></path><path fill="#1a1a1a" d="M124,31.68a12.28,12.28,0,0,1-4.41-.8A10,10,0,0,1,116,28.52a11.69,11.69,0,0,1-2.45-3.88,14.27,14.27,0,0,1-.92-5.28,13.36,13.36,0,0,1,1-5.46,11.85,11.85,0,0,1,2.65-3.83A10.46,10.46,0,0,1,120,7.82a12,12,0,0,1,4-.73,11.65,11.65,0,0,1,4.75.93,10.6,10.6,0,0,1,3.58,2.57,11.2,11.2,0,0,1,2.26,3.9,14.94,14.94,0,0,1,.78,4.87,13.8,13.8,0,0,1-.94,5.25,11.64,11.64,0,0,1-2.51,3.85,10.76,10.76,0,0,1-3.63,2.39A11.53,11.53,0,0,1,124,31.68Zm0-21.1a5.71,5.71,0,0,0-2.53.57,5.79,5.79,0,0,0-2,1.69,8.47,8.47,0,0,0-1.36,2.76,13.17,13.17,0,0,0-.49,3.77,14.15,14.15,0,0,0,.42,3.56,8.61,8.61,0,0,0,1.24,2.78,6,6,0,0,0,2,1.83,5.58,5.58,0,0,0,2.72.66,5.47,5.47,0,0,0,2.81-.71,6,6,0,0,0,2-1.93,8.79,8.79,0,0,0,1.17-2.8,14.85,14.85,0,0,0,.37-3.39c0-2.84-.61-5-1.81-6.53A5.64,5.64,0,0,0,124,10.58Z"></path><path fill="#1a1a1a" d="M156.82,27.87c-0.11-1.27-.16-2.77-0.16-4.46V16.87c0-3.12-.83-5.54-2.46-7.22s-4-2.52-7-2.52a19.79,19.79,0,0,0-3.35.32,17.88,17.88,0,0,0-3.93,1.24l1.12,3a17.42,17.42,0,0,1,2.79-.79,14.07,14.07,0,0,1,2.49-.23,5.31,5.31,0,0,1,4.37,1.68A6.74,6.74,0,0,1,152,16.64v0.48H151.9c-2.56.3-6.24,0.87-7.65,1.24a13.81,13.81,0,0,0-3.91,1.6,5.71,5.71,0,0,0-2.1,2.23,6.54,6.54,0,0,0-.63,2.92,6.36,6.36,0,0,0,.52,2.55,6.16,6.16,0,0,0,1.47,2.08,7,7,0,0,0,2.34,1.4,8.86,8.86,0,0,0,3.12.52,9.29,9.29,0,0,0,3.21-.55,10.1,10.1,0,0,0,3.29-2.3l0.72-1.11,0,0.38a4.3,4.3,0,0,0,.5,1.77,3.28,3.28,0,0,0,1.14,1.29h3.44A19.59,19.59,0,0,1,156.82,27.87Zm-7.69-.5a6.54,6.54,0,0,1-3.06.82,3.59,3.59,0,0,1-2.68-1,3.35,3.35,0,0,1-1-2.41,3.53,3.53,0,0,1,.93-2.36A6.27,6.27,0,0,1,147,20.85a22.68,22.68,0,0,0,3.82-.85c0.21-.14.74-0.39,1.22-0.65l0,5.48A8.88,8.88,0,0,1,149.13,27.37Z"></path><path fill="#083b47" d="M16.92,15a4.56,4.56,0,1,1,0-3.28h20.7A19.64,19.64,0,0,0,.56,24.23H22.37a4.56,4.56,0,1,1,0,3.28H1.67A19.64,19.64,0,0,0,38.74,15H16.92Z"></path></svg>