<svg id="Logo_NEU_2012_neuer_Claim" data-name="Logo NEU 2012 neuer Claim" xmlns="http://www.w3.org/2000/svg" viewBox="0 0 335.17 93.16"><defs><style>.cls-1{fill:#003b75;}.cls-2{fill:#1d1d1b;}</style></defs><title>tradebyte</title><path class="cls-1" d="M62.19,88.12a5.58,5.58,0,0,1,2,4.21,4.68,4.68,0,0,1-1.68,3.75,9.88,9.88,0,0,0-2.3,3.63,13.25,13.25,0,0,0-1,5.9c0,.25.11,1.06.11,2.45,0,.78-.16,1.14-.44,1.18-.74.11-1.37-.81-2.28-2.19a28.17,28.17,0,0,1-2.85-5.46,18.81,18.81,0,0,1-1.11-6.26,11.72,11.72,0,0,1,1.55-5.93,4.85,4.85,0,0,1,4.6-2.52,5.26,5.26,0,0,1,3.36,1.24Z" transform="translate(-36.65 -86.88)"/><path class="cls-1" d="M40.23,99a5.6,5.6,0,0,1,4.66.37,4.64,4.64,0,0,1,2.4,3.33,9.93,9.93,0,0,0,2,3.81,13.32,13.32,0,0,0,4.62,3.79,24.3,24.3,0,0,1,2.18,1.12c.68.4.91.72.81,1-.28.69-1.4.78-3,.88a28.89,28.89,0,0,1-6.15-.26,19,19,0,0,1-6-2.17,11.79,11.79,0,0,1-4.36-4.31,4.85,4.85,0,0,1,.12-5.25A5.3,5.3,0,0,1,40.23,99Z" transform="translate(-36.65 -86.88)"/><path class="cls-1" d="M38.6,123.85A5.59,5.59,0,0,1,41.24,120a4.66,4.66,0,0,1,4.09-.42,10,10,0,0,0,4.3.18,13.38,13.38,0,0,0,5.59-2.11c.21-.14.86-.63,2.06-1.32.68-.4,1.08-.44,1.25-.22.46.59,0,1.6-.76,3.08a28.4,28.4,0,0,1-3.3,5.19,18.79,18.79,0,0,1-4.87,4.1,11.82,11.82,0,0,1-5.91,1.62,4.86,4.86,0,0,1-4.49-2.72,5.26,5.26,0,0,1-.6-3.53Z" transform="translate(-36.65 -86.88)"/><path class="cls-1" d="M59.21,137.66a5.61,5.61,0,0,1-2-4.21,4.65,4.65,0,0,1,1.69-3.75,10.05,10.05,0,0,0,2.3-3.64,13.36,13.36,0,0,0,1-5.9c0-.24-.11-1-.11-2.44,0-.79.16-1.15.44-1.19.74-.1,1.37.82,2.28,2.19a28.23,28.23,0,0,1,2.85,5.46,18.93,18.93,0,0,1,1.12,6.27,11.87,11.87,0,0,1-1.55,5.93,4.87,4.87,0,0,1-4.61,2.52,5.28,5.28,0,0,1-3.36-1.24Z" transform="translate(-36.65 -86.88)"/><path class="cls-1" d="M81.29,126.53a5.54,5.54,0,0,1-4.65-.36,4.64,4.64,0,0,1-2.4-3.33,9.93,9.93,0,0,0-2-3.81,13.32,13.32,0,0,0-4.62-3.79,24.26,24.26,0,0,1-2.18-1.13c-.68-.39-.91-.71-.81-1,.28-.69,1.4-.78,3-.88a28.23,28.23,0,0,1,6.15.26,19,19,0,0,1,6,2.17A11.79,11.79,0,0,1,84.17,119a4.84,4.84,0,0,1-.12,5.24,5.24,5.24,0,0,1-2.76,2.29Z" transform="translate(-36.65 -86.88)"/><path class="cls-1" d="M82.92,101.63a5.61,5.61,0,0,1-2.64,3.85,4.65,4.65,0,0,1-4.09.41,10,10,0,0,0-4.29-.17,13.23,13.23,0,0,0-5.6,2.11c-.21.13-.86.62-2.06,1.32-.68.39-1.08.43-1.25.21-.46-.59,0-1.59.76-3.07a28.74,28.74,0,0,1,3.3-5.2A19.19,19.19,0,0,1,71.92,97a11.82,11.82,0,0,1,5.91-1.62,4.85,4.85,0,0,1,4.49,2.73,5.26,5.26,0,0,1,.6,3.53Z" transform="translate(-36.65 -86.88)"/><path class="cls-2" d="M122.57,113.18H110.93v41.89h-7.67V113.18H91.62v-6h30.95Z" transform="translate(-36.65 -86.88)"/><path class="cls-2" d="M141.61,119.85l-.85,6.54a12.9,12.9,0,0,0-3-.5q-2.7,0-7.46,5.89v23.29H123V119.71h6l.64,6q5.1-6.62,8.8-6.61A6.92,6.92,0,0,1,141.61,119.85Z" transform="translate(-36.65 -86.88)"/><path class="cls-2" d="M172.16,155.07h-5.68l-.56-3.83q-5.26,4.55-10.94,4.54-10.65,0-10.65-9.8a10.16,10.16,0,0,1,4.33-8.73c3.13-2.22,7.69-3.34,13.71-3.34h2.55v-3.19q0-6.31-7.31-6.32a30.36,30.36,0,0,0-10.37,2.06L146.18,122a33,33,0,0,1,13.42-2.91q12.57,0,12.56,10.72Zm-7.24-8.16v-8.38h-3q-10.29,0-10.3,6.39c0,3.69,1.83,5.54,5.47,5.54C159.55,150.46,162.18,149.27,164.92,146.91Z" transform="translate(-36.65 -86.88)"/><path class="cls-2" d="M207.46,155.07h-6l-.64-3.76q-5.31,4.47-10.15,4.47a10.18,10.18,0,0,1-8.94-4.9q-3.19-4.6-3.2-12.14,0-10.08,5-15.19,4.47-4.55,12.07-4.55a26.92,26.92,0,0,1,4.48.36V104.73h7.31Zm-7.31-8.52V125.11a16.79,16.79,0,0,0-5.05-.78,7.58,7.58,0,0,0-6.46,3.19q-2.55,3.48-2.55,10.08,0,5.9,1.81,9.2c1.2,2.2,2.85,3.3,4.93,3.3S197.4,148.92,200.15,146.55Z" transform="translate(-36.65 -86.88)"/><path class="cls-2" d="M242.62,138.6H221.53v.64q0,10.86,8.87,10.86A30.87,30.87,0,0,0,241.27,148l1.2,4.26a29.71,29.71,0,0,1-13.63,3.48q-14.84,0-14.84-17.39,0-9.31,4-14.35t11.25-5q13.41,0,13.42,16.83C242.69,136.73,242.66,137.65,242.62,138.6Zm-7.1-4.69v-.21q0-9.66-6.68-9.66a6,6,0,0,0-5.18,2.77,13.4,13.4,0,0,0-2.13,7.1Z" transform="translate(-36.65 -86.88)"/><path class="cls-1" d="M254.76,104.73v18.53a29.81,29.81,0,0,1,5.32-3,12.17,12.17,0,0,1,4.62-1A10,10,0,0,1,273,123.8q3.3,4.5,3.3,12,0,9-4.76,14.41t-12.71,5.4a44.25,44.25,0,0,1-9.58-1V104.73Zm0,45.79a14.19,14.19,0,0,0,5.25,1,9.35,9.35,0,0,0,7.67-3.63q2.91-3.63,2.91-10.18t-2.06-10.18c-1.37-2.42-3.27-3.63-5.68-3.63A8.94,8.94,0,0,0,259,125a23.44,23.44,0,0,0-4.22,2.7Z" transform="translate(-36.65 -86.88)"/><path class="cls-1" d="M301.12,119.85h6.18q-3.92,19.11-8.52,29.54t-8.91,14.27q-4.31,3.84-7.92,3.84a13.15,13.15,0,0,1-2.56-.25,6.11,6.11,0,0,1-1.91-.68v-3.76L280,163a10.23,10.23,0,0,0,7.1-2.55A8.34,8.34,0,0,0,290,154a10.08,10.08,0,0,0-.71-3.62l-11.07-30.54h6.11l7.33,21.44,2.52,7.58a134.18,134.18,0,0,0,4.19-13.9A144.59,144.59,0,0,0,301.12,119.85Z" transform="translate(-36.65 -86.88)"/><path class="cls-1" d="M322,109.77v10.08h9.58v4.34H322v21a7.67,7.67,0,0,0,1.06,4.51c.71,1,2,1.46,3.91,1.46a19.91,19.91,0,0,0,2.52-.16,17.65,17.65,0,0,0,2.45-.55l.49,3.12a10.37,10.37,0,0,1-3.51,1.35,19.36,19.36,0,0,1-4.16.5c-3,0-5.1-.73-6.35-2.17s-1.88-4-1.88-7.63V124.19h-6.11v-4.34h6.25a102.06,102.06,0,0,0,2.27-10.08Z" transform="translate(-36.65 -86.88)"/><path class="cls-1" d="M340.13,138.31v1q0,5.94,2.55,8.76a9.2,9.2,0,0,0,7.17,2.82,26.16,26.16,0,0,0,5.21-.51,27.23,27.23,0,0,0,4.58-1.33l1.15,3.26a28.1,28.1,0,0,1-6.05,2.45,24.23,24.23,0,0,1-6.48.89q-6.9,0-10.39-4.16c-2.33-2.76-3.49-7.11-3.49-13q0-9.17,3.62-14.13t10.44-5q6.45,0,9.4,4.35t3,14.6Zm15.19-5.54a11.74,11.74,0,0,0-1.76-6.83A6.34,6.34,0,0,0,348,123.4a6.63,6.63,0,0,0-5.68,3.08,13.36,13.36,0,0,0-2.16,7.86h15.19Z" transform="translate(-36.65 -86.88)"/><path class="cls-2" d="M368.6,147.52a3.2,3.2,0,1,1-3.28,3.18,3.17,3.17,0,0,1,3.28-3.18Zm0,.56a2.63,2.63,0,0,0,0,5.26,2.5,2.5,0,0,0,2.5-2.62,2.54,2.54,0,0,0-2.52-2.64Zm-.56,4.38h-.62v-3.34a6.43,6.43,0,0,1,1.16-.1,1.66,1.66,0,0,1,1.06.26.84.84,0,0,1-.32,1.5v0a1,1,0,0,1,.56.8,2.51,2.51,0,0,0,.24.84h-.64a2.29,2.29,0,0,1-.26-.88c-.08-.36-.3-.52-.78-.52H368Zm0-1.88h.42c.46,0,.86-.14.86-.54s-.2-.54-.8-.54a2.34,2.34,0,0,0-.48,0Z" transform="translate(-36.65 -86.88)"/><path class="cls-2" d="M111.27,175.42a8,8,0,0,1-3.38.63c-3.61,0-6.33-2.3-6.33-6.5a6.37,6.37,0,0,1,6.69-6.72,6.83,6.83,0,0,1,3,.57l-.4,1.35a5.94,5.94,0,0,0-2.58-.53c-3,0-5,1.91-5,5.28,0,3.13,1.81,5.14,4.92,5.14a6.52,6.52,0,0,0,2.7-.53Z" transform="translate(-36.65 -86.88)"/><path class="cls-2" d="M113.78,166.65l2,5.43c.21.61.44,1.33.59,1.88h0c.17-.55.36-1.25.59-1.92l1.82-5.39h1.77l-2.51,6.55c-1.19,3.15-2,4.77-3.15,5.76a4.63,4.63,0,0,1-2,1.08l-.42-1.4a4.46,4.46,0,0,0,1.46-.82,5.06,5.06,0,0,0,1.41-1.86,1.37,1.37,0,0,0,.13-.4,1.6,1.6,0,0,0-.11-.44l-3.4-8.47Z" transform="translate(-36.65 -86.88)"/><path class="cls-2" d="M128.75,175.5a6.1,6.1,0,0,1-2.64.55,4.39,4.39,0,0,1-4.58-4.71,4.67,4.67,0,0,1,4.94-4.88,5.59,5.59,0,0,1,2.32.47l-.38,1.29a4,4,0,0,0-1.94-.43,3.46,3.46,0,0,0-.06,6.91,4.81,4.81,0,0,0,2.06-.45Z" transform="translate(-36.65 -86.88)"/><path class="cls-2" d="M131,162.35h1.68v13.49H131Z" transform="translate(-36.65 -86.88)"/><path class="cls-2" d="M136.66,171.55a2.94,2.94,0,0,0,3.15,3.19,6.09,6.09,0,0,0,2.54-.47l.29,1.19a7.34,7.34,0,0,1-3.06.59,4.28,4.28,0,0,1-4.52-4.65c0-2.78,1.63-5,4.31-5,3,0,3.8,2.64,3.8,4.33a6,6,0,0,1-.06.78Zm4.9-1.2a2.38,2.38,0,0,0-2.32-2.71,2.77,2.77,0,0,0-2.57,2.71Z" transform="translate(-36.65 -86.88)"/><path class="cls-2" d="M158.12,171.17a4.49,4.49,0,0,1-4.57,4.88,4.37,4.37,0,0,1-4.41-4.73c0-3.08,2-4.88,4.56-4.88S158.12,168.36,158.12,171.17Zm-7.29.09c0,2,1.16,3.54,2.79,3.54s2.79-1.5,2.79-3.57c0-1.56-.77-3.54-2.75-3.54S150.83,169.52,150.83,171.26Z" transform="translate(-36.65 -86.88)"/><path class="cls-2" d="M160.67,175.84v-7.92h-1.29v-1.27h1.29v-.44a4.37,4.37,0,0,1,1.06-3.21,3.22,3.22,0,0,1,2.25-.86,3.88,3.88,0,0,1,1.42.27l-.23,1.29a2.53,2.53,0,0,0-1.06-.21c-1.43,0-1.79,1.26-1.79,2.66v.5h2.23v1.27h-2.23v7.92Z" transform="translate(-36.65 -86.88)"/><path class="cls-2" d="M171.16,171.55a2.94,2.94,0,0,0,3.15,3.19,6.18,6.18,0,0,0,2.55-.47l.28,1.19a7.3,7.3,0,0,1-3.06.59,4.28,4.28,0,0,1-4.52-4.65c0-2.78,1.64-5,4.32-5,3,0,3.79,2.64,3.79,4.33a6.44,6.44,0,0,1,0,.78Zm4.9-1.2a2.38,2.38,0,0,0-2.32-2.71,2.76,2.76,0,0,0-2.56,2.71Z" transform="translate(-36.65 -86.88)"/><path class="cls-2" d="M184.42,170.09v1.23h-4.69v-1.23Z" transform="translate(-36.65 -86.88)"/><path class="cls-2" d="M193.54,175.5a6.1,6.1,0,0,1-2.64.55,4.39,4.39,0,0,1-4.58-4.71,4.67,4.67,0,0,1,4.94-4.88,5.59,5.59,0,0,1,2.32.47l-.38,1.29a4,4,0,0,0-1.94-.43,3.46,3.46,0,0,0-.06,6.91,4.72,4.72,0,0,0,2.05-.45Z" transform="translate(-36.65 -86.88)"/><path class="cls-2" d="M204,171.17a4.49,4.49,0,0,1-4.58,4.88,4.37,4.37,0,0,1-4.41-4.73c0-3.08,2-4.88,4.56-4.88S204,168.36,204,171.17Zm-7.29.09c0,2,1.15,3.54,2.79,3.54s2.79-1.5,2.79-3.57c0-1.56-.78-3.54-2.75-3.54S196.68,169.52,196.68,171.26Z" transform="translate(-36.65 -86.88)"/><path class="cls-2" d="M206.35,169.14c0-.95,0-1.73-.08-2.49h1.46l.08,1.48h.06a3.16,3.16,0,0,1,2.88-1.69,2.72,2.72,0,0,1,2.61,1.84h0a4,4,0,0,1,1-1.2,3.18,3.18,0,0,1,2-.64c1.22,0,3,.8,3,4v5.41h-1.63v-5.2c0-1.77-.65-2.83-2-2.83a2.16,2.16,0,0,0-2,1.52,2.58,2.58,0,0,0-.13.83v5.68H212.1v-5.51c0-1.46-.64-2.52-1.92-2.52a2.29,2.29,0,0,0-2.07,1.67,2.43,2.43,0,0,0-.13.82v5.54h-1.63Z" transform="translate(-36.65 -86.88)"/><path class="cls-2" d="M222.46,169.14c0-.95,0-1.73-.08-2.49h1.47l.07,1.48H224a3.18,3.18,0,0,1,2.89-1.69,2.72,2.72,0,0,1,2.6,1.84h0a3.81,3.81,0,0,1,1-1.2,3.19,3.19,0,0,1,2-.64c1.21,0,3,.8,3,4v5.41H234v-5.2c0-1.77-.64-2.83-2-2.83a2.17,2.17,0,0,0-2,1.52,2.89,2.89,0,0,0-.13.83v5.68h-1.64v-5.51c0-1.46-.64-2.52-1.91-2.52a2.27,2.27,0,0,0-2.07,1.67,2.21,2.21,0,0,0-.14.82v5.54h-1.63Z" transform="translate(-36.65 -86.88)"/><path class="cls-2" d="M239.5,171.55a3,3,0,0,0,3.16,3.19,6.16,6.16,0,0,0,2.54-.47l.29,1.19a7.34,7.34,0,0,1-3.06.59,4.28,4.28,0,0,1-4.52-4.65c0-2.78,1.63-5,4.31-5,3,0,3.8,2.64,3.8,4.33a6,6,0,0,1-.06.78Zm4.9-1.2c0-1.06-.43-2.71-2.31-2.71a2.76,2.76,0,0,0-2.57,2.71Z" transform="translate(-36.65 -86.88)"/><path class="cls-2" d="M248.36,169.52c0-1.09,0-2-.08-2.87h1.46l.06,1.8h.08a2.75,2.75,0,0,1,2.54-2,1.8,1.8,0,0,1,.48.06v1.57a2.47,2.47,0,0,0-.57,0,2.35,2.35,0,0,0-2.25,2.14,6,6,0,0,0-.07.78v4.9h-1.65Z" transform="translate(-36.65 -86.88)"/><path class="cls-2" d="M261.2,175.5a6.1,6.1,0,0,1-2.64.55,4.38,4.38,0,0,1-4.58-4.71,4.67,4.67,0,0,1,4.94-4.88,5.59,5.59,0,0,1,2.32.47l-.38,1.29a4,4,0,0,0-1.94-.43,3.46,3.46,0,0,0-.06,6.91,4.72,4.72,0,0,0,2.05-.45Z" transform="translate(-36.65 -86.88)"/><path class="cls-2" d="M264.24,171.55a2.94,2.94,0,0,0,3.15,3.19,6.18,6.18,0,0,0,2.55-.47l.28,1.19a7.24,7.24,0,0,1-3.05.59,4.29,4.29,0,0,1-4.53-4.65c0-2.78,1.64-5,4.32-5,3,0,3.8,2.64,3.8,4.33a6,6,0,0,1-.06.78Zm4.9-1.2a2.37,2.37,0,0,0-2.32-2.71,2.76,2.76,0,0,0-2.56,2.71Z" transform="translate(-36.65 -86.88)"/></svg>