<svg xmlns="http://www.w3.org/2000/svg" viewBox="0 0 65.209 20.416"><path fill="#FF3B40" d="M0 3.712v1.856h6.764L0 13.071v1.839h9.342v-1.856H2.557l6.785-7.462v-1.88zM57.713 3.712h-1.846V14.91h1.857v-3.465h5.63V9.589h-5.63V5.568h7.485V3.712z"/><g fill="#FF3B40"><path d="M15.878 13.305a3.974 3.974 0 1 1 .001-7.947 3.974 3.974 0 0 1-.001 7.947m0-9.817a5.842 5.842 0 0 0-5.843 5.843c0 3.228 2.615 5.843 5.843 5.843s5.843-2.615 5.843-5.843a5.843 5.843 0 0 0-5.843-5.843M48.365 13.305a3.974 3.974 0 1 1 0-7.949 3.974 3.974 0 0 1 0 7.949m0-9.817a5.843 5.843 0 1 0-.002 11.686 5.843 5.843 0 0 0 .002-11.686"/></g><path fill="#FF3B40" d="M23.139 0h1.856v14.91h-1.856zM27.593 0h1.857v14.91h-1.857zM39.225 9.589h-5.569V3.711h-1.855V14.91h1.855v-3.465h5.569v3.465h1.918V3.711h-1.918zM61.844 19.566c0-.559.295-.835.719-.835h.027v-.51c-.371-.017-.613.199-.746.514v-.475h-.482v2.107h.482v-.801zm-1.567-.244c0 .371-.248.675-.639.675-.375 0-.643-.308-.643-.683 0-.371.247-.674.634-.674.38.001.648.307.648.682m.483-.008c0-.607-.475-1.097-1.121-1.097s-1.125.498-1.125 1.104a1.09 1.09 0 0 0 1.116 1.094c.651.001 1.13-.498 1.13-1.101m-3.231-.637h.566v-.416h-.566v-.578h-.483v.578h-.269v.416h.269v1.108c0 .463.251.619.606.619.18 0 .315-.04.435-.107v-.396a.64.64 0 0 1-.299.072c-.163 0-.259-.076-.259-.265v-1.031zm-1.709.928c0 .264-.238.443-.559.443-.227 0-.406-.111-.406-.312v-.008c0-.215.18-.339.482-.339.188 0 .359.036.482.084v.132zm.468.763v-1.249c0-.562-.304-.89-.927-.89-.342 0-.57.071-.801.175l.131.387c.191-.08.367-.131.603-.131.336 0 .519.159.519.451v.051a1.794 1.794 0 0 0-.582-.087c-.49 0-.854.224-.854.678v.009c0 .423.353.65.751.65a.852.852 0 0 0 .682-.304v.26h.478zm-2.861-1.054c0 .419-.271.679-.602.679-.328 0-.615-.268-.615-.679s.287-.678.615-.678c.327.001.602.263.602.678m.491 0c0-.702-.482-1.097-.982-1.097-.338 0-.558.175-.713.395v-1.158h-.484v2.914h.484v-.328c.147.196.366.372.713.372.503 0 .982-.395.982-1.098m-3.383.136c0 .327-.196.523-.475.523-.289 0-.451-.188-.451-.516V18.26h-.483v1.341c0 .491.274.811.75.811.327 0 .522-.172.659-.372v.328h.482v-2.107h-.482v1.189zm-1.908.571l-.291-.287c-.152.156-.32.264-.547.264-.371 0-.631-.304-.631-.683 0-.371.256-.674.607-.674.242 0 .398.106.547.263l.299-.323c-.195-.216-.443-.362-.842-.362-.631 0-1.095.502-1.095 1.104 0 .604.464 1.094 1.091 1.094.411-.001.655-.165.862-.396m-3.939-.842c0-.327.194-.522.475-.522.287 0 .451.188.451.515v1.197h.482v-1.341c0-.491-.275-.81-.75-.81-.328 0-.522.171-.658.371v-.328h-.483v2.107h.483v-1.189zm-1.784 1.189h.492v-2.794h-.492v2.794zm-3.271-1.189c0-.327.195-.522.475-.522.287 0 .451.188.451.515v1.197h.483v-1.341c0-.491-.276-.81-.751-.81-.327 0-.521.171-.658.371v-1.135h-.483v2.914h.482v-1.189zm-1.02.842l-.291-.287c-.151.156-.319.264-.547.264-.371 0-.631-.304-.631-.683 0-.371.256-.674.607-.674.243 0 .398.106.546.263l.3-.323c-.195-.216-.443-.362-.842-.362-.631 0-1.094.502-1.094 1.104 0 .604.463 1.094 1.09 1.094.412-.001.655-.165.862-.396m-3.991-.855c.044-.326.251-.554.547-.554.319 0 .503.243.534.554h-1.081zm.004.32h1.548c.004-.048.008-.088.008-.132 0-.611-.339-1.137-1.009-1.137-.603 0-1.03.493-1.03 1.101 0 .655.471 1.098 1.082 1.098.387 0 .662-.155.862-.396l-.284-.251c-.166.164-.335.251-.57.251-.312.001-.551-.191-.607-.534M33.1 18.029h.885v-.455h-2.267v.455h.886v2.339h.496v-2.339z"/></svg>