<?xml version="1.0" encoding="UTF-8" standalone="no"?>
<!DOCTYPE svg PUBLIC "-//W3C//DTD SVG 1.1//EN" "http://www.w3.org/Graphics/SVG/1.1/DTD/svg11.dtd">
<svg width="100%" height="100%" viewBox="0 0 1060 200" version="1.1" xmlns="http://www.w3.org/2000/svg" xmlns:xlink="http://www.w3.org/1999/xlink" xml:space="preserve" xmlns:serif="http://www.serif.com/" style="fill-rule:evenodd;clip-rule:evenodd;stroke-linejoin:round;stroke-miterlimit:2;">
    <g transform="matrix(1,0,0,1.00021,-22.8219,220.292)">
        <g id="Background-Shapes" serif:id="Background Shapes">
            <g transform="matrix(0.574257,-0.574257,0.574257,0.574257,-347.254,-50.7175)">
                <path d="M439.086,205.366L500.579,205.366L500.644,205.431L500.644,266.924L439.086,266.924L439.086,205.366Z" style="fill:rgb(237,92,92);"/>
            </g>
            <g transform="matrix(0.574257,-0.574257,0.574257,0.574257,-311.899,-86.0622)">
                <rect x="439.086" y="266.915" width="0.009" height="0.009" style="fill:rgb(252,121,121);"/>
            </g>
            <g transform="matrix(0.574257,-0.574257,0.574257,0.574257,-311.899,-86.0622)">
                <path d="M439.096,205.431L500.579,266.915L439.096,266.915L439.096,205.431Z" style="fill:rgb(252,121,121);"/>
            </g>
            <g transform="matrix(0.574257,-0.574257,0.574257,0.574257,-347.254,19.9931)">
                <path d="M439.086,266.915L439.086,266.924L500.644,266.924L500.644,205.366L500.654,205.366L500.654,205.357L439.096,205.357L439.096,266.915L439.086,266.915Z" style="fill:rgb(237,92,92);"/>
            </g>
            <g transform="matrix(0.574257,-0.574257,0.574257,0.574257,-311.899,-15.3515)">
                <rect x="439.096" y="205.357" width="61.558" height="61.567" style="fill:rgb(242,101,101);"/>
            </g>
            <g transform="matrix(0.574257,-0.574257,0.574257,0.574257,-382.609,55.3378)">
                <path d="M500.644,205.366L439.086,266.924L500.644,266.924L500.644,205.366Z" style="fill:rgb(242,101,101);"/>
            </g>
            <g transform="matrix(0.574257,-0.574257,0.574257,0.574257,-276.543,-50.7175)">
                <path d="M439.086,205.366L439.086,266.924L500.644,266.924L500.644,205.431L500.579,205.366L439.086,205.366Z" style="fill:rgb(237,92,92);"/>
            </g>
            <g transform="matrix(0.574257,-0.574257,0.574257,0.574257,-241.188,-86.0622)">
                <path d="M439.096,205.431L500.589,266.924L439.086,266.924L439.086,266.915L439.096,266.915L439.096,205.431Z" style="fill:rgb(237,92,92);"/>
            </g>
            <g transform="matrix(0.574257,-0.574257,0.574257,0.574257,-311.899,55.3485)">
                <rect x="439.086" y="205.357" width="61.558" height="61.567" style="fill:rgb(237,92,92);"/>
            </g>
            <g transform="matrix(0.574257,-0.574257,0.574257,0.574257,-311.899,55.3485)">
                <rect x="500.644" y="205.357" width="0.009" height="0.009" style="fill:rgb(237,92,92);"/>
            </g>
            <g transform="matrix(0.574257,-0.574257,0.574257,0.574257,-276.543,20.0038)">
                <path d="M439.086,266.915L439.086,266.924L500.654,266.924L500.654,205.357L439.096,205.357L439.096,266.915L439.086,266.915Z" style="fill:rgb(242,101,101);"/>
            </g>
            <g transform="matrix(0.574257,-0.574257,0.574257,0.574257,-241.188,-15.3515)">
                <rect x="439.086" y="205.357" width="61.567" height="61.567" style="fill:rgb(233,84,84);"/>
            </g>
            <g transform="matrix(0.574257,-0.574257,0.574257,0.574257,-205.833,-50.7069)">
                <path d="M439.086,266.924L439.086,205.357L500.589,205.357L500.654,205.422L500.654,266.924L439.086,266.924Z" style="fill:rgb(234,85,85);"/>
            </g>
            <g transform="matrix(0.574257,-0.574257,0.574257,0.574257,-170.477,-86.0622)">
                <path d="M439.086,205.422L500.589,266.924L439.086,266.924L439.086,205.422Z" style="fill:rgb(237,92,92);"/>
            </g>
            <g transform="matrix(0.574257,-0.574257,0.574257,0.574257,-241.188,55.3592)">
                <rect x="439.086" y="205.357" width="61.567" height="61.567" style="fill:rgb(237,92,92);"/>
            </g>
            <g transform="matrix(0.574257,-0.574257,0.574257,0.574257,-205.833,20.0038)">
                <rect x="439.086" y="205.357" width="61.567" height="61.567" style="fill:rgb(237,92,92);"/>
            </g>
            <g transform="matrix(0.574257,-0.574257,0.574257,0.574257,-170.477,-15.3515)">
                <rect x="439.086" y="205.357" width="61.567" height="61.567" style="fill:rgb(242,101,101);"/>
            </g>
            <g transform="matrix(0.574257,-0.574257,0.574257,0.574257,-135.122,-50.7069)">
                <path d="M439.086,205.357L500.589,205.357L500.654,205.422L500.654,266.924L439.086,266.924L439.086,205.357Z" style="fill:rgb(237,92,92);"/>
            </g>
            <g transform="matrix(0.574257,-0.574257,0.574257,0.574257,-99.7667,-86.0622)">
                <path d="M439.086,205.422L500.589,266.924L439.086,266.924L439.086,205.422Z" style="fill:rgb(237,92,92);"/>
            </g>
            <g transform="matrix(0.574257,-0.574257,0.574257,0.574257,-170.477,55.3592)">
                <rect x="439.086" y="205.357" width="61.567" height="61.567" style="fill:rgb(237,92,92);"/>
            </g>
            <g transform="matrix(0.574257,-0.574257,0.574257,0.574257,-135.122,20.0038)">
                <rect x="439.086" y="205.357" width="61.567" height="61.567" style="fill:rgb(237,92,92);"/>
            </g>
            <g transform="matrix(0.574257,-0.574257,0.574257,0.574257,-99.7667,-15.3515)">
                <rect x="439.086" y="205.357" width="61.567" height="61.567" style="fill:rgb(233,84,84);"/>
            </g>
            <g transform="matrix(0.574257,-0.574257,0.574257,0.574257,-64.4114,-50.7069)">
                <path d="M439.086,205.357L500.589,205.357L500.654,205.422L500.654,266.924L439.086,266.924L439.086,205.357Z" style="fill:rgb(237,92,92);"/>
            </g>
            <g transform="matrix(0.574257,-0.574257,0.574257,0.574257,-382.609,-15.3622)">
                <path d="M500.654,205.366L500.644,205.366L439.096,266.915L439.096,266.924L500.654,266.924L500.654,205.366Z" style="fill:rgb(237,92,92);"/>
            </g>
            <g transform="matrix(0.574257,-0.574257,0.574257,0.574257,-382.609,-15.3622)">
                <path d="M439.096,266.915L439.086,266.924L439.096,266.924L439.096,266.915Z" style="fill:rgb(237,92,92);"/>
            </g>
            <g transform="matrix(0.574257,-0.574257,0.574257,0.574257,678.046,-15.3175)">
                <path d="M439.086,266.899L439.086,266.915L439.096,266.915L439.096,266.924L439.123,266.924L500.654,205.394L500.654,205.366L500.644,205.366L500.644,205.357L439.12,205.357L439.12,266.899L439.086,266.899Z" style="fill:rgb(237,92,92);"/>
            </g>
            <g transform="matrix(0.574257,-0.574257,0.574257,0.574257,-29.056,-86.0622)">
                <path d="M439.086,205.422L500.589,266.924L439.086,266.924L439.086,205.422Z" style="fill:rgb(242,101,101);"/>
            </g>
            <g transform="matrix(0.574257,-0.574257,0.574257,0.574257,-99.7667,55.3592)">
                <rect x="439.086" y="205.357" width="61.567" height="61.567" style="fill:rgb(237,92,92);"/>
            </g>
            <g transform="matrix(0.574257,-0.574257,0.574257,0.574257,-64.4114,20.0038)">
                <rect x="439.086" y="205.357" width="61.567" height="61.567" style="fill:rgb(237,92,92);"/>
            </g>
            <g transform="matrix(0.574257,-0.574257,0.574257,0.574257,-29.056,-15.3515)">
                <rect x="439.086" y="205.357" width="61.567" height="61.567" style="fill:rgb(237,92,92);"/>
            </g>
            <g transform="matrix(0.574257,-0.574257,0.574257,0.574257,6.29929,-50.7069)">
                <path d="M439.086,205.357L500.589,205.357L500.654,205.422L500.654,266.924L439.086,266.924L439.086,205.357Z" style="fill:rgb(233,84,84);"/>
            </g>
            <g transform="matrix(0.574257,-0.574257,0.574257,0.574257,41.6546,-86.0622)">
                <path d="M439.086,205.422L500.589,266.924L439.086,266.924L439.086,205.422Z" style="fill:rgb(237,92,92);"/>
            </g>
            <g transform="matrix(0.574257,-0.574257,0.574257,0.574257,-29.056,55.3592)">
                <rect x="439.086" y="205.357" width="61.567" height="61.567" style="fill:rgb(237,92,92);"/>
            </g>
            <g transform="matrix(0.574257,-0.574257,0.574257,0.574257,6.29929,20.0038)">
                <rect x="439.086" y="205.357" width="61.567" height="61.567" style="fill:rgb(237,92,92);"/>
            </g>
            <g transform="matrix(0.574257,-0.574257,0.574257,0.574257,41.6546,-15.3515)">
                <rect x="439.086" y="205.357" width="61.567" height="61.567" style="fill:rgb(237,92,92);"/>
            </g>
            <g transform="matrix(0.574257,-0.574257,0.574257,0.574257,77.01,-50.7069)">
                <path d="M439.086,205.357L500.589,205.357L500.654,205.422L500.654,266.924L439.086,266.924L439.086,205.357Z" style="fill:rgb(234,85,85);"/>
            </g>
            <g transform="matrix(0.574257,-0.574257,0.574257,0.574257,112.365,-86.0622)">
                <path d="M439.086,205.422L500.589,266.924L439.086,266.924L439.086,205.422Z" style="fill:rgb(237,92,92);"/>
            </g>
            <g transform="matrix(0.574257,-0.574257,0.574257,0.574257,41.6546,55.3592)">
                <rect x="439.086" y="205.357" width="61.567" height="61.567" style="fill:rgb(237,92,92);"/>
            </g>
            <g transform="matrix(0.574257,-0.574257,0.574257,0.574257,77.01,20.0038)">
                <rect x="439.086" y="205.357" width="61.567" height="61.567" style="fill:rgb(237,92,92);"/>
            </g>
            <g transform="matrix(0.574257,-0.574257,0.574257,0.574257,112.365,-15.3515)">
                <rect x="439.086" y="205.357" width="61.567" height="61.567" style="fill:rgb(237,92,92);"/>
            </g>
            <g transform="matrix(0.574257,-0.574257,0.574257,0.574257,147.721,-50.7069)">
                <path d="M439.086,205.357L500.589,205.357L500.654,205.422L500.654,266.924L439.086,266.924L439.086,205.357Z" style="fill:rgb(233,84,84);"/>
            </g>
            <g transform="matrix(0.574257,-0.574257,0.574257,0.574257,183.076,-86.0622)">
                <path d="M439.086,205.422L500.589,266.924L439.086,266.924L439.086,205.422Z" style="fill:rgb(237,92,92);"/>
            </g>
            <g transform="matrix(0.574257,-0.574257,0.574257,0.574257,112.365,55.3592)">
                <rect x="439.086" y="205.357" width="61.567" height="61.567" style="fill:rgb(237,92,92);"/>
            </g>
            <g transform="matrix(0.574257,-0.574257,0.574257,0.574257,147.721,20.0038)">
                <rect x="439.086" y="205.357" width="61.567" height="61.567" style="fill:rgb(237,92,92);"/>
            </g>
            <g transform="matrix(0.574257,-0.574257,0.574257,0.574257,183.076,-15.3515)">
                <rect x="439.086" y="205.357" width="61.567" height="61.567" style="fill:rgb(242,101,101);"/>
            </g>
            <g transform="matrix(0.574257,-0.574257,0.574257,0.574257,218.431,-50.7069)">
                <path d="M439.086,205.357L500.589,205.357L500.654,205.422L500.654,266.924L439.086,266.924L439.086,205.357Z" style="fill:rgb(237,92,92);"/>
            </g>
            <g transform="matrix(0.574257,-0.574257,0.574257,0.574257,253.787,-86.0622)">
                <path d="M439.086,205.422L500.589,266.924L439.086,266.924L439.086,205.422Z" style="fill:rgb(234,85,85);"/>
            </g>
            <g transform="matrix(0.574257,-0.574257,0.574257,0.574257,183.076,55.3592)">
                <rect x="439.086" y="205.357" width="61.567" height="61.567" style="fill:rgb(237,92,92);"/>
            </g>
            <g transform="matrix(0.574257,-0.574257,0.574257,0.574257,218.431,20.0038)">
                <rect x="439.086" y="205.357" width="61.567" height="61.567" style="fill:rgb(233,84,84);"/>
            </g>
            <g transform="matrix(0.574257,-0.574257,0.574257,0.574257,253.787,-15.3515)">
                <rect x="439.086" y="205.357" width="61.567" height="61.567" style="fill:rgb(237,92,92);"/>
            </g>
            <g transform="matrix(0.574257,-0.574257,0.574257,0.574257,289.142,-50.7069)">
                <path d="M439.086,205.357L500.589,205.357L500.654,205.422L500.654,266.924L439.086,266.924L439.086,205.357Z" style="fill:rgb(233,84,84);"/>
            </g>
            <g transform="matrix(0.574257,-0.574257,0.574257,0.574257,324.497,-86.0622)">
                <path d="M439.086,205.422L500.589,266.924L439.086,266.924L439.086,205.422Z" style="fill:rgb(242,101,101);"/>
            </g>
            <g transform="matrix(0.574257,-0.574257,0.574257,0.574257,253.787,55.3592)">
                <rect x="439.086" y="205.357" width="61.567" height="61.567" style="fill:rgb(237,92,92);"/>
            </g>
            <g transform="matrix(0.574257,-0.574257,0.574257,0.574257,289.142,20.0038)">
                <rect x="439.086" y="205.357" width="61.567" height="61.567" style="fill:rgb(233,84,84);"/>
            </g>
            <g transform="matrix(0.574257,-0.574257,0.574257,0.574257,324.497,-15.3515)">
                <rect x="439.086" y="205.357" width="61.567" height="61.567" style="fill:rgb(237,92,92);"/>
            </g>
            <g transform="matrix(0.574257,-0.574257,0.574257,0.574257,359.853,-50.7069)">
                <path d="M439.086,205.357L500.589,205.357L500.654,205.422L500.654,266.924L439.086,266.924L439.086,205.357Z" style="fill:rgb(252,121,121);"/>
            </g>
            <g transform="matrix(0.574257,-0.574257,0.574257,0.574257,324.497,55.3592)">
                <rect x="439.086" y="205.357" width="61.567" height="61.567" style="fill:rgb(237,92,92);"/>
            </g>
            <g transform="matrix(0.574257,-0.574257,0.574257,0.574257,359.853,20.0038)">
                <rect x="439.086" y="205.357" width="61.567" height="61.567" style="fill:rgb(237,92,92);"/>
            </g>
            <g transform="matrix(0.574257,-0.574257,0.574257,0.574257,395.208,-15.3515)">
                <rect x="439.086" y="205.357" width="61.567" height="61.567" style="fill:rgb(237,92,92);"/>
            </g>
            <g transform="matrix(0.574257,-0.574257,0.574257,0.574257,395.208,55.3592)">
                <rect x="439.086" y="205.357" width="61.567" height="61.567" style="fill:rgb(237,92,92);"/>
            </g>
            <g transform="matrix(0.574257,-0.574257,0.574257,0.574257,430.563,20.0038)">
                <rect x="439.086" y="205.357" width="61.567" height="61.567" style="fill:rgb(237,92,92);"/>
            </g>
            <g transform="matrix(0.574257,-0.574257,0.574257,0.574257,465.919,55.3592)">
                <rect x="439.086" y="205.357" width="61.567" height="61.567" style="fill:rgb(237,92,92);"/>
            </g>
            <g transform="matrix(0.574257,-0.574257,0.574257,0.574257,395.208,-86.0622)">
                <path d="M439.086,205.422L500.589,266.924L439.086,266.924L439.086,205.422Z" style="fill:rgb(237,92,92);"/>
            </g>
            <g transform="matrix(0.574257,-0.574257,0.574257,0.574257,430.563,-50.7069)">
                <path d="M439.086,205.357L500.589,205.357L500.654,205.422L500.654,266.924L439.086,266.924L439.086,205.357Z" style="fill:rgb(237,92,92);"/>
            </g>
            <g transform="matrix(0.574257,-0.574257,0.574257,0.574257,465.919,-86.0622)">
                <path d="M439.086,205.422L500.589,266.924L439.086,266.924L439.086,205.422Z" style="fill:rgb(237,92,92);"/>
            </g>
            <g transform="matrix(0.574257,-0.574257,0.574257,0.574257,465.919,-15.3515)">
                <rect x="439.086" y="205.357" width="61.567" height="61.567" style="fill:rgb(242,101,101);"/>
            </g>
            <g transform="matrix(0.574257,-0.574257,0.574257,0.574257,501.274,-50.7069)">
                <path d="M439.086,205.357L500.589,205.357L500.654,205.422L500.654,266.924L439.086,266.924L439.086,205.357Z" style="fill:rgb(237,92,92);"/>
            </g>
            <g transform="matrix(0.574257,-0.574257,0.574257,0.574257,536.629,-86.0622)">
                <path d="M439.086,205.422L500.589,266.924L439.086,266.924L439.086,205.422Z" style="fill:rgb(237,92,92);"/>
            </g>
            <g transform="matrix(0.574257,-0.574257,0.574257,0.574257,501.274,20.0038)">
                <rect x="439.086" y="205.357" width="61.567" height="61.567" style="fill:rgb(237,92,92);"/>
            </g>
            <g transform="matrix(0.574257,-0.574257,0.574257,0.574257,536.629,-15.3515)">
                <rect x="439.086" y="205.357" width="61.567" height="61.567" style="fill:rgb(237,92,92);"/>
            </g>
            <g transform="matrix(0.574257,-0.574257,0.574257,0.574257,571.985,-50.7069)">
                <path d="M500.654,205.422L500.589,205.357L439.086,205.357L439.086,266.924L500.654,266.924L500.654,205.422Z" style="fill:rgb(233,84,84);"/>
            </g>
            <g transform="matrix(0.574257,-0.574257,0.574257,0.574257,607.34,-86.0622)">
                <path d="M439.086,205.422L500.589,266.924L439.086,266.924L439.086,205.422Z" style="fill:rgb(237,92,92);"/>
            </g>
            <g transform="matrix(0.574257,-0.574257,0.574257,0.574257,536.629,55.3592)">
                <rect x="439.086" y="205.357" width="61.567" height="61.567" style="fill:rgb(237,92,92);"/>
            </g>
            <g transform="matrix(0.574257,-0.574257,0.574257,0.574257,571.985,20.0038)">
                <rect x="439.086" y="205.357" width="61.567" height="61.567" style="fill:rgb(237,92,92);"/>
            </g>
            <g transform="matrix(0.574257,-0.574257,0.574257,0.574257,607.34,-15.3515)">
                <rect x="439.086" y="205.357" width="61.567" height="61.567" style="fill:rgb(242,101,101);"/>
            </g>
            <g transform="matrix(0.574257,-0.574257,0.574257,0.574257,642.695,-50.7069)">
                <path d="M500.589,205.357L500.623,205.392L500.61,205.392L500.61,266.924L439.086,266.924L439.086,205.357L500.589,205.357Z" style="fill:rgb(237,92,92);"/>
            </g>
            <g transform="matrix(0.574257,-0.574257,0.574257,0.574257,607.34,55.3592)">
                <rect x="439.086" y="205.357" width="61.567" height="61.567" style="fill:rgb(237,92,92);"/>
            </g>
            <g transform="matrix(0.574257,-0.574257,0.574257,0.574257,642.695,20.0038)">
                <path d="M439.086,266.924L500.62,266.924L500.62,205.383L500.654,205.383L500.654,205.357L439.086,205.357L439.086,266.924Z" style="fill:rgb(242,101,101);"/>
            </g>
            <g transform="matrix(0.574257,-0.574257,0.574257,0.574257,-382.609,-86.0622)">
                <path d="M469.838,236.173L439.096,266.915L500.579,266.915L469.838,236.173Z" style="fill:rgb(252,121,121);"/>
            </g>
            <g transform="matrix(0.574257,-0.574257,0.574257,0.574257,678.046,-86.0175)">
                <path d="M469.895,236.153L439.13,205.387L439.13,266.89L439.086,266.89L439.086,266.915L439.096,266.915L439.096,266.924L439.123,266.924L469.895,236.153Z" style="fill:rgb(252,121,121);"/>
            </g>
            <g transform="matrix(0.574257,-0.574257,0.574257,0.574257,678.046,-86.0175)">
                <rect x="439.086" y="266.915" width="0.009" height="0.009" style="fill:rgb(252,121,121);"/>
            </g>
            <g transform="matrix(0.574257,-0.574257,0.574257,0.574257,678.046,55.3825)">
                <path d="M500.644,205.357L439.086,205.357L439.086,266.924L439.123,266.924L500.654,205.394L500.654,205.366L500.644,205.366L500.644,205.357Z" style="fill:rgb(242,101,101);"/>
            </g>
            <g transform="matrix(0.574257,-0.574257,0.574257,0.574257,678.046,55.3825)">
                <rect x="500.644" y="205.357" width="0.009" height="0.009" style="fill:rgb(242,101,101);"/>
            </g>
        </g>
    </g>
</svg>
