<svg id="Wort-_Bildmarke" data-name="Wort-/Bildmarke" xmlns="http://www.w3.org/2000/svg" viewBox="0 0 400.55 95.65"><defs><style>.cls-1{fill:#003460;}</style></defs><title>Zeichenfläche 1</title><path class="cls-1" d="M353.57,18.4h17.32a.8.8,0,0,1,.79.79v4.57a.8.8,0,0,1-.79.79H359.3v5.19h9.54a.79.79,0,0,1,.79.79v4.56a.8.8,0,0,1-.79.8H359.3v5.64h11.59a.8.8,0,0,1,.79.8v4.56a.79.79,0,0,1-.79.79H353.57a.79.79,0,0,1-.8-.79V19.19A.8.8,0,0,1,353.57,18.4Z"/><path class="cls-1" d="M335.81,18A16.12,16.12,0,0,1,346,22a.74.74,0,0,1,.09,1.13L342.8,26.6a.89.89,0,0,1-1.13,0,7.67,7.67,0,0,0-5.48-2,8.39,8.39,0,1,0,.63,16.77,9.59,9.59,0,0,0,3.13-.66V36.22h-2.63a.76.76,0,0,1-.8-.75V31.7a.79.79,0,0,1,.8-.79h8.41a.79.79,0,0,1,.79.79v13a.73.73,0,0,1-.33.67,21.15,21.15,0,0,1-10.38,2.72,15,15,0,1,1,0-30Z"/><g id="VERSICHERUNG"><path class="cls-1" d="M248.08,61.43a.48.48,0,0,1,.48-.47h7.18a5.44,5.44,0,0,1,5.47,5.39,5.54,5.54,0,0,1-3.72,5.07l3.44,6.38a.48.48,0,0,1-.42.73h-2.64a.44.44,0,0,1-.4-.23l-3.34-6.65h-2.78v6.4a.49.49,0,0,1-.48.48h-2.31a.49.49,0,0,1-.48-.48ZM255.46,69a2.59,2.59,0,0,0,2-4.06,2.24,2.24,0,0,0-1.7-.93h-4.43v5Z"/><path class="cls-1" d="M232.93,61h10.22a.48.48,0,0,1,.48.47v2.06a.49.49,0,0,1-.48.48h-7.43v4.11h6.2a.49.49,0,0,1,.48.48v2.08a.48.48,0,0,1-.48.48h-6.2v4.39h7.43a.49.49,0,0,1,.48.48v2.06a.49.49,0,0,1-.48.48H232.93a.48.48,0,0,1-.47-.48V61.43A.47.47,0,0,1,232.93,61Z"/><path class="cls-1" d="M213,61.43a.49.49,0,0,1,.48-.47h2.33a.47.47,0,0,1,.48.47v6.65h7.9V61.43a.47.47,0,0,1,.48-.47h2.31a.48.48,0,0,1,.47.47V78.05a.49.49,0,0,1-.47.48h-2.31a.48.48,0,0,1-.48-.48V71.12h-7.9v6.93a.48.48,0,0,1-.48.48h-2.33a.5.5,0,0,1-.48-.48Z"/><path class="cls-1" d="M203,60.7A8.52,8.52,0,0,1,209,63a.47.47,0,0,1,0,.7l-1.53,1.58a.41.41,0,0,1-.63,0A5.92,5.92,0,0,0,203,63.84a5.83,5.83,0,0,0,0,11.65,6,6,0,0,0,3.84-1.43.46.46,0,0,1,.63,0l1.56,1.6a.48.48,0,0,1,0,.68,8.62,8.62,0,0,1-6.1,2.44,9,9,0,1,1,0-18.08Z"/><path class="cls-1" d="M186.8,61.43a.48.48,0,0,1,.48-.47h2.34a.47.47,0,0,1,.47.47V78.05a.48.48,0,0,1-.47.48h-2.34a.49.49,0,0,1-.48-.48Z"/><path class="cls-1" d="M171.41,76.82c-.25-.2-.35-.35-.12-.75l.9-1.56a.58.58,0,0,1,.85-.18,6.06,6.06,0,0,0,3.79,1.56A2.1,2.1,0,0,0,179.12,74c0-1.28-1.08-2.16-3.19-3-2.36-1-4.72-2.46-4.72-5.43,0-2.23,1.66-4.82,5.65-4.82a8.79,8.79,0,0,1,5,1.69.62.62,0,0,1,.15.82l-1,1.44a.65.65,0,0,1-.87.3,6.46,6.46,0,0,0-3.49-1.38c-1.43,0-2.21.8-2.21,1.75,0,1.18.93,2,3,2.81,2.43,1,5.25,2.44,5.25,5.68,0,2.58-2.24,5-5.78,5A7.86,7.86,0,0,1,171.41,76.82Z"/><path class="cls-1" d="M154.48,61.43A.47.47,0,0,1,155,61h7.18a5.44,5.44,0,0,1,5.47,5.39,5.54,5.54,0,0,1-3.72,5.07l3.44,6.38a.48.48,0,0,1-.42.73h-2.64a.43.43,0,0,1-.4-.23l-3.34-6.65h-2.79v6.4a.48.48,0,0,1-.47.48H155a.48.48,0,0,1-.48-.48ZM161.86,69a2.59,2.59,0,0,0,2-4.06,2.24,2.24,0,0,0-1.7-.93h-4.43v5Z"/><path class="cls-1" d="M139.3,61h10.22a.48.48,0,0,1,.48.47v2.06a.49.49,0,0,1-.48.48h-7.43v4.11h6.2a.49.49,0,0,1,.48.48v2.08a.48.48,0,0,1-.48.48h-6.2v4.39h7.43A.49.49,0,0,1,150,76v2.06a.49.49,0,0,1-.48.48H139.3a.48.48,0,0,1-.47-.48V61.43A.47.47,0,0,1,139.3,61Z"/><path class="cls-1" d="M118.68,61.61a.44.44,0,0,1,.43-.65h2.56a.47.47,0,0,1,.43.27L126.94,72h.13l4.84-10.79a.47.47,0,0,1,.43-.27h2.56a.44.44,0,0,1,.42.65L127.54,78.5a.45.45,0,0,1-.42.28h-.25a.45.45,0,0,1-.43-.28Z"/></g><g id="NÜRNBERGER"><path class="cls-1" d="M377.83,19.19a.79.79,0,0,1,.79-.79h12.51a8.92,8.92,0,0,1,9.12,9c0,3.84-2.3,6.94-6.19,8.4l5.73,10.63a.79.79,0,0,1-.71,1.21h-5.56a.77.77,0,0,1-.67-.37l-5.57-11.09H384.4V46.89a.79.79,0,0,1-.8.79h-5a.79.79,0,0,1-.79-.79Zm12.76,11.72a3.22,3.22,0,0,0,3.18-3.35,3.08,3.08,0,0,0-3.18-3.18H384.4v6.53Z"/><path class="cls-1" d="M294.72,19.19a.8.8,0,0,1,.8-.79H308a8.92,8.92,0,0,1,9.12,9c0,3.84-2.3,6.94-6.2,8.4l5.74,10.63a.79.79,0,0,1-.72,1.21h-5.56a.8.8,0,0,1-.67-.37l-5.56-11.09h-2.89V46.89a.79.79,0,0,1-.79.79h-5a.79.79,0,0,1-.8-.79Zm12.76,11.72a3.22,3.22,0,0,0,3.18-3.35,3.08,3.08,0,0,0-3.18-3.18h-6.19v6.53Z"/><path class="cls-1" d="M270.5,18.4h17.32a.8.8,0,0,1,.8.79v4.57a.8.8,0,0,1-.8.79H276.23v5.19h9.54a.79.79,0,0,1,.8.79v4.56a.8.8,0,0,1-.8.8h-9.54v5.64h11.59a.8.8,0,0,1,.8.8v4.56a.79.79,0,0,1-.8.79H270.5a.79.79,0,0,1-.79-.79V19.19A.79.79,0,0,1,270.5,18.4Z"/><path class="cls-1" d="M258.33,32.79c2.55.84,5.52,2.76,5.52,6.82,0,4.93-4.14,8.07-9.12,8.07H244.36a.79.79,0,0,1-.8-.79V19.19a.8.8,0,0,1,.8-.79h9.75c4.93,0,9,3.39,9,7.78a7.2,7.2,0,0,1-4.77,6.57Zm-4.77-2.51a2.82,2.82,0,0,0,2.72-3,2.68,2.68,0,0,0-2.72-2.85h-3.47v5.86Zm.09,11.42c2.09,0,3.26-1.05,3.26-3a2.89,2.89,0,0,0-3.18-3h-3.64v6Z"/><path class="cls-1" d="M212.07,18h.52a1.21,1.21,0,0,1,.83.33l16.34,15.74h.05V19.19a.79.79,0,0,1,.79-.79h5a.8.8,0,0,1,.8.79V47.31a.8.8,0,0,1-.8.79h-.51a1.19,1.19,0,0,1-.84-.35L217.88,31.28h0V46.85a.83.83,0,0,1-.83.83h-4.94a.84.84,0,0,1-.84-.83v-28A.85.85,0,0,1,212.07,18Z"/><path class="cls-1" d="M182.6,19.19a.79.79,0,0,1,.79-.79H195.9a8.92,8.92,0,0,1,9.12,9c0,3.84-2.3,6.94-6.19,8.4l5.73,10.63a.79.79,0,0,1-.71,1.21h-5.57a.8.8,0,0,1-.67-.37l-5.56-11.09h-2.89V46.89a.79.79,0,0,1-.79.79h-5a.79.79,0,0,1-.79-.79Zm12.76,11.72a3.21,3.21,0,0,0,3.17-3.35,3.07,3.07,0,0,0-3.17-3.18h-6.2v6.53Z"/><path class="cls-1" d="M119.65,18h.53a1.18,1.18,0,0,1,.82.33l16.35,15.74h0V19.19a.8.8,0,0,1,.8-.79h5a.79.79,0,0,1,.79.79V47.31a.79.79,0,0,1-.79.79h-.52a1.22,1.22,0,0,1-.84-.35L125.47,31.28h0V46.85a.84.84,0,0,1-.84.83h-4.94a.83.83,0,0,1-.83-.83v-28A.84.84,0,0,1,119.65,18Z"/></g><rect class="cls-1" x="160.48" y="16.32" width="5.63" height="5.12" rx="0.76" ry="0.76"/><path class="cls-1" d="M174.76,18.41h-5.15a.8.8,0,0,0-.8.8V36.35c0,3.06-1.75,5.09-5.51,5.09s-5.51-2-5.51-5.09V19.21a.8.8,0,0,0-.8-.8h-5.15a.79.79,0,0,0-.79.8V36.68c0,6.37,4.89,11.46,12.25,11.46s12.25-5.09,12.25-11.46V19.21A.79.79,0,0,0,174.76,18.41Z"/><path class="cls-1" d="M311.3,60.69A9.53,9.53,0,0,1,317.43,63a.5.5,0,0,1,0,.71l-1.55,1.63a.44.44,0,0,1-.66,0,5.67,5.67,0,0,0-3.79-1.46,5.79,5.79,0,0,0,0,11.58,7.83,7.83,0,0,0,3-.63V71.64h-2a.45.45,0,0,1-.47-.46V69.43a.47.47,0,0,1,.47-.48h4.8a.48.48,0,0,1,.48.48v7.28a.41.41,0,0,1-.2.4,12.72,12.72,0,0,1-6.23,1.63,9,9,0,0,1,0-18Z"/><path class="cls-1" d="M284.34,60.69h.32a.7.7,0,0,1,.52.23l10.2,10.87h.05V61.42a.48.48,0,0,1,.48-.48h2.31a.48.48,0,0,1,.48.48V78.29a.47.47,0,0,1-.48.48h-.3a.76.76,0,0,1-.53-.23l-10.24-11.3h0V78a.48.48,0,0,1-.48.48h-2.29a.48.48,0,0,1-.47-.48V61.17A.47.47,0,0,1,284.34,60.69Z"/><path class="cls-1" d="M278.77,60.94h-2.38a.48.48,0,0,0-.48.48V71.79a3.75,3.75,0,0,1-7.5,0V61.42a.48.48,0,0,0-.48-.48h-2.38a.5.5,0,0,0-.48.48V72a7.1,7.1,0,0,0,14.18,0V61.42A.5.5,0,0,0,278.77,60.94Z"/><path class="cls-1" d="M49.76,40.58H24.26a.29.29,0,0,0-.29.3v1.95a.59.59,0,0,0,0,.23l2.28,5.47a.64.64,0,0,1,.05.23V64a.3.3,0,0,0,.29.3H47.39a.3.3,0,0,0,.29-.3V48.76a.64.64,0,0,1,0-.23L50,43.06a.59.59,0,0,0,0-.23V40.88A.29.29,0,0,0,49.76,40.58Z"/><path class="cls-1" d="M73.55,55.32a.3.3,0,0,0-.26-.43H52.9a.3.3,0,0,0-.26.43l.91,1.82a.66.66,0,0,1,.06.27V67.47a.32.32,0,0,0,.11.24l7.44,5.94a.54.54,0,0,0,.37.13H72.27a.29.29,0,0,0,.29-.29l0-16.08a.54.54,0,0,1,.07-.27Z"/><path class="cls-1" d="M47.68.26A47.44,47.44,0,1,0,95.11,47.7,47.44,47.44,0,0,0,47.68.26ZM77.16,78.53H59.75a.59.59,0,0,1-.37-.13L47.84,69.17a.59.59,0,0,0-.37-.13H10.75a42.68,42.68,0,1,1,66.41,9.49Z"/><path class="cls-1" d="M43.53,22.4h-13a.3.3,0,0,1-.24-.48l6.52-8.69a.3.3,0,0,1,.48,0l6.52,8.69A.3.3,0,0,1,43.53,22.4Z"/><path class="cls-1" d="M51.71,36.11H22.31a.29.29,0,0,1-.21-.5L31,26.72a.29.29,0,0,1,.21-.09H42.82a.3.3,0,0,1,.21.09l8.89,8.89A.29.29,0,0,1,51.71,36.11Z"/><path class="cls-1" d="M71.67,45.63a.3.3,0,0,0-.55,0L69.29,50a.29.29,0,0,1-.54,0L63.37,37.09a.3.3,0,0,0-.55,0L57.44,50a.3.3,0,0,1-.55,0l-1.82-4.38a.3.3,0,0,0-.55,0l-1.93,4.62a.29.29,0,0,0,.27.41H73.32a.29.29,0,0,0,.27-.41Z"/></svg>