<svg xmlns="http://www.w3.org/2000/svg" viewBox="0 0 623.62 255.12"><defs><style>.cls-1{fill:#fff;}.cls-2{fill:#010101;}.cls-3{fill:#f9de40;}.cls-4{fill:#050507;}</style></defs><title>dotjs</title><g id="BG"><rect class="cls-1" width="623.62" height="255.12"/></g><g id="Logo"><path class="cls-2" d="M178.14,255.12l0-.5.69.5Z"/><path class="cls-2" d="M200,255.12l.69-.5,0,.5Z"/><path class="cls-3" d="M168.31,13.39c6.67,1.32,13.51,2.12,20,4,47.4,14.06,77,44.26,85.75,91.39,7.06,38-4.64,71.42-32.52,99C222.09,227.1,198,238.21,170.11,241c-37.6,3.77-70.29-7-97.3-32.3C52.81,190,41.17,166.91,38.33,140,34.55,104.1,45.83,73,71.93,47.24c19.37-19.09,43.3-30.08,71-33.15a11.68,11.68,0,0,0,2.21-.7Zm-48,101.37c-9.9-7.74-20.25-7.62-28.27-.13-7.73,7.22-8.69,21.3-1.26,29.38A24.53,24.53,0,0,0,102,150.74a17.85,17.85,0,0,0,18.17-5.27l.28,5h9.12c0-9.72,0-19.12,0-28.52s0-18.72,0-28.14h-9.27v21Zm40.93,36.43c13.17,0,22.58-9,22.49-21.31-.09-12.18-9.74-21-22.93-20.95-12.53.05-22.34,9.5-22.21,21.39S148.47,151.22,161.26,151.19Zm41.67-41.41V96.93h-9V109.5l-5.21.39v6.68l5.27.36c0,7-.05,13.87,0,20.73a13,13,0,0,0,8.8,12.24,14.35,14.35,0,0,0,15.45-3.79l-3.58-5.7c-1.2.73-2.06,1.36-3,1.81-3.76,1.79-8.14,0-8.37-4-.41-7.07-.11-14.19-.11-21.66h11v-6.76Z"/><path class="cls-4" d="M586,180.46c-1.59,4.51-2.78,9.21-4.85,13.51C573,210.88,558.3,220.36,540,224c-38.59,7.64-72.43-2.58-102.21-27.33l19.77-22.87c9.88,5.71,19,11.93,28.94,16.5,14.28,6.57,29.55,8.95,45.31,5.31,12.79-2.95,20.38-11.33,20.27-22.16-.08-7.86-3.64-14.28-11-17.23a298.93,298.93,0,0,0-32.53-10.68c-14.91-4.07-30-7.46-43.07-16-16.27-10.67-20.82-26.07-19.73-43.87,1.83-29.8,28.1-45.39,49.62-48.36C526.15,33,554.25,39.57,580,56a11.62,11.62,0,0,1,1.16,1L563.75,80.89C554.63,76.8,546,72.17,536.82,69c-12.71-4.38-26-5.89-39.29-2.23-8.89,2.46-15.81,7.58-17.46,17.05s2.19,17.65,11.45,21.48a232.76,232.76,0,0,0,29.86,9.82c15.37,4,30.7,7.93,44.2,16.53,11.16,7.1,18,16.79,19.7,29.71,0,.29.47.54.72.8Z"/><path class="cls-4" d="M293.06,203l18.34-24.49c3,2.35,5.76,4.66,8.68,6.77,8.4,6.08,17.57,10.32,28.36,10.27,15.64-.08,28.13-11.29,29.11-26.31.43-6.6.53-13.23.54-19.85.06-25.32,0-50.65,0-76,0-1.44,0-2.88,0-4.72H317.48v-28h92.91c.07.88.21,1.89.21,2.9,0,40.44.11,80.88-.05,121.32-.05,12.83-2.49,25.32-9.83,36.33-10.15,15.25-25.31,22.85-43.66,24.31-23.63,1.88-44.54-4.62-62-20.49C294.41,204.48,293.8,203.78,293.06,203Z"/><path class="cls-4" d="M120.33,114.76v-21h9.27c0,9.41,0,18.77,0,28.14s0,18.8,0,28.52h-9.12l-.28-5A17.85,17.85,0,0,1,102,150.74,24.53,24.53,0,0,1,90.8,144c-7.44-8.07-6.48-22.16,1.26-29.38C100.08,107.13,110.43,107,120.33,114.76Zm.07,15.71c0-7.8-5.19-13.64-12.24-13.7-7.31-.06-12.93,5.85-12.92,13.6a12.6,12.6,0,0,0,13,13C115.23,143.27,120.37,137.82,120.4,130.46Z"/><path class="cls-4" d="M161.26,151.19c-12.79,0-22.52-8.93-22.66-20.87s9.68-21.34,22.21-21.39c13.19-.05,22.84,8.76,22.93,20.95C183.84,142.23,174.42,151.15,161.26,151.19Zm.15-8c7.82,0,13-5.39,13-13.29a13.18,13.18,0,1,0-26.36.33C148.16,138.07,153.53,143.26,161.41,143.22Z"/><path class="cls-4" d="M202.93,109.78h11.2v6.76h-11c0,7.47-.29,14.58.11,21.66.23,4,4.61,5.82,8.37,4,.95-.45,1.81-1.08,3-1.81l3.58,5.7a14.35,14.35,0,0,1-15.45,3.79,13,13,0,0,1-8.8-12.24c-.07-6.86,0-13.72,0-20.73l-5.27-.36v-6.68l5.21-.39V96.93h9Z"/><path class="cls-3" d="M120.4,130.46c0,7.36-5.17,12.81-12.14,12.87a12.6,12.6,0,0,1-13-13c0-7.75,5.6-13.66,12.92-13.6C115.21,116.82,120.44,122.67,120.4,130.46Z"/><path class="cls-3" d="M161.41,143.22c-7.88,0-13.24-5.15-13.39-13a13.18,13.18,0,1,1,26.36-.33C174.44,137.83,169.23,143.17,161.41,143.22Z"/></g></svg>