<?xml version="1.0" encoding="UTF-8" standalone="no"?>
<svg
   xmlns:dc="http://purl.org/dc/elements/1.1/"
   xmlns:cc="http://creativecommons.org/ns#"
   xmlns:rdf="http://www.w3.org/1999/02/22-rdf-syntax-ns#"
   xmlns:svg="http://www.w3.org/2000/svg"
   xmlns="http://www.w3.org/2000/svg"
   viewBox="0 0 1322.84 1322.84"
   height="1322.84"
   width="1322.84"
   xml:space="preserve"
   id="svg2"
   version="1.1"><metadata
     id="metadata8"><rdf:RDF><cc:Work
         rdf:about=""><dc:format>image/svg+xml</dc:format><dc:type
           rdf:resource="http://purl.org/dc/dcmitype/StillImage" /></cc:Work></rdf:RDF></metadata><defs
     id="defs6"><clipPath
       id="clipPath24"
       clipPathUnits="userSpaceOnUse"><path
         id="path22"
         d="M 0,992.13 H 992.13 V 0 H 0 Z" /></clipPath></defs><g
     transform="matrix(1.3333333,0,0,-1.3333333,0,1322.84)"
     id="g10"><path
       id="path12"
       style="fill:#76b82a;fill-opacity:1;fill-rule:nonzero;stroke:none"
       d="m 28.802,969.597 h 940.35 V 29.247 H 28.802 Z" /><g
       transform="translate(501.0028,969.4343)"
       id="g14"><path
         id="path16"
         style="fill:#24272a;fill-opacity:1;fill-rule:nonzero;stroke:none"
         d="M 0,0 V -429.994 H 88.871 L 99.387,-940.039 H 467.986 V -429.994 -416.27 0 Z" /></g><g
       id="g18"><g
         clip-path="url(#clipPath24)"
         id="g20"><g
           transform="translate(130.8769,128.9582)"
           id="g26"><path
             id="path28"
             style="fill:#fffffc;fill-opacity:1;fill-rule:nonzero;stroke:none"
             d="m 0,0 c 0.141,9.033 -2.117,16.454 -6.774,22.261 -4.661,5.807 -11.077,8.709 -19.249,8.709 -4.591,0 -8.64,-0.896 -12.152,-2.688 -3.514,-1.794 -6.488,-4.122 -8.925,-6.989 -2.44,-2.871 -4.339,-6.167 -5.7,-9.893 C -54.164,7.668 -55.057,3.872 -55.487,0 Z m -76.779,-10.968 c 0,9.893 1.432,18.529 4.301,25.916 2.866,7.382 6.667,13.513 11.398,18.388 4.732,4.873 10.18,8.529 16.345,10.969 6.164,2.435 12.475,3.655 18.926,3.655 15.055,0 26.595,-4.697 34.627,-14.085 8.028,-9.393 12.044,-23.695 12.044,-42.906 v -3.334 c 0,-1.365 -0.075,-2.618 -0.216,-3.765 h -76.564 c 0.861,-11.614 4.228,-20.43 10.109,-26.452 5.877,-6.021 15.055,-9.033 27.528,-9.033 7.023,0 12.938,0.607 17.744,1.827 4.801,1.218 8.421,2.4 10.86,3.548 l 2.796,-16.775 c -2.44,-1.289 -6.704,-2.654 -12.796,-4.086 -6.097,-1.43 -13.012,-2.15 -20.755,-2.15 -9.752,0 -18.173,1.473 -25.27,4.408 -7.098,2.939 -12.941,6.989 -17.528,12.153 -4.591,5.161 -7.995,11.29 -10.216,18.389 -2.224,7.096 -3.333,14.871 -3.333,23.333" /></g><g
           transform="translate(180.5551,170.8966)"
           id="g30"><path
             id="path32"
             style="fill:#fffffc;fill-opacity:1;fill-rule:nonzero;stroke:none"
             d="m 0,0 c 4.587,1.146 10.679,2.366 18.28,3.658 7.599,1.289 16.345,1.935 26.239,1.935 8.888,0 16.272,-1.258 22.152,-3.765 5.878,-2.509 10.572,-6.022 14.087,-10.537 3.512,-4.516 5.984,-9.93 7.42,-16.237 1.431,-6.312 2.15,-13.266 2.15,-20.862 v -62.801 H 70.327 v 58.5 c 0,6.881 -0.467,12.758 -1.398,17.635 -0.934,4.871 -2.473,8.817 -4.624,11.829 -2.15,3.009 -5.02,5.195 -8.602,6.56 -3.586,1.36 -8.032,2.042 -13.334,2.042 -2.151,0 -4.376,-0.074 -6.668,-0.215 -2.295,-0.145 -4.483,-0.324 -6.56,-0.538 -2.08,-0.215 -3.944,-0.467 -5.591,-0.753 -1.65,-0.288 -2.833,-0.503 -3.548,-0.646 v -94.414 H 0 Z" /></g><g
           transform="translate(322.7134,174.123)"
           id="g34"><path
             id="path36"
             style="fill:#fffffc;fill-opacity:1;fill-rule:nonzero;stroke:none"
             d="M 0,0 H 42.367 V -16.775 H 0 v -51.616 c 0,-5.592 0.43,-10.215 1.29,-13.873 0.861,-3.655 2.151,-6.526 3.871,-8.602 1.721,-2.08 3.871,-3.548 6.452,-4.408 2.581,-0.86 5.591,-1.292 9.033,-1.292 6.022,0 10.861,0.68 14.517,2.045 3.656,1.36 6.2,2.328 7.635,2.902 l 3.872,-16.561 c -2.01,-1.003 -5.523,-2.256 -10.539,-3.762 -5.02,-1.506 -10.753,-2.259 -17.205,-2.259 -7.602,0 -13.872,0.967 -18.819,2.904 -4.947,1.935 -8.925,4.838 -11.937,8.71 -3.01,3.872 -5.127,8.636 -6.344,14.302 -1.22,5.662 -1.828,12.222 -1.828,19.678 V 31.185 L 0,34.625 Z" /></g><g
           transform="translate(458.8502,128.9582)"
           id="g38"><path
             id="path40"
             style="fill:#fffffc;fill-opacity:1;fill-rule:nonzero;stroke:none"
             d="m 0,0 c 0.141,9.033 -2.117,16.454 -6.775,22.261 -4.66,5.807 -11.076,8.709 -19.248,8.709 -4.591,0 -8.64,-0.896 -12.152,-2.688 -3.514,-1.794 -6.488,-4.122 -8.925,-6.989 -2.44,-2.871 -4.339,-6.167 -5.7,-9.893 C -54.164,7.668 -55.057,3.872 -55.487,0 Z m -76.78,-10.968 c 0,9.893 1.433,18.529 4.302,25.916 2.866,7.382 6.667,13.513 11.398,18.388 4.732,4.873 10.18,8.529 16.345,10.969 6.164,2.435 12.475,3.655 18.926,3.655 15.055,0 26.595,-4.697 34.627,-14.085 8.028,-9.393 12.044,-23.695 12.044,-42.906 v -3.334 c 0,-1.365 -0.075,-2.618 -0.216,-3.765 h -76.564 c 0.861,-11.614 4.228,-20.43 10.109,-26.452 5.877,-6.021 15.055,-9.033 27.528,-9.033 7.023,0 12.938,0.607 17.744,1.827 4.801,1.218 8.421,2.4 10.86,3.548 l 2.796,-16.775 c -2.44,-1.289 -6.704,-2.654 -12.796,-4.086 -6.097,-1.43 -13.012,-2.15 -20.755,-2.15 -9.752,0 -18.173,1.473 -25.27,4.408 -7.098,2.939 -12.941,6.989 -17.528,12.153 -4.591,5.161 -7.995,11.29 -10.216,18.389 -2.224,7.096 -3.334,14.871 -3.334,23.333" /></g><g
           transform="translate(549.821,176.4892)"
           id="g42"><path
             id="path44"
             style="fill:#fffffc;fill-opacity:1;fill-rule:nonzero;stroke:none"
             d="m 0,0 c 1.72,0 3.691,-0.107 5.914,-0.322 2.223,-0.216 4.409,-0.505 6.56,-0.86 2.152,-0.36 4.12,-0.719 5.915,-1.077 1.792,-0.36 3.119,-0.681 3.979,-0.967 l -3.443,-17.421 c -1.578,0.572 -4.192,1.253 -7.847,2.044 -3.658,0.786 -8.357,1.182 -14.09,1.182 -3.729,0 -7.418,-0.396 -11.073,-1.182 -3.658,-0.791 -6.06,-1.327 -7.206,-1.613 v -93.985 H -41.293 V -7.098 c 4.73,1.722 10.609,3.333 17.636,4.839 C -16.632,-0.753 -8.747,0 0,0" /></g><g
           transform="translate(79.4286,977.5372)"
           id="g46"><path
             id="path48"
             style="fill:none;stroke:#fffffc;stroke-width:27.45499992;stroke-linecap:butt;stroke-linejoin:round;stroke-miterlimit:4;stroke-dasharray:none;stroke-opacity:1"
             d="m 0,0 h 839.097 c 32.346,0 58.567,-26.221 58.567,-58.567 v -839.096 c 0,-32.346 -26.221,-58.568 -58.567,-58.568 H 0 c -32.346,0 -58.567,26.222 -58.567,58.568 V -58.567 C -58.567,-26.221 -32.346,0 0,0 Z" /></g><g
           transform="translate(782.1003,639.5531)"
           id="g50"><path
             id="path52"
             style="fill:none;stroke:#fffffc;stroke-width:18.30400085;stroke-linecap:butt;stroke-linejoin:round;stroke-miterlimit:4;stroke-dasharray:none;stroke-opacity:1"
             d="M 0,0 -31.571,18.228 -63.142,36.455 -31.571,54.683 0,72.91" /></g><g
           transform="translate(835.7031,752.0461)"
           id="g54"><path
             id="path56"
             style="fill:none;stroke:#fffffc;stroke-width:18.30400085;stroke-linecap:butt;stroke-linejoin:miter;stroke-miterlimit:4;stroke-dasharray:none;stroke-opacity:1"
             d="m 0,0 h 27.043 c 12.676,0 22.88,-10.204 22.88,-22.88 v -30.278 c 0,-12.676 -10.204,-22.88 -22.88,-22.88 H -111.63" /></g><g
           transform="translate(564.8133,538.9804)"
           id="g58"><path
             id="path60"
             style="fill:none;stroke:#fffffc;stroke-width:13.72799969;stroke-linecap:butt;stroke-linejoin:round;stroke-miterlimit:4;stroke-dasharray:none;stroke-opacity:1"
             d="M 0,0 H -45.981 C -55.487,0 -63.14,7.653 -63.14,17.16 v 410.076" /></g><g
           transform="translate(534.0541,538.9798)"
           id="g62"><path
             id="path64"
             style="fill:none;stroke:#fffffc;stroke-width:13.72799969;stroke-linecap:butt;stroke-linejoin:round;stroke-miterlimit:4;stroke-dasharray:none;stroke-opacity:1"
             d="M 0,0 H 45.981 C 55.487,0 63.14,-7.653 63.14,-17.16 v -489.297" /></g><g
           transform="translate(756.3158,139.3389)"
           id="g66"><path
             id="path68"
             style="fill:#fffffc;fill-opacity:1;fill-rule:nonzero;stroke:none"
             d="m 0,0 c 0,-10.501 -1.135,-20.285 -3.398,-29.343 -2.268,-9.065 -6.232,-16.988 -11.892,-23.785 -5.666,-6.795 -13.283,-12.15 -22.857,-16.06 -9.574,-3.91 -21.675,-5.87 -36.292,-5.87 -13.591,0 -25.382,1.908 -35.367,5.715 -9.99,3.808 -17.658,7.877 -23.012,12.2 l 13.9,30.579 c 5.146,-3.503 11.478,-6.848 18.996,-10.039 7.514,-3.195 15.183,-4.786 23.012,-4.786 13.176,0 22.75,3.291 28.724,9.883 5.971,6.589 8.958,17.915 8.958,33.977 V 143.625 H 0 Z" /></g><g
           transform="translate(857.9288,97.9501)"
           id="g70"><path
             id="path72"
             style="fill:#fffffc;fill-opacity:1;fill-rule:nonzero;stroke:none"
             d="m 0,0 c 14.003,0 24.196,2.364 30.579,7.103 6.381,4.735 9.576,11.429 9.576,20.078 0,5.143 -1.081,9.574 -3.244,13.281 -2.163,3.706 -5.25,7.051 -9.266,10.038 -4.015,2.983 -8.908,5.763 -14.67,8.339 -5.769,2.574 -12.356,5.096 -19.77,7.568 -7.413,2.674 -14.57,5.608 -21.465,8.803 -6.902,3.191 -12.975,7.152 -18.225,11.891 -5.251,4.735 -9.474,10.396 -12.662,16.988 -3.195,6.589 -4.788,14.518 -4.788,23.784 0,19.354 6.689,34.541 20.075,45.558 13.384,11.013 31.607,16.525 54.672,16.525 13.384,0 25.275,-1.494 35.676,-4.477 10.394,-2.988 18.58,-6.232 24.555,-9.731 L 58.995,144.244 c -7.002,3.908 -14.67,6.895 -23.011,8.958 -8.339,2.055 -16.939,3.087 -25.791,3.087 -10.501,0 -18.686,-2.162 -24.555,-6.486 -5.868,-4.323 -8.804,-10.401 -8.804,-18.223 0,-4.739 0.977,-8.803 2.936,-12.202 1.955,-3.396 4.735,-6.437 8.339,-9.111 3.602,-2.679 7.825,-5.148 12.664,-7.414 4.835,-2.268 10.14,-4.428 15.906,-6.486 10.088,-3.705 19.099,-7.465 27.027,-11.272 7.925,-3.814 14.619,-8.341 20.078,-13.592 5.454,-5.251 9.623,-11.428 12.51,-18.531 2.88,-7.106 4.323,-15.706 4.323,-25.791 0,-19.359 -6.848,-34.34 -20.54,-44.942 C 46.38,-28.369 26.356,-33.669 0,-33.669 c -8.855,0 -16.938,0.57 -24.245,1.7 -7.313,1.133 -13.799,2.523 -19.459,4.169 -5.666,1.647 -10.554,3.345 -14.672,5.097 -4.123,1.747 -7.414,3.345 -9.885,4.788 l 11.429,31.813 C -51.271,10.81 -43.757,7.722 -34.284,4.632 -24.814,1.544 -13.386,0 0,0" /></g><g
           transform="translate(756.3158,139.3389)"
           id="g74"><path
             id="path76"
             style="fill:#fffffc;fill-opacity:1;fill-rule:nonzero;stroke:none"
             d="m 0,0 c 0,-10.501 -1.135,-20.285 -3.398,-29.343 -2.268,-9.065 -6.232,-16.988 -11.892,-23.785 -5.666,-6.795 -13.283,-12.15 -22.857,-16.06 -9.574,-3.91 -21.675,-5.87 -36.292,-5.87 -13.591,0 -25.382,1.908 -35.367,5.715 -9.99,3.808 -17.658,7.877 -23.012,12.2 l 13.9,30.579 c 5.146,-3.503 11.478,-6.848 18.996,-10.039 7.514,-3.195 15.183,-4.786 23.012,-4.786 13.176,0 22.75,3.291 28.724,9.883 5.971,6.589 8.958,17.915 8.958,33.977 V 143.625 H 0 Z" /></g><g
           transform="translate(756.3158,139.3389)"
           id="g78"><path
             id="path80"
             style="fill:none;stroke:#ffffff;stroke-width:9.15200043;stroke-linecap:butt;stroke-linejoin:miter;stroke-miterlimit:4;stroke-dasharray:none;stroke-opacity:1"
             d="m 0,0 c 0,-10.501 -1.135,-20.285 -3.398,-29.343 -2.268,-9.065 -6.232,-16.988 -11.892,-23.785 -5.666,-6.795 -13.283,-12.15 -22.857,-16.06 -9.574,-3.91 -21.675,-5.87 -36.292,-5.87 -13.591,0 -25.382,1.908 -35.367,5.715 -9.99,3.808 -17.658,7.877 -23.012,12.2 l 13.9,30.579 c 5.146,-3.503 11.478,-6.848 18.996,-10.039 7.514,-3.195 15.183,-4.786 23.012,-4.786 13.176,0 22.75,3.291 28.724,9.883 5.971,6.589 8.958,17.915 8.958,33.977 V 143.625 H 0 Z" /></g><g
           transform="translate(857.9288,97.9501)"
           id="g82"><path
             id="path84"
             style="fill:#fffffc;fill-opacity:1;fill-rule:nonzero;stroke:none"
             d="m 0,0 c 14.003,0 24.196,2.364 30.579,7.103 6.381,4.735 9.576,11.429 9.576,20.078 0,5.143 -1.081,9.574 -3.244,13.281 -2.163,3.706 -5.25,7.051 -9.266,10.038 -4.015,2.983 -8.908,5.763 -14.67,8.339 -5.769,2.574 -12.356,5.096 -19.77,7.568 -7.413,2.674 -14.57,5.608 -21.465,8.803 -6.902,3.191 -12.975,7.152 -18.225,11.891 -5.251,4.735 -9.474,10.396 -12.662,16.988 -3.195,6.589 -4.788,14.518 -4.788,23.784 0,19.354 6.689,34.541 20.075,45.558 13.384,11.013 31.607,16.525 54.672,16.525 13.384,0 25.275,-1.494 35.676,-4.477 10.394,-2.988 18.58,-6.232 24.555,-9.731 L 58.995,144.244 c -7.002,3.908 -14.67,6.895 -23.011,8.958 -8.339,2.055 -16.939,3.087 -25.791,3.087 -10.501,0 -18.686,-2.162 -24.555,-6.486 -5.868,-4.323 -8.804,-10.401 -8.804,-18.223 0,-4.739 0.977,-8.803 2.936,-12.202 1.955,-3.396 4.735,-6.437 8.339,-9.111 3.602,-2.679 7.825,-5.148 12.664,-7.414 4.835,-2.268 10.14,-4.428 15.906,-6.486 10.088,-3.705 19.099,-7.465 27.027,-11.272 7.925,-3.814 14.619,-8.341 20.078,-13.592 5.454,-5.251 9.623,-11.428 12.51,-18.531 2.88,-7.106 4.323,-15.706 4.323,-25.791 0,-19.359 -6.848,-34.34 -20.54,-44.942 C 46.38,-28.369 26.356,-33.669 0,-33.669 c -8.855,0 -16.938,0.57 -24.245,1.7 -7.313,1.133 -13.799,2.523 -19.459,4.169 -5.666,1.647 -10.554,3.345 -14.672,5.097 -4.123,1.747 -7.414,3.345 -9.885,4.788 l 11.429,31.813 C -51.271,10.81 -43.757,7.722 -34.284,4.632 -24.814,1.544 -13.386,0 0,0" /></g><g
           transform="translate(857.9288,97.9501)"
           id="g86"><path
             id="path88"
             style="fill:none;stroke:#ffffff;stroke-width:9.15200043;stroke-linecap:butt;stroke-linejoin:miter;stroke-miterlimit:4;stroke-dasharray:none;stroke-opacity:1"
             d="m 0,0 c 14.003,0 24.196,2.364 30.579,7.103 6.381,4.735 9.576,11.429 9.576,20.078 0,5.143 -1.081,9.574 -3.244,13.281 -2.163,3.706 -5.25,7.051 -9.266,10.038 -4.015,2.983 -8.908,5.763 -14.67,8.339 -5.769,2.574 -12.356,5.096 -19.77,7.568 -7.413,2.674 -14.57,5.608 -21.465,8.803 -6.902,3.191 -12.975,7.152 -18.225,11.891 -5.251,4.735 -9.474,10.396 -12.662,16.988 -3.195,6.589 -4.788,14.518 -4.788,23.784 0,19.354 6.689,34.541 20.075,45.558 13.384,11.013 31.607,16.525 54.672,16.525 13.384,0 25.275,-1.494 35.676,-4.477 10.394,-2.988 18.58,-6.232 24.555,-9.731 L 58.995,144.244 c -7.002,3.908 -14.67,6.895 -23.011,8.958 -8.339,2.055 -16.939,3.087 -25.791,3.087 -10.501,0 -18.686,-2.162 -24.555,-6.486 -5.868,-4.323 -8.804,-10.401 -8.804,-18.223 0,-4.739 0.977,-8.803 2.936,-12.202 1.955,-3.396 4.735,-6.437 8.339,-9.111 3.602,-2.679 7.825,-5.148 12.664,-7.414 4.835,-2.268 10.14,-4.428 15.906,-6.486 10.088,-3.705 19.099,-7.465 27.027,-11.272 7.925,-3.814 14.619,-8.341 20.078,-13.592 5.454,-5.251 9.623,-11.428 12.51,-18.531 2.88,-7.106 4.323,-15.706 4.323,-25.791 0,-19.359 -6.848,-34.34 -20.54,-44.942 C 46.38,-28.369 26.356,-33.669 0,-33.669 c -8.855,0 -16.938,0.57 -24.245,1.7 -7.313,1.133 -13.799,2.523 -19.459,4.169 -5.666,1.647 -10.554,3.345 -14.672,5.097 -4.123,1.747 -7.414,3.345 -9.885,4.788 l 11.429,31.813 C -51.271,10.81 -43.757,7.722 -34.284,4.632 -24.814,1.544 -13.386,0 0,0 Z" /></g></g></g></g></svg>