<?xml version="1.0" encoding="UTF-8" standalone="no"?>
<!DOCTYPE svg PUBLIC "-//W3C//DTD SVG 1.1//EN"
"http://www.w3.org/Graphics/SVG/1.1/DTD/svg11.dtd">


<!-- Page 1 -->
<svg x="0" y="0" width="1833" height="1833" viewBox="0 0 1833 1833" version="1.1" xmlns="http://www.w3.org/2000/svg" xmlns:xlink="http://www.w3.org/1999/xlink"
style="display: block;margin-left: auto;margin-right: auto;">
<defs>

<style type="text/css"><![CDATA[

.g1_1{
fill: #FFE701;
}
.g2_1{
fill: #191700;
}


]]></style>

</defs>
<path d="M0,0
L0,1833
L1833,1833
L1833,0 Z " 
fill="#FFFFFF" stroke="none" />
<path d="M0,1833.3l1833.3,0L1833.3,0L0,0L0,1833.3Z" class="g1_1" />
<path d="M380.7,1235.7L329,1057.1l-41.4,0l-51.7,178.6L192.1,1057.1l-57.7,0L210,1340.4l46.2,0l52.1,-171.9l52.1,171.9l46.2,0l76,-283.3l-57.7,0Zm20.8,-605l89.9,0l0,-23.8l-63.3,0l0,-33.2l53.9,0l0,-23.8l-53.9,0l0,-32l63.3,0l0,-23.8l-89.9,0ZM544.1,554l25.2,0c11.7,0,19.4,-7.5,19.4,-18.1c0,-10.5,-7.7,-18,-19.4,-18l-25.2,0Zm0,76.7l-26.6,0l0,-136.6l53.5,0c27.8,0,44.3,19,44.3,41.8c0,19.2,-11.7,31.1,-25,35.9l30.5,58.9l-30.8,0L563.3,576.2l-19.2,0ZM704.5,764.3l0,-49.3L518,715l0,283.2l186.5,0l0,-49.3l-131.2,0l0,-68.8l111.7,0l0,-49.4l-111.7,0l0,-66.4ZM833.7,606.9c12.2,0,17.9,-7.7,17.9,-16.9c0,-9.2,-5.7,-16.7,-17.9,-16.7l-27.7,0l0,33.6ZM806,549.3l26.1,0c11.2,0,17.6,-6.3,17.6,-15.7c0,-9.4,-6.4,-15.7,-17.6,-15.7l-26.1,0Zm30.5,81.4l-57.2,0l0,-136.6l54.8,0c26.7,0,42.2,15,42.2,38.4c0,15.1,-9.9,24.9,-16.8,28.2c8.2,3.8,18.7,12.4,18.7,30.7c0,25.5,-17.4,39.3,-41.7,39.3M163.6,546.8l54.1,83.9l23.8,0l0,-136.6l-26.7,0l0,83.6L160.7,494.1l-23.8,0l0,136.6l26.7,0Zm157.9,85c28,0,50.2,-19,50.2,-47.9l0,-89.8l-26.4,0l0,88.8c0,15.7,-9.4,25.1,-23.8,25.1c-14.4,0,-23.6,-9.4,-23.6,-25.1l0,-88.8l-26.7,0l0,89.8c0,28.9,22.3,47.9,50.3,47.9m758.2,395.9l48.5,0L1241.6,685.6l-48.6,0Zm142,29.4l-67.2,0l-99.9,123.3l0,-123.3l-55.3,0l0,283.3l55.3,0l0,-85.2l36.6,-43.7l72.8,128.9l64.4,0L1127.8,1169.7ZM1048.2,554l25.1,0c11.7,0,19.4,-7.5,19.4,-18.1c0,-10.5,-7.7,-18,-19.4,-18l-25.1,0Zm0,76.7l-26.7,0l0,-136.6l53.6,0c27.8,0,44.3,19,44.3,41.8c0,19.2,-11.8,31.1,-25,35.9l30.5,58.9l-30.9,0l-26.6,-54.5l-19.2,0ZM1192.6,577l25.1,0l0,5.1c0,7.5,-2.1,13.7,-6.1,18.3c-4.8,5.1,-11.1,7.6,-19,7.6c-7.3,0,-13,-2.3,-17,-7c-5.4,-6.4,-6.6,-11.7,-6.6,-38.6c0,-27,1.6,-32,6.6,-38.4c4.2,-4.8,9.9,-7.3,17,-7.3c13.3,0,21.3,6.7,24.6,20l26.8,0C1240.4,512.9,1223.7,493,1192.6,493c-14.6,0,-26.8,5,-36.8,14.9c-5.9,6,-9.6,12.7,-11.1,20.6c-1.6,7.6,-2.3,18.9,-2.3,33.9c0,14.9,0.7,26.3,2.3,34c1.5,7.6,5.2,14.5,11.1,20.5c10,9.9,22.2,14.9,36.8,14.9c15.3,0,28,-4.8,38.6,-15.5c9.4,-10,13,-21.7,13,-41.6l0,-20l-51.6,0ZM905.5,630.7l89.9,0l0,-23.8l-63.2,0l0,-33.2l53.8,0l0,-23.8l-53.8,0l0,-32l63.2,0l0,-23.8l-89.9,0Zm-184.7,-53L666.7,494.1l-23.8,0l0,136.6l26.7,0l0,-83.9l54.1,83.9l23.7,0l0,-136.6l-26.6,0ZM518,1340.4l186.5,0l0,-49.4l-131.2,0l0,-68.8l111.7,0l0,-49.3l-111.7,0l0,-66.5l131.2,0l0,-49.3l-186.5,0Zm240.6,0l186.6,0l0,-49.4l-131.3,0l0,-68.8l111.8,0l0,-49.3l-111.8,0l0,-66.5l131.3,0l0,-49.3l-186.6,0Zm150,-426.5c0,-19.1,-11.9,-34.6,-37,-34.6l-57.7,0l0,69.6l57.7,0c25.1,0,37,-15.9,37,-35M813.9,829.6l54.1,0c23.5,0,36.6,-13.2,36.6,-32.7c0,-19.5,-13.1,-32.6,-36.6,-32.6l-54.1,0Zm150,87.1c0,52.9,-36.2,81.5,-86.7,81.5l-118.6,0l0,-283.2l113.8,0c55.3,0,87.5,31,87.5,79.5c0,31.5,-20.7,51.8,-35,58.5c17.1,8,39,25.9,39,63.7M380.7,893.6L329,715l-41.4,0L235.9,893.6L192.1,715l-57.7,0L210,998.2l46.2,0L308.3,826.4l52.1,171.8l46.2,0L482.6,715l-57.7,0ZM1612.7,654c0,-48.7,-27.5,-81.2,-63.5,-81.2c-30.3,0,-48,17.7,-59.9,39.7l-1.5,0c-10.4,-15.8,-28.1,-29.9,-50.1,-29.9c-37.9,0,-62.8,27.8,-62.8,69.6c0,42.6,24.2,73.3,63.1,73.3c24.2,0,40.8,-13,54.1,-30.7l1.5,0c11.5,21.7,28.5,39,56.3,39c37.2,0,62.8,-33.9,62.8,-79.8m-47.3,196l0,49.8l42.9,0l0,-145.8l-42.9,0l0,42.9l-186.2,0l0,39c9.7,16.2,16.2,32.1,20.9,57l32.9,0l0,-42.9Zm47.3,155.8c0,-49,-41.9,-81.9,-119.8,-81.9c-78,0,-118,32.9,-118,81.9c0,49.1,40,82,118,82c77.9,0,119.8,-32.9,119.8,-82m-4.4,96.7l-44.7,0l0,46.2c0,10.9,1.4,26.7,2.9,38.3c-39,-37.2,-80.1,-73.3,-118.7,-73.3c-44.1,0,-72.9,30.7,-72.9,75.8c0,32.8,12.2,54.1,36.4,76.9l28.5,-28.9c-12.2,-11.5,-23.4,-24.2,-23.4,-40.8c0,-19.8,12.2,-32.4,34.6,-32.4c32.5,0,71.8,41.1,127,99.5l30.3,0Zm90.6,237.9l-412.3,0l0,-846.6l412.3,0l0,846.6Zm-206,-366.3c-62.8,0,-76.9,13.7,-76.9,31.7c0,17.7,14.1,31.8,76.9,31.8c62.4,0,78.6,-14.1,78.6,-31.8c0,-18,-16.2,-31.7,-78.6,-31.7M1411.7,653.3c0,14.1,8.6,25.6,26.3,25.6c18.8,0,27.8,-15.8,36.8,-39.3c-10.4,-9,-21.6,-14.1,-33.5,-14.1c-17.7,0,-29.6,10.5,-29.6,27.8M1575.9,653c0,19.1,-11.9,35.3,-32.1,35.3c-14.1,0,-27.1,-7.6,-36.5,-17.7c12.3,-28.8,19.9,-48.3,40.1,-48.3c19.1,0,28.5,13,28.5,30.7Z" class="g2_1" />

</svg>
