<svg xmlns="http://www.w3.org/2000/svg" xmlns:xlink="http://www.w3.org/1999/xlink" width="113.71mm" height="32.07mm" viewBox="0 0 322.34 90.9"><defs><style>.cls-1{fill:url(#Unbenannter_Verlauf_5);}.cls-2{isolation:isolate;}.cls-3{fill:#40464b;}.cls-4{fill:#1a9eda;}.cls-5{mix-blend-mode:multiply;}.cls-6{clip-path:url(#clip-path);}.cls-7{fill:url(#Unbenannter_Verlauf_7);}</style><linearGradient id="Unbenannter_Verlauf_5" x1="228.22" y1="29.96" x2="251.61" y2="29.96" gradientUnits="userSpaceOnUse"><stop offset="0.35" stop-color="#fff"/><stop offset="1"/></linearGradient><clipPath id="clip-path"><polygon class="cls-1" points="251.61 0 238.3 0 228.22 42.82 236.95 59.91 251.61 0"/></clipPath><linearGradient id="Unbenannter_Verlauf_7" x1="-129.24" y1="465.05" x2="-128.24" y2="465.05" gradientTransform="matrix(63.07, 0, 0, -63.07, 8359.55, 29361.38)" gradientUnits="userSpaceOnUse"><stop offset="0.42" stop-color="#fff"/><stop offset="1"/></linearGradient></defs><title>wuewww-logo_v1</title><g class="cls-2"><g id="Ebene_1" data-name="Ebene 1"><polygon class="cls-3" points="70.71 0 60.63 42.82 50.38 0 33.91 0 23.48 42.82 13.31 0 0 0 14.75 59.91 31.94 59.91 42.1 14.39 52.18 59.91 69.36 59.91 84.02 0 70.71 0"/><path class="cls-3" d="M131.73,0V42.46c0,9.09-5.67,18.35-22.58,18.35S86.57,51.55,86.57,42.46V0h13.49V41.2c0,4.86,2.34,7.65,9.09,7.65s9.08-2.79,9.08-7.65V0Z"/><polygon class="cls-3" points="137.28 0 137.28 59.91 174.97 59.91 174.97 47.95 150.77 47.95 150.77 34.91 173.08 34.91 173.08 22.94 150.77 22.94 150.77 11.96 174.97 11.96 174.97 0 137.28 0"/><polygon class="cls-4" points="238.3 0 228.22 42.82 217.97 0 201.5 0 191.07 42.82 180.9 0 167.59 0 182.34 59.91 199.52 59.91 209.69 14.39 219.76 59.91 236.95 59.91 251.61 0 238.3 0"/><polygon class="cls-3" points="27.33 68.95 23.42 85.43 20.99 85.43 16.24 67.84 17.74 67.84 22.15 84.24 26.09 67.84 28.57 67.84 32.5 84.24 36.91 67.84 38.42 67.84 33.67 85.43 31.24 85.43 27.33 68.95"/><path class="cls-3" d="M42.2,72.57V83c0,1,.5,1.29,1.4,1.29a13.56,13.56,0,0,0,4.94-1.48V72.57h1.53V85.43H48.72l-.11-1.16a14.4,14.4,0,0,1-5.23,1.43c-2,0-2.72-1.14-2.72-2.91V72.57Z"/><path class="cls-3" d="M54.89,78.09h6.44V76.93c0-2.16-.76-3.3-3.17-3.3s-3.27,1.14-3.27,3.3Zm3.35,6.26a16.26,16.26,0,0,0,4.07-.61L62.57,85a14.19,14.19,0,0,1-4.44.71c-3.62,0-4.78-1.88-4.78-4.67V77c0-2.64,1.19-4.68,4.81-4.68s4.67,2,4.67,4.68v2.48H54.89v1.61c0,2.3.79,3.28,3.35,3.28"/><path class="cls-3" d="M71.6,73.81a28.67,28.67,0,0,0-4.07,2.38v9.24H66V72.57h1.37l.08,2a21.82,21.82,0,0,1,4-2.22Z"/><polygon class="cls-3" points="73.94 72.57 82.28 72.57 82.25 73.81 75.33 84.19 82.49 84.19 82.49 85.43 73.72 85.43 73.72 84.19 80.67 73.81 73.91 73.81 73.94 72.57"/><path class="cls-3" d="M87.06,84a16.61,16.61,0,0,0,3,.26c2.77,0,3.43-1.16,3.43-3.09V76c0-1.53-.69-2.24-2.38-2.24a7.81,7.81,0,0,0-4,1.11ZM95,81.15c0,2.88-1.27,4.54-5.15,4.54a22.4,22.4,0,0,1-4.3-.48V67.32l1.53-.21v6.18a9.07,9.07,0,0,1,4.23-1c2.59,0,3.7,1.48,3.7,3.75Z"/><path class="cls-3" d="M99.82,72.57V83c0,1,.5,1.29,1.4,1.29a13.57,13.57,0,0,0,4.94-1.48V72.57h1.53V85.43h-1.35l-.11-1.16A14.4,14.4,0,0,1,101,85.7c-2,0-2.72-1.14-2.72-2.91V72.57Z"/><path class="cls-3" d="M117,73.81a28.66,28.66,0,0,0-4.07,2.38v9.24h-1.53V72.57h1.37l.08,2a21.86,21.86,0,0,1,4-2.22Z"/><path class="cls-3" d="M124,73.63c-2.56,0-3.46.79-3.46,3.14V77c0,2.43,1.11,3.14,3.46,3.14s3.46-.82,3.46-3.14v-.26c0-2.32-.9-3.14-3.46-3.14m0,7.87a8.33,8.33,0,0,1-1.72-.16,2.14,2.14,0,0,0-1,1.69c0,.5.29.84,1.16.92l3.7.29c2.35.18,3.19,1.27,3.19,3.06,0,2.67-1.32,3.59-5.49,3.59a19,19,0,0,1-4.52-.63l.24-1.21a21.16,21.16,0,0,0,4.33.53c3.49,0,3.94-.71,3.94-2.19,0-1.27-.53-1.77-2.06-1.87s-1.77-.11-3.49-.24c-1.9-.16-2.54-1.13-2.54-2.27a2.66,2.66,0,0,1,1.22-2.16A4.05,4.05,0,0,1,119,77v-.16c0-2.91,1.29-4.52,4.94-4.52a7.35,7.35,0,0,1,2.17.26h3.54v1.11l-1.61.13a4.8,4.8,0,0,1,.85,3V77c0,2.9-1.56,4.52-4.94,4.52"/><polygon class="cls-3" points="148.41 68.95 144.5 85.43 142.07 85.43 137.32 67.84 138.83 67.84 143.24 84.24 147.17 67.84 149.65 67.84 153.59 84.24 158 67.84 159.5 67.84 154.75 85.43 152.32 85.43 148.41 68.95"/><path class="cls-3" d="M162.59,78.09H169V76.93c0-2.16-.77-3.3-3.17-3.3s-3.27,1.14-3.27,3.3Zm3.35,6.26a16.26,16.26,0,0,0,4.07-.61l.26,1.24a14.19,14.19,0,0,1-4.44.71c-3.62,0-4.78-1.88-4.78-4.67V77c0-2.64,1.19-4.68,4.81-4.68s4.67,2,4.67,4.68v2.48h-7.95v1.61c0,2.3.79,3.28,3.35,3.28"/><path class="cls-3" d="M175.23,84a16.62,16.62,0,0,0,3,.26c2.77,0,3.43-1.16,3.43-3.09V76c0-1.53-.69-2.24-2.38-2.24a7.81,7.81,0,0,0-4,1.11Zm7.92-2.88c0,2.88-1.27,4.54-5.15,4.54a22.4,22.4,0,0,1-4.3-.48V67.32l1.53-.21v6.18a9.07,9.07,0,0,1,4.23-1c2.59,0,3.7,1.48,3.7,3.75Z"/><polygon class="cls-3" points="202.43 68.95 198.52 85.43 196.09 85.43 191.34 67.84 192.84 67.84 197.25 84.24 201.19 67.84 203.67 67.84 207.61 84.24 212.02 67.84 213.52 67.84 208.77 85.43 206.34 85.43 202.43 68.95"/><path class="cls-3" d="M216.61,78.09h6.44V76.93c0-2.16-.77-3.3-3.17-3.3s-3.27,1.14-3.27,3.3ZM220,84.35a16.27,16.27,0,0,0,4.07-.61l.26,1.24a14.18,14.18,0,0,1-4.44.71c-3.62,0-4.78-1.88-4.78-4.67V77c0-2.64,1.19-4.68,4.81-4.68s4.67,2,4.67,4.68v2.48h-7.95v1.61c0,2.3.79,3.28,3.35,3.28"/><path class="cls-3" d="M228.94,78.09h6.44V76.93c0-2.16-.77-3.3-3.17-3.3s-3.27,1.14-3.27,3.3Zm3.35,6.26a16.27,16.27,0,0,0,4.07-.61l.26,1.24a14.18,14.18,0,0,1-4.44.71c-3.62,0-4.78-1.88-4.78-4.67V77c0-2.64,1.19-4.68,4.81-4.68s4.67,2,4.67,4.68v2.48h-7.95v1.61c0,2.3.79,3.28,3.35,3.28"/><path class="cls-3" d="M249.24,72.57l-5.12,6.34,5.34,6.52h-2l-5.23-6.52,5.07-6.34Zm-9.19,12.86V67.31l1.53-.21V85.43Z"/><path class="cls-4" d="M257.45,82.66c2-2.19,2.27-2.45,4.09-4.57,2.48-2.88,2.88-3.3,2.88-5v-.45c0-1.29-.53-1.66-2.46-1.66a21.71,21.71,0,0,0-4.15.53l-.45-2.69a17.5,17.5,0,0,1,4.78-.69c4.07,0,5.49,1.4,5.49,4.15v.61c0,2.43-.21,3-2.67,6-1.48,1.82-2.11,2.56-3.14,3.75h5.86v2.82H257.45Z"/><path class="cls-4" d="M273.82,80.65c0,1.53.45,2.22,2.48,2.22s2.48-.69,2.48-2.22v-7.5c0-1.53-.45-2.22-2.48-2.22s-2.48.69-2.48,2.22ZM282,81c0,2.64-1.4,4.73-5.7,4.73s-5.7-2.09-5.7-4.73V72.83c0-2.64,1.4-4.73,5.7-4.73s5.7,2.09,5.7,4.73Z"/><polygon class="cls-4" points="285.58 73.71 284.24 71.17 289.09 68.37 292 68.37 292 85.43 288.78 85.43 288.78 71.94 285.58 73.71"/><path class="cls-4" d="M300.72,75.53c1.82-.71,2.09-1.08,2.09-2.06V72.36c0-1.06-.42-1.61-2.09-1.61s-2.09.56-2.09,1.61v1.11c0,1,.26,1.35,2.09,2.06m0,2.56c-2.24.87-2.51,1.35-2.51,2.46v.71c0,1.29.61,1.77,2.51,1.77s2.51-.47,2.51-1.77v-.71c0-1.11-.26-1.59-2.51-2.46m3.12-1.35c2,1,2.51,2,2.51,3.46v1.11c0,3.12-1.5,4.38-5.62,4.38s-5.62-1.27-5.62-4.38V80.2c0-1.45.55-2.48,2.51-3.46a3.47,3.47,0,0,1-2.09-3.27V72.28c0-2.56,1.4-4.17,5.2-4.17s5.2,1.61,5.2,4.17v1.19a3.43,3.43,0,0,1-2.09,3.27"/><g class="cls-5"><polygon class="cls-1" points="251.61 0 238.3 0 228.22 42.82 236.95 59.91 251.61 0"/><g class="cls-6"><rect class="cls-7" x="208.38" y="13.24" width="63.07" height="33.44" transform="matrix(0.17, -0.98, 0.98, 0.17, 168.75, 261.03)"/></g></g><polygon class="cls-4" points="309.02 0 298.95 42.82 288.69 0 272.23 0 261.79 42.82 251.63 0 238.31 0 253.06 59.91 270.25 59.91 280.42 14.39 290.49 59.91 307.67 59.91 322.34 0 309.02 0"/></g></g></svg>