<?xml version="1.0" encoding="utf-8"?>
<!-- Generator: Adobe Illustrator 19.1.0, SVG Export Plug-In . SVG Version: 6.00 Build 0)  -->
<svg version="1.1" id="Flyeralarm_x5F_Logo" xmlns="http://www.w3.org/2000/svg" xmlns:xlink="http://www.w3.org/1999/xlink"
	 x="0px" y="0px" viewBox="0 0 226.8 17.9" style="enable-background:new 0 0 226.8 17.9;" xml:space="preserve">
<style type="text/css">
	.st0{fill:#6F1132;}
</style>
<path class="st0" d="M19.3,0H1.2c0,0-0.2,0-0.4,0C0.4,0,0,0.4,0,0.9c0,0,0,16.1,0,16.3c0,0.4,0.3,0.8,0.8,0.8c0,0,0.8,0,1,0
	c0.5,0,0.8-0.4,0.8-0.8v-6.6l0,0c0-0.2,0.2-0.4,0.4-0.4c0,0,12,0,12.2,0c0.5,0,0.9-0.3,0.9-0.9c0-0.5,0-0.8,0-0.9
	c0-0.5-0.4-0.9-0.9-0.9L3,7.5c-0.2,0-0.4-0.2-0.4-0.4c0,0,0-4,0-4c0-0.2,0.2-0.4,0.4-0.4c0,0,16,0,16.3,0c0.4,0,0.9-0.3,0.9-0.9
	c0,0,0-0.8,0-0.9C20.1,0.5,19.9,0,19.3,0z"/>
<path class="st0" d="M39.1,15.3l-12,0c-0.2,0-0.4-0.2-0.4-0.4l0,0v-14c0-0.5-0.4-0.8-0.8-0.8h-1c-0.5,0-0.8,0.4-0.8,0.8c0,0,0,0,0,0
	c0,0,0,15.9,0,16.2c0,0.5,0.4,0.9,0.8,0.9h14.2c0.5,0,0.8-0.4,0.8-0.8v-1C39.9,15.7,39.6,15.3,39.1,15.3z"/>
<path class="st0" d="M57.2,0h-1.9c-0.5,0-0.9,0.2-1.2,0.6l-6.3,6.9c-0.1,0.1-0.2,0.1-0.3,0.1c-0.1,0-0.3-0.1-0.3-0.2L41,0.6
	C40.6,0.2,40.3,0,39.7,0h-1.9c-0.4,0-0.5,0.5-0.3,0.7c0,0,8.1,9,8.3,9.2c0.2,0.2,0.4,0.6,0.4,1.2v6.1h0c0,0.5,0.4,0.8,0.8,0.8h1
	c0.5,0,0.8-0.4,0.8-0.8h0V11c0-0.6,0.2-1,0.4-1.2c0.2-0.2,8.3-9.2,8.3-9.2C57.8,0.5,57.6,0,57.2,0z"/>
<path class="st0" d="M64.5,2.6c0,0,16.2,0,16.2,0v0c0.5,0,0.8-0.4,0.8-0.8v-1c0-0.4-0.4-0.8-0.8-0.8c0,0-18,0-18.4,0
	c-0.5,0-0.9,0.4-0.9,0.9c0,0.3,0,15.9,0,16.3c0,0.4,0.3,0.8,0.8,0.8h18.4v0c0.5,0,0.8-0.4,0.8-0.8v-1c0-0.5-0.4-0.8-0.8-0.8v0
	c0,0-16.2,0-16.2,0c-0.2,0-0.4-0.2-0.4-0.4c0,0,0-4.4,0-4.4c0-0.2,0.2-0.4,0.4-0.4c0,0,12.4,0,12.4,0c0.5,0,0.8-0.4,0.8-0.8v-1
	c0-0.5-0.4-0.8-0.8-0.8c0,0-12.4,0-12.4,0c-0.2,0-0.4-0.2-0.4-0.4l0-4C64.1,2.8,64.3,2.6,64.5,2.6z"/>
<path class="st0" d="M101.4,10L101.4,10c0,0,4,0,4.5,0c0.5,0,0.8-0.4,0.8-0.8c0,0,0-7.9,0-8.4c0-0.3-0.3-0.8-0.9-0.8
	c0,0-18.1,0-18.6,0s-0.9,0.4-0.9,0.8v16.3c0,0.5,0.4,0.8,0.8,0.8h1c0.4,0,0.8-0.4,0.8-0.8v-6.6l0,0c0-0.2,0.2-0.4,0.4-0.4
	c0,0,7,0,7,0c0.1,0,0.9,0,1.3,0.7l5.4,6.8c0,0,0.3,0.3,0.6,0.3l2.5,0c0.2,0,0.2-0.2,0.2-0.3c-0.2-0.2-5.5-7-5.5-7l0,0
	c-0.1-0.1-0.1-0.2-0.1-0.3C101,10.2,101.2,10,101.4,10z M89.4,7.5c-0.2,0-0.4-0.2-0.4-0.4l0-4c0-0.2,0.2-0.4,0.4-0.4
	c0,0,14.2,0,14.2,0c0.2,0,0.4,0.2,0.4,0.4v4c0,0.2-0.2,0.4-0.4,0.4H89.4z"/>
<path class="st0" d="M151.7,15.3l-12,0c-0.2,0-0.4-0.2-0.4-0.4l0,0v-14c0-0.5-0.4-0.8-0.8-0.8h-1c-0.5,0-0.8,0.4-0.8,0.8
	c0,0,0,0,0,0c0,0,0,15.9,0,16.2c0,0.5,0.4,0.9,0.8,0.9h14.2c0.5,0,0.8-0.4,0.8-0.8v-1C152.5,15.7,152.2,15.3,151.7,15.3z"/>
<path class="st0" d="M196.7,10L196.7,10c0,0,4,0,4.5,0s0.8-0.4,0.8-0.8c0,0,0-7.9,0-8.4c0-0.3-0.3-0.8-0.9-0.8c0,0-18.1,0-18.6,0
	c-0.5,0-0.9,0.4-0.9,0.8v16.3c0,0.5,0.4,0.8,0.8,0.8h1c0.4,0,0.8-0.4,0.8-0.8v-6.6l0,0c0-0.2,0.2-0.4,0.4-0.4c0,0,7,0,7,0
	c0.1,0,0.9,0,1.3,0.7l5.4,6.8c0,0,0.3,0.3,0.6,0.3l2.5,0c0.2,0,0.2-0.2,0.2-0.3c-0.2-0.2-5.5-7-5.5-7l0,0c-0.1-0.1-0.1-0.2-0.1-0.3
	C196.3,10.2,196.5,10,196.7,10z M184.8,7.5c-0.2,0-0.4-0.2-0.4-0.4l0-4c0-0.2,0.2-0.4,0.4-0.4c0,0,14.2,0,14.2,0
	c0.2,0,0.4,0.2,0.4,0.4v4c0,0.2-0.2,0.4-0.4,0.4H184.8z"/>
<path class="st0" d="M225.9,0c-0.3,0-1.2,0-1.2,0c-0.7,0-1.1,0.4-1.3,0.6l-6.4,7.1c-0.1,0.1-0.2,0.1-0.3,0.1c-0.1,0-0.2-0.1-0.3-0.1
	l-6.4-7.1c-0.2-0.2-0.6-0.6-1.3-0.6c0,0-0.8,0-1.2,0c-0.4,0-0.8,0.3-0.8,0.8v16.3h0c0,0.5,0.4,0.8,0.8,0.8h1c0.5,0,0.8-0.4,0.8-0.8
	h0V4.9c0-0.4,0.5-0.6,0.7-0.3c2.2,2.4,5.4,5.9,5.4,5.9l0,0c0.3,0.3,0.7,0.5,1.2,0.5h0c0.5,0,0.9-0.2,1.2-0.5l0,0
	c0,0,3.2-3.5,5.4-5.9c0.3-0.3,0.7-0.1,0.7,0.3v12.2h0c0,0.5,0.4,0.8,0.8,0.8h1c0.5,0,0.8-0.4,0.8-0.8h0V0.8
	C226.8,0.3,226.3,0,225.9,0z"/>
<path class="st0" d="M176,0c0,0-18.3,0-18.7,0c-0.4,0-0.8,0.3-0.8,0.8v16.3c0,0.4,0.4,0.8,0.8,0.8h1c0.5,0,0.8-0.4,0.8-0.8h0
	c0,0,0-6.6,0-6.6c0-0.2,0.2-0.4,0.4-0.4l14.3,0c0.2,0,0.4,0.2,0.4,0.4c0,0,0,6.6,0,6.6c0,0.5,0.4,0.8,0.8,0.8h1
	c0.4,0,0.8-0.3,0.8-0.8c0,0,0-16,0-16.3C176.9,0.4,176.6,0,176,0z M174.2,7c0,0.2-0.2,0.4-0.4,0.4h-14.2c-0.2,0-0.4-0.2-0.4-0.4l0-4
	c0-0.2,0.2-0.4,0.4-0.4c0,0,14.2,0,14.2,0c0.2,0,0.4,0.2,0.4,0.4V7z"/>
<path class="st0" d="M131,0c0,0-18.3,0-18.7,0c-0.4,0-0.8,0.3-0.8,0.8v16.3c0,0.4,0.4,0.8,0.8,0.8h1c0.5,0,0.8-0.4,0.8-0.8h0
	c0,0,0-6.6,0-6.6c0-0.2,0.2-0.4,0.4-0.4l14.3,0c0.2,0,0.4,0.2,0.4,0.4c0,0,0,6.6,0,6.6c0,0.5,0.4,0.8,0.8,0.8h1
	c0.4,0,0.8-0.3,0.8-0.8c0,0,0-16,0-16.3C131.9,0.4,131.6,0,131,0z M129.2,7c0,0.2-0.2,0.4-0.4,0.4h-14.2c-0.2,0-0.4-0.2-0.4-0.4l0-4
	c0-0.2,0.2-0.4,0.4-0.4c0,0,14.2,0,14.2,0c0.2,0,0.4,0.2,0.4,0.4V7z"/>
</svg>
